<?xml version="1.0" encoding="UTF-8" standalone="no"?>
<svg
   width="303.01004mm"
   height="69.818497mm"
   viewBox="0 0 303.01003 69.818496"
   version="1.1"
   id="svg1036"
   inkscape:version="1.1.2 (b8e25be833, 2022-02-05)"
   sodipodi:docname="cosmics.svg"
   xmlns:inkscape="http://www.inkscape.org/namespaces/inkscape"
   xmlns:sodipodi="http://sodipodi.sourceforge.net/DTD/sodipodi-0.dtd"
   xmlns="http://www.w3.org/2000/svg"
   xmlns:svg="http://www.w3.org/2000/svg"
   xmlns:rdf="http://www.w3.org/1999/02/22-rdf-syntax-ns#"
   xmlns:cc="http://creativecommons.org/ns#"
   xmlns:dc="http://purl.org/dc/elements/1.1/">
  <defs
     id="defs1030">
    <marker
       inkscape:stockid="Arrow1Send"
       orient="auto"
       refY="0"
       refX="0"
       id="marker2108"
       style="overflow:visible"
       inkscape:isstock="true">
      <path
         id="path2106"
         d="M 0,0 5,-5 -12.5,0 5,5 Z"
         style="fill:#000000;fill-opacity:1;fill-rule:evenodd;stroke:#000000;stroke-width:1pt;stroke-opacity:1"
         transform="matrix(-0.2,0,0,-0.2,-1.2,0)" />
    </marker>
    <linearGradient
       id="linearGradient4741"
       inkscape:swatch="solid">
      <stop
         id="stop4739"
         offset="0"
         style="stop-color:#32417c;stop-opacity:1;" />
    </linearGradient>
    <linearGradient
       id="linearGradient4057"
       inkscape:swatch="solid">
      <stop
         id="stop4055"
         offset="0"
         style="stop-color:#000000;stop-opacity:1;" />
    </linearGradient>
    <marker
       inkscape:isstock="true"
       style="overflow:visible"
       id="marker2957"
       refX="0"
       refY="0"
       orient="auto"
       inkscape:stockid="StopL">
      <path
         transform="scale(0.8)"
         style="fill:none;fill-opacity:0.75;fill-rule:evenodd;stroke:#000000;stroke-width:1pt;stroke-opacity:1"
         d="M 0,5.65 V -5.65"
         id="path2955" />
    </marker>
    <marker
       inkscape:isstock="true"
       style="overflow:visible"
       id="StopL"
       refX="0"
       refY="0"
       orient="auto"
       inkscape:stockid="StopL">
      <path
         transform="scale(0.8)"
         style="fill:none;fill-opacity:0.75;fill-rule:evenodd;stroke:#000000;stroke-width:1pt;stroke-opacity:1"
         d="M 0,5.65 V -5.65"
         id="path1888" />
    </marker>
    <marker
       inkscape:isstock="true"
       style="overflow:visible"
       id="StopM"
       refX="0"
       refY="0"
       orient="auto"
       inkscape:stockid="StopM">
      <path
         transform="scale(0.4)"
         style="fill:none;fill-opacity:0.75;fill-rule:evenodd;stroke:#000000;stroke-width:1pt;stroke-opacity:1"
         d="M 0,5.65 V -5.65"
         id="path1891" />
    </marker>
    <marker
       inkscape:isstock="true"
       style="overflow:visible"
       id="Arrow2Mend"
       refX="0"
       refY="0"
       orient="auto"
       inkscape:stockid="Arrow2Mend">
      <path
         transform="scale(-0.6)"
         d="M 8.7185878,4.0337352 -2.2072895,0.01601326 8.7185884,-4.0017078 c -1.7454984,2.3720609 -1.7354408,5.6174519 -6e-7,8.035443 z"
         style="fill:#000000;fill-opacity:1;fill-rule:evenodd;stroke:#000000;stroke-width:0.625;stroke-linejoin:round;stroke-opacity:1"
         id="path1746" />
    </marker>
    <marker
       inkscape:collect="always"
       inkscape:isstock="true"
       style="overflow:visible"
       id="Arrow1Send"
       refX="0"
       refY="0"
       orient="auto"
       inkscape:stockid="Arrow1Send">
      <path
         transform="matrix(-0.2,0,0,-0.2,-1.2,0)"
         style="fill:#000000;fill-opacity:1;fill-rule:evenodd;stroke:#000000;stroke-width:1pt;stroke-opacity:1"
         d="M 0,0 5,-5 -12.5,0 5,5 Z"
         id="path1734" />
    </marker>
    <marker
       inkscape:isstock="true"
       style="overflow:visible"
       id="Arrow1Lend"
       refX="0"
       refY="0"
       orient="auto"
       inkscape:stockid="Arrow1Lend">
      <path
         transform="matrix(-0.8,0,0,-0.8,-10,0)"
         style="fill:#000000;fill-opacity:1;fill-rule:evenodd;stroke:#000000;stroke-width:1pt;stroke-opacity:1"
         d="M 0,0 5,-5 -12.5,0 5,5 Z"
         id="path1722" />
    </marker>
    <marker
       inkscape:isstock="true"
       style="overflow:visible"
       id="Arrow2Mstart"
       refX="0"
       refY="0"
       orient="auto"
       inkscape:stockid="Arrow2Mstart">
      <path
         transform="scale(0.6)"
         d="M 8.7185878,4.0337352 -2.2072895,0.01601326 8.7185884,-4.0017078 c -1.7454984,2.3720609 -1.7354408,5.6174519 -6e-7,8.035443 z"
         style="fill:#000000;fill-opacity:1;fill-rule:evenodd;stroke:#000000;stroke-width:0.625;stroke-linejoin:round;stroke-opacity:1"
         id="path1743" />
    </marker>
    <marker
       inkscape:isstock="true"
       style="overflow:visible"
       id="Arrow1Lstart"
       refX="0"
       refY="0"
       orient="auto"
       inkscape:stockid="Arrow1Lstart">
      <path
         transform="matrix(0.8,0,0,0.8,10,0)"
         style="fill:#000000;fill-opacity:1;fill-rule:evenodd;stroke:#000000;stroke-width:1pt;stroke-opacity:1"
         d="M 0,0 5,-5 -12.5,0 5,5 Z"
         id="path1719" />
    </marker>
    <marker
       inkscape:stockid="StopL"
       orient="auto"
       refY="0"
       refX="0"
       id="marker2957-1"
       style="overflow:visible"
       inkscape:isstock="true">
      <path
         id="path2955-3"
         d="M 0,5.65 V -5.65"
         style="fill:none;fill-opacity:0.75;fill-rule:evenodd;stroke:#000000;stroke-width:1pt;stroke-opacity:1"
         transform="scale(0.8)" />
    </marker>
    <marker
       inkscape:stockid="StopL"
       orient="auto"
       refY="0"
       refX="0"
       id="StopL-6"
       style="overflow:visible"
       inkscape:isstock="true">
      <path
         id="path1888-4"
         d="M 0,5.65 V -5.65"
         style="fill:none;fill-opacity:0.75;fill-rule:evenodd;stroke:#000000;stroke-width:1pt;stroke-opacity:1"
         transform="scale(0.8)" />
    </marker>
    <marker
       inkscape:isstock="true"
       style="overflow:visible"
       id="marker2957-1-8"
       refX="0"
       refY="0"
       orient="auto"
       inkscape:stockid="StopL">
      <path
         transform="scale(0.8)"
         style="fill:none;fill-opacity:0.75;fill-rule:evenodd;stroke:#000000;stroke-width:1pt;stroke-opacity:1"
         d="M 0,5.65 V -5.65"
         id="path2955-3-0" />
    </marker>
    <marker
       inkscape:isstock="true"
       style="overflow:visible"
       id="StopL-6-2"
       refX="0"
       refY="0"
       orient="auto"
       inkscape:stockid="StopL">
      <path
         transform="scale(0.8)"
         style="fill:none;fill-opacity:0.75;fill-rule:evenodd;stroke:#000000;stroke-width:1pt;stroke-opacity:1"
         d="M 0,5.65 V -5.65"
         id="path1888-4-6" />
    </marker>
    <g
       id="g954">
      <symbol
         id="symbol35"
         overflow="visible">
        <path
           id="path8871"
           d=""
           style="stroke:none" />
      </symbol>
      <symbol
         id="symbol144"
         overflow="visible">
        <path
           id="path469"
           d="M 4.828125,-4.09375 4,-6.078125 c -0.03125,-0.078125 -0.046875,-0.125 -0.046875,-0.125 0,-0.0625 0.15625,-0.25 0.578125,-0.296875 0.109375,-0.015625 0.203125,-0.015625 0.203125,-0.1875 0,-0.125 -0.125,-0.125 -0.15625,-0.125 -0.40625,0 -0.828125,0.03125 -1.25,0.03125 -0.25,0 -0.859375,-0.03125 -1.109375,-0.03125 -0.0625,0 -0.1875,0 -0.1875,0.203125 C 2.03125,-6.5 2.140625,-6.5 2.265625,-6.5 c 0.59375,0 0.65625,0.09375 0.75,0.3125 l 1.171875,2.78125 -2.109375,2.265625 -0.125,0.109375 C 1.46875,-0.5 1,-0.34375 0.484375,-0.3125 c -0.125,0.015625 -0.21875,0.015625 -0.21875,0.203125 0,0.015625 0,0.109375 0.140625,0.109375 0.296875,0 0.625,-0.03125 0.921875,-0.03125 C 1.703125,-0.03125 2.09375,0 2.453125,0 2.515625,0 2.625,0 2.625,-0.203125 2.625,-0.296875 2.53125,-0.3125 2.515625,-0.3125 c -0.09375,0 -0.40625,-0.03125 -0.40625,-0.3125 0,-0.15625 0.15625,-0.3125 0.265625,-0.4375 L 3.40625,-2.140625 4.296875,-3.125 l 1,2.390625 c 0.046875,0.109375 0.0625,0.109375 0.0625,0.140625 0,0.078125 -0.203125,0.25 -0.578125,0.28125 C 4.671875,-0.296875 4.578125,-0.296875 4.578125,-0.125 4.578125,0 4.6875,0 4.71875,0 5,0 5.703125,-0.03125 5.984375,-0.03125 6.234375,-0.03125 6.84375,0 7.09375,0 c 0.0625,0 0.1875,0 0.1875,-0.1875 0,-0.125 -0.109375,-0.125 -0.1875,-0.125 -0.65625,0 -0.6875,-0.03125 -0.859375,-0.4375 C 5.859375,-1.671875 5.1875,-3.234375 4.953125,-3.828125 5.625,-4.53125 6.671875,-5.71875 7,-5.984375 7.28125,-6.234375 7.671875,-6.46875 8.265625,-6.5 c 0.125,-0.015625 0.21875,-0.015625 0.21875,-0.203125 0,0 0,-0.109375 -0.125,-0.109375 -0.296875,0 -0.640625,0.03125 -0.9375,0.03125 -0.375,0 -0.75,-0.03125 -1.109375,-0.03125 -0.0625,0 -0.1875,0 -0.1875,0.203125 0,0.0625 0.046875,0.09375 0.109375,0.109375 0.09375,0.015625 0.40625,0.03125 0.40625,0.3125 0,0.140625 -0.109375,0.265625 -0.1875,0.359375 z m 0,0"
           style="stroke:none" />
      </symbol>
      <symbol
         id="symbol7852"
         overflow="visible">
        <path
           id="path7607"
           d=""
           style="stroke:none" />
      </symbol>
      <symbol
         id="symbol1532"
         overflow="visible">
        <path
           id="path3420"
           d="m 1.84375,-4.625 c 0,-0.015625 0.03125,-0.109375 0.03125,-0.109375 0,-0.046875 -0.03125,-0.109375 -0.125,-0.109375 -0.140625,0 -0.71875,0.0625 -0.890625,0.078125 -0.046875,0 -0.15625,0.015625 -0.15625,0.15625 0,0.09375 0.109375,0.09375 0.1875,0.09375 0.328125,0 0.328125,0.0625 0.328125,0.109375 0,0.046875 -0.0625,0.328125 -0.109375,0.484375 l -0.15625,0.640625 c -0.0625,0.25 -0.4375,1.765625 -0.453125,1.859375 -0.046875,0.171875 -0.046875,0.265625 -0.046875,0.34375 0,0.703125 0.453125,1.140625 1.03125,1.140625 0.875,0 1.796875,-0.9375 1.796875,-1.96875 0,-0.8125 -0.5625,-1.171875 -1.046875,-1.171875 -0.359375,0 -0.671875,0.203125 -0.875,0.390625 z m -0.359375,4.5 c -0.328125,0 -0.53125,-0.296875 -0.53125,-0.71875 0,-0.25 0.0625,-0.484375 0.265625,-1.28125 C 1.25,-2.25 1.25,-2.265625 1.390625,-2.421875 1.65625,-2.71875 1.96875,-2.875 2.21875,-2.875 c 0.265625,0 0.5,0.203125 0.5,0.671875 0,0.28125 -0.140625,1 -0.359375,1.40625 C 2.1875,-0.453125 1.84375,-0.125 1.484375,-0.125 Z m 0,0"
           style="stroke:none" />
      </symbol>
      <symbol
         id="symbol1834"
         overflow="visible">
        <path
           id="path7300"
           d="m 3.703125,-1.859375 c 0,-0.765625 -0.578125,-1.21875 -1.265625,-1.21875 -1.03125,0 -2,0.96875 -2,1.921875 0,0.703125 0.5,1.21875 1.265625,1.21875 1,0 2,-0.90625 2,-1.921875 z m -2,1.734375 c -0.34375,0 -0.6875,-0.21875 -0.6875,-0.78125 0,-0.28125 0.125,-0.96875 0.40625,-1.359375 C 1.71875,-2.703125 2.125,-2.875 2.4375,-2.875 c 0.375,0 0.6875,0.25 0.6875,0.765625 C 3.125,-1.9375 3.046875,-1.25 2.734375,-0.765625 2.46875,-0.34375 2.0625,-0.125 1.703125,-0.125 Z m 0,0"
           style="stroke:none" />
      </symbol>
      <symbol
         id="symbol2980"
         overflow="visible">
        <path
           id="path1681"
           d="m 1.71875,-2.75 h 0.703125 c 0.140625,0 0.21875,0 0.21875,-0.15625 C 2.640625,-3 2.5625,-3 2.4375,-3 H 1.78125 l 0.25,-1.03125 C 2.046875,-4.0625 2.0625,-4.109375 2.0625,-4.125 c 0,-0.140625 -0.109375,-0.234375 -0.25,-0.234375 -0.171875,0 -0.265625,0.125 -0.328125,0.296875 C 1.4375,-3.875 1.53125,-4.21875 1.21875,-3 H 0.515625 c -0.125,0 -0.21875,0 -0.21875,0.15625 C 0.296875,-2.75 0.375,-2.75 0.5,-2.75 H 1.15625 L 0.75,-1.109375 C 0.703125,-0.9375 0.640625,-0.6875 0.640625,-0.59375 c 0,0.40625 0.359375,0.65625 0.75,0.65625 0.78125,0 1.21875,-0.96875 1.21875,-1.0625 0,-0.09375 -0.09375,-0.09375 -0.109375,-0.09375 -0.09375,0 -0.09375,0.015625 -0.15625,0.140625 -0.1875,0.4375 -0.546875,0.828125 -0.921875,0.828125 -0.15625,0 -0.25,-0.09375 -0.25,-0.34375 0,-0.0625 0.03125,-0.21875 0.046875,-0.28125 z m 0,0"
           style="stroke:none" />
      </symbol>
    </g>
    <g
       id="g2389">
      <symbol
         id="symbol6674"
         overflow="visible">
        <path
           id="path456"
           d=""
           style="stroke:none" />
      </symbol>
      <symbol
         id="symbol6961"
         overflow="visible">
        <path
           id="path1474"
           d="M 4.828125,-4.09375 4,-6.078125 c -0.03125,-0.078125 -0.046875,-0.125 -0.046875,-0.125 0,-0.0625 0.15625,-0.25 0.578125,-0.296875 0.109375,-0.015625 0.203125,-0.015625 0.203125,-0.1875 0,-0.125 -0.125,-0.125 -0.15625,-0.125 -0.40625,0 -0.828125,0.03125 -1.25,0.03125 -0.25,0 -0.859375,-0.03125 -1.109375,-0.03125 -0.0625,0 -0.1875,0 -0.1875,0.203125 C 2.03125,-6.5 2.140625,-6.5 2.265625,-6.5 c 0.59375,0 0.65625,0.09375 0.75,0.3125 l 1.171875,2.78125 -2.109375,2.265625 -0.125,0.109375 C 1.46875,-0.5 1,-0.34375 0.484375,-0.3125 c -0.125,0.015625 -0.21875,0.015625 -0.21875,0.203125 0,0.015625 0,0.109375 0.140625,0.109375 0.296875,0 0.625,-0.03125 0.921875,-0.03125 C 1.703125,-0.03125 2.09375,0 2.453125,0 2.515625,0 2.625,0 2.625,-0.203125 2.625,-0.296875 2.53125,-0.3125 2.515625,-0.3125 c -0.09375,0 -0.40625,-0.03125 -0.40625,-0.3125 0,-0.15625 0.15625,-0.3125 0.265625,-0.4375 L 3.40625,-2.140625 4.296875,-3.125 l 1,2.390625 c 0.046875,0.109375 0.0625,0.109375 0.0625,0.140625 0,0.078125 -0.203125,0.25 -0.578125,0.28125 C 4.671875,-0.296875 4.578125,-0.296875 4.578125,-0.125 4.578125,0 4.6875,0 4.71875,0 5,0 5.703125,-0.03125 5.984375,-0.03125 6.234375,-0.03125 6.84375,0 7.09375,0 c 0.0625,0 0.1875,0 0.1875,-0.1875 0,-0.125 -0.109375,-0.125 -0.1875,-0.125 -0.65625,0 -0.6875,-0.03125 -0.859375,-0.4375 C 5.859375,-1.671875 5.1875,-3.234375 4.953125,-3.828125 5.625,-4.53125 6.671875,-5.71875 7,-5.984375 7.28125,-6.234375 7.671875,-6.46875 8.265625,-6.5 c 0.125,-0.015625 0.21875,-0.015625 0.21875,-0.203125 0,0 0,-0.109375 -0.125,-0.109375 -0.296875,0 -0.640625,0.03125 -0.9375,0.03125 -0.375,0 -0.75,-0.03125 -1.109375,-0.03125 -0.0625,0 -0.1875,0 -0.1875,0.203125 0,0.0625 0.046875,0.09375 0.109375,0.109375 0.09375,0.015625 0.40625,0.03125 0.40625,0.3125 0,0.140625 -0.109375,0.265625 -0.1875,0.359375 z m 0,0"
           style="stroke:none" />
      </symbol>
      <symbol
         id="symbol3323"
         overflow="visible">
        <path
           id="path3168"
           d=""
           style="stroke:none" />
      </symbol>
      <symbol
         id="symbol4437"
         overflow="visible">
        <path
           id="path7592"
           d="m 1.84375,-4.625 c 0,-0.015625 0.03125,-0.109375 0.03125,-0.109375 0,-0.046875 -0.03125,-0.109375 -0.125,-0.109375 -0.140625,0 -0.71875,0.0625 -0.890625,0.078125 -0.046875,0 -0.15625,0.015625 -0.15625,0.15625 0,0.09375 0.109375,0.09375 0.1875,0.09375 0.328125,0 0.328125,0.0625 0.328125,0.109375 0,0.046875 -0.0625,0.328125 -0.109375,0.484375 l -0.15625,0.640625 c -0.0625,0.25 -0.4375,1.765625 -0.453125,1.859375 -0.046875,0.171875 -0.046875,0.265625 -0.046875,0.34375 0,0.703125 0.453125,1.140625 1.03125,1.140625 0.875,0 1.796875,-0.9375 1.796875,-1.96875 0,-0.8125 -0.5625,-1.171875 -1.046875,-1.171875 -0.359375,0 -0.671875,0.203125 -0.875,0.390625 z m -0.359375,4.5 c -0.328125,0 -0.53125,-0.296875 -0.53125,-0.71875 0,-0.25 0.0625,-0.484375 0.265625,-1.28125 C 1.25,-2.25 1.25,-2.265625 1.390625,-2.421875 1.65625,-2.71875 1.96875,-2.875 2.21875,-2.875 c 0.265625,0 0.5,0.203125 0.5,0.671875 0,0.28125 -0.140625,1 -0.359375,1.40625 C 2.1875,-0.453125 1.84375,-0.125 1.484375,-0.125 Z m 0,0"
           style="stroke:none" />
      </symbol>
      <symbol
         id="symbol8806"
         overflow="visible">
        <path
           id="path4371"
           d="m 3.703125,-1.859375 c 0,-0.765625 -0.578125,-1.21875 -1.265625,-1.21875 -1.03125,0 -2,0.96875 -2,1.921875 0,0.703125 0.5,1.21875 1.265625,1.21875 1,0 2,-0.90625 2,-1.921875 z m -2,1.734375 c -0.34375,0 -0.6875,-0.21875 -0.6875,-0.78125 0,-0.28125 0.125,-0.96875 0.40625,-1.359375 C 1.71875,-2.703125 2.125,-2.875 2.4375,-2.875 c 0.375,0 0.6875,0.25 0.6875,0.765625 C 3.125,-1.9375 3.046875,-1.25 2.734375,-0.765625 2.46875,-0.34375 2.0625,-0.125 1.703125,-0.125 Z m 0,0"
           style="stroke:none" />
      </symbol>
      <symbol
         id="symbol1679"
         overflow="visible">
        <path
           id="path2693"
           d="m 1.71875,-2.75 h 0.703125 c 0.140625,0 0.21875,0 0.21875,-0.15625 C 2.640625,-3 2.5625,-3 2.4375,-3 H 1.78125 l 0.25,-1.03125 C 2.046875,-4.0625 2.0625,-4.109375 2.0625,-4.125 c 0,-0.140625 -0.109375,-0.234375 -0.25,-0.234375 -0.171875,0 -0.265625,0.125 -0.328125,0.296875 C 1.4375,-3.875 1.53125,-4.21875 1.21875,-3 H 0.515625 c -0.125,0 -0.21875,0 -0.21875,0.15625 C 0.296875,-2.75 0.375,-2.75 0.5,-2.75 H 1.15625 L 0.75,-1.109375 C 0.703125,-0.9375 0.640625,-0.6875 0.640625,-0.59375 c 0,0.40625 0.359375,0.65625 0.75,0.65625 0.78125,0 1.21875,-0.96875 1.21875,-1.0625 0,-0.09375 -0.09375,-0.09375 -0.109375,-0.09375 -0.09375,0 -0.09375,0.015625 -0.15625,0.140625 -0.1875,0.4375 -0.546875,0.828125 -0.921875,0.828125 -0.15625,0 -0.25,-0.09375 -0.25,-0.34375 0,-0.0625 0.03125,-0.21875 0.046875,-0.28125 z m 0,0"
           style="stroke:none" />
      </symbol>
    </g>
    <g
       id="g9795">
      <symbol
         id="symbol8927"
         overflow="visible">
        <path
           id="path6375"
           d=""
           style="stroke:none" />
      </symbol>
      <symbol
         id="symbol4494"
         overflow="visible">
        <path
           id="path4695"
           d="m 2.046875,-3.984375 h 0.9375 c 0.203125,0 0.3125,0 0.3125,-0.203125 0,-0.109375 -0.109375,-0.109375 -0.28125,-0.109375 h -0.875 C 2.5,-5.71875 2.546875,-5.90625 2.546875,-5.96875 c 0,-0.171875 -0.125,-0.265625 -0.296875,-0.265625 -0.03125,0 -0.3125,0 -0.390625,0.359375 L 1.46875,-4.296875 h -0.9375 c -0.203125,0 -0.296875,0 -0.296875,0.1875 0,0.125 0.078125,0.125 0.28125,0.125 h 0.875 C 0.671875,-1.15625 0.625,-0.984375 0.625,-0.8125 0.625,-0.265625 1,0.109375 1.546875,0.109375 2.5625,0.109375 3.125,-1.34375 3.125,-1.421875 3.125,-1.53125 3.046875,-1.53125 3.015625,-1.53125 2.921875,-1.53125 2.90625,-1.5 2.859375,-1.390625 2.4375,-0.34375 1.90625,-0.109375 1.5625,-0.109375 c -0.203125,0 -0.3125,-0.125 -0.3125,-0.453125 0,-0.25 0.03125,-0.3125 0.0625,-0.484375 z m 0,0"
           style="stroke:none" />
      </symbol>
      <symbol
         id="symbol3696"
         overflow="visible">
        <path
           id="path7146"
           d=""
           style="stroke:none" />
      </symbol>
      <symbol
         id="symbol8495"
         overflow="visible">
        <path
           id="path8794"
           d="m 2.328125,-4.4375 c 0,-0.1875 0,-0.1875 -0.203125,-0.1875 -0.453125,0.4375 -1.078125,0.4375 -1.359375,0.4375 v 0.25 c 0.15625,0 0.625,0 1,-0.1875 v 3.546875 c 0,0.234375 0,0.328125 -0.6875,0.328125 H 0.8125 V 0 c 0.125,0 0.984375,-0.03125 1.234375,-0.03125 0.21875,0 1.09375,0.03125 1.25,0.03125 V -0.25 H 3.03125 c -0.703125,0 -0.703125,-0.09375 -0.703125,-0.328125 z m 0,0"
           style="stroke:none" />
      </symbol>
    </g>
    <g
       id="g1761">
      <symbol
         id="symbol9387"
         overflow="visible">
        <path
           id="path8955"
           d=""
           style="stroke:none" />
      </symbol>
      <symbol
         id="symbol7448"
         overflow="visible">
        <path
           id="path1680"
           d="m 2.046875,-3.984375 h 0.9375 c 0.203125,0 0.3125,0 0.3125,-0.203125 0,-0.109375 -0.109375,-0.109375 -0.28125,-0.109375 h -0.875 C 2.5,-5.71875 2.546875,-5.90625 2.546875,-5.96875 c 0,-0.171875 -0.125,-0.265625 -0.296875,-0.265625 -0.03125,0 -0.3125,0 -0.390625,0.359375 L 1.46875,-4.296875 h -0.9375 c -0.203125,0 -0.296875,0 -0.296875,0.1875 0,0.125 0.078125,0.125 0.28125,0.125 h 0.875 C 0.671875,-1.15625 0.625,-0.984375 0.625,-0.8125 0.625,-0.265625 1,0.109375 1.546875,0.109375 2.5625,0.109375 3.125,-1.34375 3.125,-1.421875 3.125,-1.53125 3.046875,-1.53125 3.015625,-1.53125 2.921875,-1.53125 2.90625,-1.5 2.859375,-1.390625 2.4375,-0.34375 1.90625,-0.109375 1.5625,-0.109375 c -0.203125,0 -0.3125,-0.125 -0.3125,-0.453125 0,-0.25 0.03125,-0.3125 0.0625,-0.484375 z m 0,0"
           style="stroke:none" />
      </symbol>
      <symbol
         id="symbol3469"
         overflow="visible">
        <path
           id="path9523"
           d=""
           style="stroke:none" />
      </symbol>
      <symbol
         id="symbol1963"
         overflow="visible">
        <path
           id="path6072"
           d="M 3.515625,-1.265625 H 3.28125 c -0.015625,0.15625 -0.09375,0.5625 -0.1875,0.625 C 3.046875,-0.59375 2.515625,-0.59375 2.40625,-0.59375 H 1.125 c 0.734375,-0.640625 0.984375,-0.84375 1.390625,-1.171875 0.515625,-0.40625 1,-0.84375 1,-1.5 0,-0.84375 -0.734375,-1.359375 -1.625,-1.359375 -0.859375,0 -1.453125,0.609375 -1.453125,1.25 0,0.34375 0.296875,0.390625 0.375,0.390625 0.15625,0 0.359375,-0.125 0.359375,-0.375 0,-0.125 -0.046875,-0.375 -0.40625,-0.375 C 0.984375,-4.21875 1.453125,-4.375 1.78125,-4.375 c 0.703125,0 1.0625,0.546875 1.0625,1.109375 0,0.609375 -0.4375,1.078125 -0.65625,1.328125 L 0.515625,-0.265625 C 0.4375,-0.203125 0.4375,-0.1875 0.4375,0 h 2.875 z m 0,0"
           style="stroke:none" />
      </symbol>
    </g>
    <g
       id="g4357">
      <symbol
         id="symbol1404"
         overflow="visible">
        <path
           id="path4755"
           d=""
           style="stroke:none" />
      </symbol>
      <symbol
         id="symbol6812"
         overflow="visible">
        <path
           id="path2242"
           d="m 2.296875,-3.5 c 0.0625,-0.203125 0.15625,-0.59375 0.15625,-0.640625 0,-0.171875 -0.125,-0.265625 -0.296875,-0.265625 -0.015625,0 -0.296875,0.015625 -0.390625,0.359375 l -1.4375,5.765625 c -0.03125,0.125 -0.03125,0.140625 -0.03125,0.171875 0,0.140625 0.109375,0.265625 0.28125,0.265625 0.203125,0 0.328125,-0.1875 0.34375,-0.21875 C 0.96875,1.859375 1.09375,1.328125 1.46875,-0.203125 1.796875,0.0625 2.25,0.109375 2.4375,0.109375 c 0.703125,0 1.09375,-0.453125 1.328125,-0.734375 0.09375,0.453125 0.46875,0.734375 0.90625,0.734375 0.34375,0 0.578125,-0.234375 0.734375,-0.546875 0.171875,-0.359375 0.296875,-0.96875 0.296875,-0.984375 0,-0.109375 -0.09375,-0.109375 -0.125,-0.109375 -0.09375,0 -0.109375,0.046875 -0.140625,0.1875 -0.15625,0.640625 -0.34375,1.234375 -0.75,1.234375 -0.265625,0 -0.296875,-0.265625 -0.296875,-0.453125 0,-0.21875 0.109375,-0.6875 0.1875,-1.046875 L 4.859375,-2.6875 C 4.890625,-2.828125 5,-3.203125 5.03125,-3.359375 5.078125,-3.59375 5.1875,-3.96875 5.1875,-4.03125 c 0,-0.171875 -0.140625,-0.265625 -0.296875,-0.265625 -0.046875,0 -0.3125,0.015625 -0.390625,0.34375 l -0.46875,1.875 c -0.109375,0.5 -0.21875,0.90625 -0.25,1.015625 -0.015625,0.046875 -0.484375,0.953125 -1.296875,0.953125 -0.5,0 -0.734375,-0.328125 -0.734375,-0.875 0,-0.28125 0.0625,-0.5625 0.140625,-0.84375 z m 0,0"
           style="stroke:none" />
      </symbol>
    </g>
    <marker
       inkscape:stockid="Arrow1Send"
       orient="auto"
       refY="0"
       refX="0"
       id="Arrow1Send-3"
       style="overflow:visible"
       inkscape:isstock="true">
      <path
         id="path1734-7"
         d="M 0,0 5,-5 -12.5,0 5,5 Z"
         style="fill:#000000;fill-opacity:1;fill-rule:evenodd;stroke:#000000;stroke-width:1pt;stroke-opacity:1"
         transform="matrix(-0.2,0,0,-0.2,-1.2,0)" />
    </marker>
    <marker
       inkscape:stockid="Arrow1Send"
       orient="auto"
       refY="0"
       refX="0"
       id="Arrow1Send-9"
       style="overflow:visible"
       inkscape:isstock="true">
      <path
         id="path1734-5"
         d="M 0,0 5,-5 -12.5,0 5,5 Z"
         style="fill:#000000;fill-opacity:1;fill-rule:evenodd;stroke:#000000;stroke-width:1pt;stroke-opacity:1"
         transform="matrix(-0.2,0,0,-0.2,-1.2,0)" />
    </marker>
    <marker
       inkscape:isstock="true"
       style="overflow:visible"
       id="Arrow1Send-9-5"
       refX="0"
       refY="0"
       orient="auto"
       inkscape:stockid="Arrow1Send">
      <path
         transform="matrix(-0.2,0,0,-0.2,-1.2,0)"
         style="fill:#000000;fill-opacity:1;fill-rule:evenodd;stroke:#000000;stroke-width:1pt;stroke-opacity:1"
         d="M 0,0 5,-5 -12.5,0 5,5 Z"
         id="path1734-5-8" />
    </marker>
    <marker
       inkscape:stockid="Arrow1Send"
       orient="auto"
       refY="0"
       refX="0"
       id="Arrow1Send-9-5-6"
       style="overflow:visible"
       inkscape:isstock="true">
      <path
         id="path1734-5-8-3"
         d="M 0,0 5,-5 -12.5,0 5,5 Z"
         style="fill:#000000;fill-opacity:1;fill-rule:evenodd;stroke:#000000;stroke-width:1pt;stroke-opacity:1"
         transform="matrix(-0.2,0,0,-0.2,-1.2,0)" />
    </marker>
    <marker
       inkscape:isstock="true"
       style="overflow:visible"
       id="Arrow1Send-9-5-6-8"
       refX="0"
       refY="0"
       orient="auto"
       inkscape:stockid="Arrow1Send">
      <path
         transform="matrix(-0.2,0,0,-0.2,-1.2,0)"
         style="fill:#000000;fill-opacity:1;fill-rule:evenodd;stroke:#000000;stroke-width:1pt;stroke-opacity:1"
         d="M 0,0 5,-5 -12.5,0 5,5 Z"
         id="path1734-5-8-3-0" />
    </marker>
    <marker
       inkscape:isstock="true"
       style="overflow:visible"
       id="marker2108-2"
       refX="0"
       refY="0"
       orient="auto"
       inkscape:stockid="Arrow1Send">
      <path
         transform="matrix(-0.2,0,0,-0.2,-1.2,0)"
         style="fill:#000000;fill-opacity:1;fill-rule:evenodd;stroke:#000000;stroke-width:1pt;stroke-opacity:1"
         d="M 0,0 5,-5 -12.5,0 5,5 Z"
         id="path2106-7" />
    </marker>
    <marker
       inkscape:stockid="Arrow1Send"
       orient="auto"
       refY="0"
       refX="0"
       id="marker2108-2-0"
       style="overflow:visible"
       inkscape:isstock="true">
      <path
         id="path2106-7-5"
         d="M 0,0 5,-5 -12.5,0 5,5 Z"
         style="fill:#000000;fill-opacity:1;fill-rule:evenodd;stroke:#000000;stroke-width:1pt;stroke-opacity:1"
         transform="matrix(-0.2,0,0,-0.2,-1.2,0)" />
    </marker>
    <marker
       inkscape:isstock="true"
       style="overflow:visible"
       id="marker2108-2-0-2"
       refX="0"
       refY="0"
       orient="auto"
       inkscape:stockid="Arrow1Send">
      <path
         transform="matrix(-0.2,0,0,-0.2,-1.2,0)"
         style="fill:#000000;fill-opacity:1;fill-rule:evenodd;stroke:#000000;stroke-width:1pt;stroke-opacity:1"
         d="M 0,0 5,-5 -12.5,0 5,5 Z"
         id="path2106-7-5-1" />
    </marker>
    <marker
       inkscape:isstock="true"
       style="overflow:visible"
       id="Arrow1Send-3-6"
       refX="0"
       refY="0"
       orient="auto"
       inkscape:stockid="Arrow1Send">
      <path
         transform="matrix(-0.2,0,0,-0.2,-1.2,0)"
         style="fill:#000000;fill-opacity:1;fill-rule:evenodd;stroke:#000000;stroke-width:1pt;stroke-opacity:1"
         d="M 0,0 5,-5 -12.5,0 5,5 Z"
         id="path1734-7-0" />
    </marker>
    <marker
       inkscape:stockid="StopL"
       orient="auto"
       refY="0"
       refX="0"
       id="StopL-2"
       style="overflow:visible"
       inkscape:isstock="true">
      <path
         id="path1888-43"
         d="M 0,5.65 V -5.65"
         style="fill:none;fill-opacity:0.75;fill-rule:evenodd;stroke:#000000;stroke-width:1pt;stroke-opacity:1"
         transform="scale(0.8)" />
    </marker>
    <marker
       inkscape:isstock="true"
       style="overflow:visible"
       id="StopL-6-3"
       refX="0"
       refY="0"
       orient="auto"
       inkscape:stockid="StopL">
      <path
         transform="scale(0.8)"
         style="fill:none;fill-opacity:0.75;fill-rule:evenodd;stroke:#000000;stroke-width:1pt;stroke-opacity:1"
         d="M 0,5.65 V -5.65"
         id="path1888-4-4" />
    </marker>
    <marker
       inkscape:stockid="StopL"
       orient="auto"
       refY="0"
       refX="0"
       id="StopL-5"
       style="overflow:visible"
       inkscape:isstock="true">
      <path
         id="path1888-6"
         d="M 0,5.65 V -5.65"
         style="fill:none;fill-opacity:0.75;fill-rule:evenodd;stroke:#000000;stroke-width:1pt;stroke-opacity:1"
         transform="scale(0.8)" />
    </marker>
    <marker
       inkscape:isstock="true"
       style="overflow:visible"
       id="StopL-6-9"
       refX="0"
       refY="0"
       orient="auto"
       inkscape:stockid="StopL">
      <path
         transform="scale(0.8)"
         style="fill:none;fill-opacity:0.75;fill-rule:evenodd;stroke:#000000;stroke-width:1pt;stroke-opacity:1"
         d="M 0,5.65 V -5.65"
         id="path1888-4-68" />
    </marker>
    <marker
       inkscape:isstock="true"
       style="overflow:visible"
       id="StopL-5-2"
       refX="0"
       refY="0"
       orient="auto"
       inkscape:stockid="StopL">
      <path
         transform="scale(0.8)"
         style="fill:none;fill-opacity:0.75;fill-rule:evenodd;stroke:#000000;stroke-width:1pt;stroke-opacity:1"
         d="M 0,5.65 V -5.65"
         id="path1888-6-7" />
    </marker>
    <marker
       inkscape:stockid="StopL"
       orient="auto"
       refY="0"
       refX="0"
       id="StopL-6-9-9"
       style="overflow:visible"
       inkscape:isstock="true">
      <path
         id="path1888-4-68-1"
         d="M 0,5.65 V -5.65"
         style="fill:none;fill-opacity:0.75;fill-rule:evenodd;stroke:#000000;stroke-width:1pt;stroke-opacity:1"
         transform="scale(0.8)" />
    </marker>
    <marker
       inkscape:stockid="StopL"
       orient="auto"
       refY="0"
       refX="0"
       id="StopL-3"
       style="overflow:visible"
       inkscape:isstock="true">
      <path
         id="path1888-0"
         d="M 0,5.65 V -5.65"
         style="fill:none;fill-opacity:0.75;fill-rule:evenodd;stroke:#000000;stroke-width:1pt;stroke-opacity:1"
         transform="scale(0.8)" />
    </marker>
    <marker
       inkscape:isstock="true"
       style="overflow:visible"
       id="StopL-6-0"
       refX="0"
       refY="0"
       orient="auto"
       inkscape:stockid="StopL">
      <path
         transform="scale(0.8)"
         style="fill:none;fill-opacity:0.75;fill-rule:evenodd;stroke:#000000;stroke-width:1pt;stroke-opacity:1"
         d="M 0,5.65 V -5.65"
         id="path1888-4-1" />
    </marker>
    <marker
       inkscape:isstock="true"
       style="overflow:visible"
       id="StopL-5-5"
       refX="0"
       refY="0"
       orient="auto"
       inkscape:stockid="StopL">
      <path
         transform="scale(0.8)"
         style="fill:none;fill-opacity:0.75;fill-rule:evenodd;stroke:#000000;stroke-width:1pt;stroke-opacity:1"
         d="M 0,5.65 V -5.65"
         id="path1888-6-2" />
    </marker>
    <marker
       inkscape:stockid="StopL"
       orient="auto"
       refY="0"
       refX="0"
       id="StopL-6-9-3"
       style="overflow:visible"
       inkscape:isstock="true">
      <path
         id="path1888-4-68-5"
         d="M 0,5.65 V -5.65"
         style="fill:none;fill-opacity:0.75;fill-rule:evenodd;stroke:#000000;stroke-width:1pt;stroke-opacity:1"
         transform="scale(0.8)" />
    </marker>
    <marker
       inkscape:stockid="StopL"
       orient="auto"
       refY="0"
       refX="0"
       id="StopL-4"
       style="overflow:visible"
       inkscape:isstock="true">
      <path
         id="path1888-40"
         d="M 0,5.65 V -5.65"
         style="fill:none;fill-opacity:0.75;fill-rule:evenodd;stroke:#000000;stroke-width:1pt;stroke-opacity:1"
         transform="scale(0.8)" />
    </marker>
    <marker
       inkscape:isstock="true"
       style="overflow:visible"
       id="StopL-6-4"
       refX="0"
       refY="0"
       orient="auto"
       inkscape:stockid="StopL">
      <path
         transform="scale(0.8)"
         style="fill:none;fill-opacity:0.75;fill-rule:evenodd;stroke:#000000;stroke-width:1pt;stroke-opacity:1"
         d="M 0,5.65 V -5.65"
         id="path1888-4-10" />
    </marker>
  </defs>
  <sodipodi:namedview
     inkscape:window-maximized="1"
     inkscape:window-y="-8"
     inkscape:window-x="-8"
     inkscape:window-height="1057"
     inkscape:window-width="1842"
     showgrid="false"
     inkscape:document-rotation="0"
     inkscape:current-layer="layer1"
     inkscape:document-units="mm"
     inkscape:cy="156.77664"
     inkscape:cx="554.19515"
     inkscape:zoom="1.4606768"
     inkscape:pageshadow="2"
     inkscape:pageopacity="0.0"
     borderopacity="1.0"
     bordercolor="#666666"
     pagecolor="#ffffff"
     id="base"
     inkscape:pagecheckerboard="0" />
  <metadata
     id="metadata1033">
    <rdf:RDF>
      <cc:Work
         rdf:about="">
        <dc:format>image/svg+xml</dc:format>
        <dc:type
           rdf:resource="http://purl.org/dc/dcmitype/StillImage" />
        <dc:title />
      </cc:Work>
    </rdf:RDF>
  </metadata>
  <g
     transform="translate(4.0479284,-52.435834)"
     id="layer1"
     inkscape:groupmode="layer"
     inkscape:label="Layer 1">
    <rect
       style="fill:#505050;fill-opacity:1;stroke:#000000;stroke-width:0.29932;stroke-linejoin:miter;stroke-miterlimit:4;stroke-dasharray:none"
       id="rect5901"
       width="11.923191"
       height="8.3575544"
       x="92.527229"
       y="65.333176" />
    <rect
       style="fill:#808080;fill-rule:evenodd;stroke:#000000;stroke-width:0.411;stroke-miterlimit:4;stroke-dasharray:none;stroke-opacity:1"
       id="rect10"
       width="57.617065"
       height="19.130253"
       x="69.68029"
       y="72.486626" />
    <rect
       style="fill:#72b1ec;fill-opacity:1;stroke:#000000;stroke-width:0.43461;stroke-miterlimit:4;stroke-dasharray:none;stroke-opacity:1"
       id="rect837-1-0"
       width="106.71288"
       height="7.2962399"
       x="45.016964"
       y="94.063431" />
    <rect
       y="94.036591"
       x="60.939529"
       height="7.3499107"
       width="74.717957"
       id="rect837-1"
       style="fill:#ec9072;fill-opacity:1;stroke:#000000;stroke-width:0.365001;stroke-miterlimit:4;stroke-dasharray:none;stroke-opacity:1" />
    <rect
       y="55.108269"
       x="44.917362"
       height="7.2962399"
       width="106.71288"
       id="rect837-1-0-3"
       style="fill:#72b1ec;fill-opacity:1;stroke:#000000;stroke-width:0.43461;stroke-miterlimit:4;stroke-dasharray:none;stroke-opacity:1" />
    <rect
       style="fill:#ec9072;fill-opacity:1;stroke:#000000;stroke-width:0.365001;stroke-miterlimit:4;stroke-dasharray:none;stroke-opacity:1"
       id="rect837-1-3"
       width="74.717957"
       height="7.3499107"
       x="60.839928"
       y="55.081429" />
    <rect
       style="fill:#b0b0b0;fill-opacity:1;stroke:#000000;stroke-width:0.386;stroke-linejoin:miter;stroke-miterlimit:4;stroke-dasharray:none"
       id="rect6536"
       width="6.8354568"
       height="16.516422"
       x="95.071098"
       y="72.457214" />
    <rect
       y="52.64917"
       x="192.85291"
       height="57.462948"
       width="57.462948"
       id="rect10-9"
       style="fill:#808080;fill-rule:evenodd;stroke:#000000;stroke-width:0.365001;stroke-miterlimit:4;stroke-dasharray:none;stroke-opacity:1" />
    <circle
       r="8.0180855"
       cy="81.781548"
       cx="221.98528"
       id="path835"
       style="fill:#afafaf;fill-opacity:1;stroke:#000000;stroke-width:0.365001;stroke-miterlimit:4;stroke-dasharray:none;stroke-opacity:1" />
    <path
       id="path1100-0"
       d="M 254.02005,52.649167 V 110.11212"
       style="fill:none;stroke:#000000;stroke-width:0.4;stroke-linecap:butt;stroke-linejoin:miter;stroke-miterlimit:4;stroke-dasharray:none;stroke-opacity:1;marker-start:url(#StopL-2);marker-end:url(#StopL-6-3)" />
    <rect
       style="fill:#72b1ec;fill-opacity:1;stroke:#000000;stroke-width:0.43461;stroke-miterlimit:4;stroke-dasharray:none;stroke-opacity:1"
       id="rect837-1-0-3-3"
       width="106.71288"
       height="7.2962399"
       x="167.4577"
       y="55.08144" />
    <rect
       y="55.0546"
       x="183.38028"
       height="7.3499107"
       width="74.717957"
       id="rect837"
       style="fill:#ec9072;fill-opacity:1;stroke:#000000;stroke-width:0.365001;stroke-miterlimit:4;stroke-dasharray:none;stroke-opacity:1" />
    <ellipse
       style="fill:#505050;fill-opacity:1;stroke:#000000;stroke-width:0.368187;stroke-miterlimit:4;stroke-dasharray:none;stroke-opacity:1"
       id="path835-8"
       cx="222.02269"
       cy="81.699219"
       rx="8.3643332"
       ry="7.8209205" />
    <text
       id="text1001"
       y="90.867805"
       x="149.21638"
       style="font-style:normal;font-weight:normal;font-size:10.5833px;line-height:1.25;font-family:sans-serif;fill:#000000;fill-opacity:1;stroke:none;stroke-width:0.264583"
       xml:space="preserve"><tspan
         style="font-style:normal;font-variant:normal;font-weight:normal;font-stretch:normal;font-size:6.35px;font-family:'CMU Sans Serif';-inkscape-font-specification:'CMU Sans Serif, Normal';font-variant-ligatures:normal;font-variant-caps:normal;font-variant-numeric:normal;font-variant-east-asian:normal;stroke-width:0.264583"
         y="90.867805"
         x="149.21638"
         id="tspan999"
         sodipodi:role="line">LS Box</tspan></text>
    <text
       id="text1005"
       y="73.840881"
       x="151.39005"
       style="font-size:6.35px;line-height:1.25;font-family:'CMU Sans Serif';-inkscape-font-specification:'CMU Sans Serif, Normal';stroke-width:0.264583"
       xml:space="preserve"><tspan
         style="stroke-width:0.264583"
         y="73.840881"
         x="151.39005"
         id="tspan1003"
         sodipodi:role="line">PMTs</tspan></text>
    <text
       id="text1009"
       y="82.549736"
       x="134.90652"
       style="font-size:6.35px;line-height:1.25;font-family:'CMU Sans Serif';-inkscape-font-specification:'CMU Sans Serif, Normal';stroke-width:0.264583"
       xml:space="preserve"><tspan
         style="stroke-width:0.264583"
         y="82.549736"
         x="134.90652"
         id="tspan1007"
         sodipodi:role="line">Plastic Scintillators</tspan></text>
    <text
       id="text1013"
       y="70.187065"
       x="30.284086"
       style="font-size:6.35px;line-height:1.25;font-family:'CMU Sans Serif';-inkscape-font-specification:'CMU Sans Serif, Normal';stroke-width:0.264583"
       xml:space="preserve"><tspan
         style="stroke-width:0.264583"
         y="70.187065"
         x="30.284086"
         id="tspan1011"
         sodipodi:role="line">Covered Electronics</tspan></text>
    <text
       id="text1017"
       y="84.45298"
       x="48.035553"
       style="font-size:6.35px;line-height:1.25;font-family:'CMU Sans Serif';-inkscape-font-specification:'CMU Sans Serif, Normal';stroke-width:0.264583"
       xml:space="preserve"><tspan
         style="stroke-width:0.264583"
         y="84.45298"
         x="48.035553"
         id="tspan1015"
         sodipodi:role="line">WOM</tspan></text>
    <text
       xml:space="preserve"
       style="font-size:6.35px;line-height:1.25;font-family:'CMU Sans Serif';-inkscape-font-specification:'CMU Sans Serif, Normal';stroke-width:0.264583"
       x="195.32982"
       y="105.94005"
       id="text1013-5"><tspan
         sodipodi:role="line"
         id="tspan1011-8"
         x="195.32982"
         y="105.94005"
         style="stroke-width:0.264583">Covered Electronics</tspan></text>
    <path
       id="path1037"
       d="m 150.46611,71.660298 -7.47362,-12.83841"
       style="fill:none;stroke:#000000;stroke-width:0.359;stroke-linecap:butt;stroke-linejoin:miter;stroke-miterlimit:4;stroke-dasharray:none;stroke-opacity:1;marker-end:url(#Arrow1Send)" />
    <path
       style="fill:none;stroke:#000000;stroke-width:0.359;stroke-linecap:butt;stroke-linejoin:miter;stroke-miterlimit:4;stroke-dasharray:none;stroke-opacity:1;marker-end:url(#Arrow1Send-3)"
       d="m 169.51611,71.660298 7.47362,-12.83841"
       id="path1037-0" />
    <path
       style="fill:none;stroke:#000000;stroke-width:0.397;stroke-linecap:butt;stroke-linejoin:miter;stroke-miterlimit:4;stroke-dasharray:none;stroke-opacity:1;marker-end:url(#Arrow1Send-9)"
       d="M 134.27916,80.125079 122.95879,59.512826"
       id="path1037-4" />
    <path
       id="path1037-4-0"
       d="M 186.37655,80.217974 197.69692,59.605721"
       style="fill:none;stroke:#000000;stroke-width:0.397;stroke-linecap:butt;stroke-linejoin:miter;stroke-miterlimit:4;stroke-dasharray:none;stroke-opacity:1;marker-end:url(#Arrow1Send-9-5)" />
    <path
       id="path2104"
       d="M 147.26131,88.731146 H 120.61993"
       style="fill:none;stroke:#000000;stroke-width:0.365;stroke-linecap:butt;stroke-linejoin:miter;stroke-miterlimit:4;stroke-dasharray:none;stroke-opacity:1;marker-end:url(#marker2108)" />
    <path
       style="fill:none;stroke:#000000;stroke-width:0.365001;stroke-linecap:butt;stroke-linejoin:miter;stroke-miterlimit:4;stroke-dasharray:none;stroke-opacity:1;marker-end:url(#marker2108-2)"
       d="m 170.54467,88.731146 h 26.64138"
       id="path2104-3" />
    <path
       id="path2104-3-2"
       d="M 66.910649,82.444924 H 97.707126"
       style="fill:none;stroke:#000000;stroke-width:0.392434;stroke-linecap:butt;stroke-linejoin:miter;stroke-miterlimit:4;stroke-dasharray:none;stroke-opacity:1;marker-end:url(#marker2108-2-0)" />
    <path
       style="fill:none;stroke:#000000;stroke-width:0.356762;stroke-linecap:butt;stroke-linejoin:miter;stroke-miterlimit:4;stroke-dasharray:none;stroke-opacity:1;marker-end:url(#marker2108-2-0-2)"
       d="M 84.786774,68.757472 H 98.334158"
       id="path2104-3-2-6" />
    <path
       id="path1037-0-2"
       d="m 222.24021,99.214716 0.0531,-14.8552"
       style="fill:none;stroke:#000000;stroke-width:0.359;stroke-linecap:butt;stroke-linejoin:miter;stroke-miterlimit:4;stroke-dasharray:none;stroke-opacity:1;marker-end:url(#Arrow1Send-3-6)" />
    <path
       style="fill:none;stroke:#000000;stroke-width:0.4;stroke-linecap:butt;stroke-linejoin:miter;stroke-miterlimit:4;stroke-dasharray:none;stroke-opacity:1;marker-start:url(#StopL);marker-end:url(#StopL-6)"
       d="m 192.8529,114.34548 h 57.46295"
       id="path1100" />
    <path
       id="path1100-2"
       d="M 43.221955,72.484223 V 91.616882"
       style="fill:none;stroke:#000000;stroke-width:0.334;stroke-linecap:butt;stroke-linejoin:miter;stroke-miterlimit:4;stroke-dasharray:none;stroke-opacity:1;marker-start:url(#StopL-5);marker-end:url(#StopL-6-9)" />
    <path
       style="fill:none;stroke:#000000;stroke-width:0.368;stroke-linecap:butt;stroke-linejoin:miter;stroke-miterlimit:4;stroke-dasharray:none;stroke-opacity:1;marker-start:url(#StopL-5-2);marker-end:url(#StopL-6-9-9)"
       d="m 278.40395,55.058878 v 7.3188"
       id="path1100-2-7" />
    <path
       style="fill:none;stroke:#000000;stroke-width:0.357;stroke-linecap:butt;stroke-linejoin:miter;stroke-miterlimit:4;stroke-dasharray:none;stroke-opacity:1;marker-start:url(#StopL-5-5);marker-end:url(#StopL-6-9-3)"
       d="M 15.284019,62.554284 V 94.067019"
       id="path1100-2-3" />
    <text
       xml:space="preserve"
       style="font-style:normal;font-variant:normal;font-weight:normal;font-stretch:normal;font-size:6.35px;line-height:1.25;font-family:sans-serif;-inkscape-font-specification:'sans-serif, Normal';font-variant-ligatures:normal;font-variant-caps:normal;font-variant-numeric:normal;font-variant-east-asian:normal;stroke-width:0.264583"
       x="-4.4727087"
       y="80.516968"
       id="text3101"><tspan
         sodipodi:role="line"
         id="tspan3099"
         x="-4.4727087"
         y="80.516968"
         style="font-style:normal;font-variant:normal;font-weight:normal;font-stretch:normal;font-size:6.35px;font-family:sans-serif;-inkscape-font-specification:'sans-serif, Normal';font-variant-ligatures:normal;font-variant-caps:normal;font-variant-numeric:normal;font-variant-east-asian:normal;stroke-width:0.264583">66cm</tspan></text>
    <text
       id="text3101-0"
       y="83.589203"
       x="22.874201"
       style="font-style:normal;font-variant:normal;font-weight:normal;font-stretch:normal;font-size:6.35px;line-height:1.25;font-family:sans-serif;-inkscape-font-specification:'sans-serif, Normal';font-variant-ligatures:normal;font-variant-caps:normal;font-variant-numeric:normal;font-variant-east-asian:normal;stroke-width:0.264583"
       xml:space="preserve"><tspan
         style="font-style:normal;font-variant:normal;font-weight:normal;font-stretch:normal;font-size:6.35px;font-family:sans-serif;-inkscape-font-specification:'sans-serif, Normal';font-variant-ligatures:normal;font-variant-caps:normal;font-variant-numeric:normal;font-variant-east-asian:normal;stroke-width:0.264583"
         y="83.589203"
         x="22.874201"
         id="tspan3099-5"
         sodipodi:role="line">25cm</tspan></text>
    <text
       id="text3101-0-1-8"
       y="122.15821"
       x="213.2216"
       style="font-style:normal;font-variant:normal;font-weight:normal;font-stretch:normal;font-size:6.35px;line-height:1.25;font-family:sans-serif;-inkscape-font-specification:'sans-serif, Normal';font-variant-ligatures:normal;font-variant-caps:normal;font-variant-numeric:normal;font-variant-east-asian:normal;stroke-width:0.264583"
       xml:space="preserve"><tspan
         style="font-style:normal;font-variant:normal;font-weight:normal;font-stretch:normal;font-size:6.35px;font-family:sans-serif;-inkscape-font-specification:'sans-serif, Normal';font-variant-ligatures:normal;font-variant-caps:normal;font-variant-numeric:normal;font-variant-east-asian:normal;stroke-width:0.264583"
         y="122.15821"
         x="213.2216"
         id="tspan3099-5-6-0"
         sodipodi:role="line">50.4cm</tspan></text>
    <text
       xml:space="preserve"
       style="font-style:normal;font-variant:normal;font-weight:normal;font-stretch:normal;font-size:6.35px;line-height:1.25;font-family:sans-serif;-inkscape-font-specification:'sans-serif, Normal';font-variant-ligatures:normal;font-variant-caps:normal;font-variant-numeric:normal;font-variant-east-asian:normal;stroke-width:0.264583"
       x="255.29066"
       y="84.661194"
       id="text3101-0-1-8-4"><tspan
         sodipodi:role="line"
         id="tspan3099-5-6-0-9"
         x="255.29066"
         y="84.661194"
         style="font-style:normal;font-variant:normal;font-weight:normal;font-stretch:normal;font-size:6.35px;font-family:sans-serif;-inkscape-font-specification:'sans-serif, Normal';font-variant-ligatures:normal;font-variant-caps:normal;font-variant-numeric:normal;font-variant-east-asian:normal;stroke-width:0.264583">50.4cm</tspan></text>
    <text
       xml:space="preserve"
       style="font-style:normal;font-variant:normal;font-weight:normal;font-stretch:normal;font-size:6.35px;line-height:1.25;font-family:sans-serif;-inkscape-font-specification:'sans-serif, Normal';font-variant-ligatures:normal;font-variant-caps:normal;font-variant-numeric:normal;font-variant-east-asian:normal;stroke-width:0.264583"
       x="281.9368"
       y="61.049599"
       id="text3101-0-1-8-0"><tspan
         sodipodi:role="line"
         id="tspan3099-5-6-0-0"
         x="281.9368"
         y="61.049599"
         style="font-style:normal;font-variant:normal;font-weight:normal;font-stretch:normal;font-size:6.35px;font-family:sans-serif;-inkscape-font-specification:'sans-serif, Normal';font-variant-ligatures:normal;font-variant-caps:normal;font-variant-numeric:normal;font-variant-east-asian:normal;stroke-width:0.264583">10cm</tspan></text>
  </g>
</svg>
