<?xml version="1.0" encoding="UTF-8" standalone="no"?>
<svg
   xmlns:dc="http://purl.org/dc/elements/1.1/"
   xmlns:cc="http://creativecommons.org/ns#"
   xmlns:rdf="http://www.w3.org/1999/02/22-rdf-syntax-ns#"
   xmlns:svg="http://www.w3.org/2000/svg"
   xmlns="http://www.w3.org/2000/svg"
   xmlns:xlink="http://www.w3.org/1999/xlink"
   xmlns:sodipodi="http://sodipodi.sourceforge.net/DTD/sodipodi-0.dtd"
   xmlns:inkscape="http://www.inkscape.org/namespaces/inkscape"
   inkscape:version="1.0 (4035a4fb49, 2020-05-01)"
   sodipodi:docname="decay_volume.svg"
   viewBox="0 0 453.59997 155.67999"
   height="155.67999"
   width="453.59998"
   xml:space="preserve"
   id="svg2029"
   version="1.1"><metadata
     id="metadata2035"><rdf:RDF><cc:Work
         rdf:about=""><dc:format>image/svg+xml</dc:format><dc:type
           rdf:resource="http://purl.org/dc/dcmitype/StillImage" /><dc:title></dc:title></cc:Work></rdf:RDF></metadata><defs
     id="defs2033"><clipPath
       id="clipPath2053"
       clipPathUnits="userSpaceOnUse"><path
         id="path2051"
         d="M 0,790.866 H 595.276 V 0 H 0 Z" /></clipPath><clipPath
       id="clipPath2271"
       clipPathUnits="userSpaceOnUse"><path
         id="path2269"
         d="M 0,0 H 595.276 V 790.866 H 0 Z" /></clipPath><clipPath
       id="clipPath2281"
       clipPathUnits="userSpaceOnUse"><path
         id="path2279"
         d="M 0,0 H 5.04999 V 1 H 0 Z" /></clipPath><clipPath
       id="clipPath2293"
       clipPathUnits="userSpaceOnUse"><path
         id="path2291"
         d="M 0,0 H 5.05 V 1 H 0 Z" /></clipPath><clipPath
       id="clipPath2305"
       clipPathUnits="userSpaceOnUse"><path
         id="path2303"
         d="M 0,0 H 5.05 V 1 H 0 Z" /></clipPath><clipPath
       id="clipPath2317"
       clipPathUnits="userSpaceOnUse"><path
         id="path2315"
         d="M 0,0 H 5.04999 V 1 H 0 Z" /></clipPath><clipPath
       id="clipPath2329"
       clipPathUnits="userSpaceOnUse"><path
         id="path2327"
         d="M 0,0 H 10.362 V 1 H 0 Z" /></clipPath></defs><sodipodi:namedview
     inkscape:current-layer="g2225"
     inkscape:window-maximized="1"
     inkscape:window-y="-8"
     inkscape:window-x="1912"
     inkscape:cy="102.54201"
     inkscape:cx="208.15277"
     inkscape:zoom="2.3872249"
     showgrid="false"
     id="namedview2031"
     inkscape:window-height="1057"
     inkscape:window-width="1855"
     inkscape:pageshadow="2"
     inkscape:pageopacity="0"
     guidetolerance="10"
     gridtolerance="10"
     objecttolerance="10"
     borderopacity="1"
     bordercolor="#666666"
     pagecolor="#ffffff" /><g
     transform="matrix(1.3333333,0,0,-1.3333333,-272.06929,505.94025)"
     inkscape:label="decay_volume"
     inkscape:groupmode="layer"
     id="g2037"><g
       id="g2039"><text
         id="text2043"
         style="font-variant:normal;font-weight:normal;font-stretch:semi-condensed;font-size:8.5px;font-family:'Myriad Pro SemiCond';-inkscape-font-specification:MyriadPro-SemiCn;writing-mode:lr-tb;fill:#000000;fill-opacity:1;fill-rule:nonzero;stroke:none"
         transform="matrix(1,0,0,-1,360.8486,751.65491)"><tspan
           id="tspan2041"
           sodipodi:role="line"
           y="0"
           x="0 4.7515001 7.2335 10.6675 15.0025 16.864 20.518999 24.429001 27.523001 29.188999 33.4305 35.750999 37.417 41.82 43.681499 47.43 49.2915 51.178501 52.844501 56.644001 60.979 65.348 67.014 73.355003 77.264999 80.698997 85.033997 88.833504 93.168503 95.029999 98.463997 102.2635 104.1505 105.8165 109.6415 113.9765 118.2775 120.139 124.474 128.384 132.29401 134.86951 136.731 141.06599 145.4095 147.0755 149.41299 153.4505 157.48801 161.5255 165.563 167.9005 169.5665 173.604 177.64149 179.367">Archives of Civil and Mechanical Engineering (2021) 21:3</tspan></text><g
         id="g2045"><g
           id="g2047"><g
             clip-path="url(#clipPath2053)"
             id="g2049"><g
               transform="translate(51.023602,745.78522)"
               id="g2055"><path
                 id="path2057"
                 style="fill:none;stroke:#000000;stroke-width:0.992;stroke-linecap:butt;stroke-linejoin:miter;stroke-miterlimit:4;stroke-dasharray:none;stroke-opacity:1"
                 d="M 0,0 H 493.228" /></g><text
               id="text2061"
               style="font-variant:normal;font-weight:normal;font-stretch:normal;font-size:15px;font-family:Springnew;-inkscape-font-specification:Springnew-Regular;writing-mode:lr-tb;fill:#000000;fill-opacity:1;fill-rule:nonzero;stroke:none"
               transform="matrix(1,0,0,-1,52.4976,45.6982)"><tspan
                 id="tspan2059"
                 sodipodi:role="line"
                 y="0"
                 x="0 7.1100001 11.04">1 3</tspan></text></g></g></g><text
         id="text2065"
         style="font-variant:normal;font-weight:bold;font-stretch:normal;font-size:8.5px;font-family:'Myriad Pro';-inkscape-font-specification:MyriadPro-Bold;writing-mode:lr-tb;fill:#000000;fill-opacity:1;fill-rule:nonzero;stroke:none"
         transform="matrix(1,0,0,-1,51.023602,751.65491)"><tspan
           id="tspan2063"
           y="0"
           x="0">3</tspan></text><text
         id="text2069"
         style="font-variant:normal;font-weight:normal;font-stretch:semi-condensed;font-size:8.5px;font-family:'Myriad Pro SemiCond';-inkscape-font-specification:MyriadPro-SemiCn;writing-mode:lr-tb;fill:#000000;fill-opacity:1;fill-rule:nonzero;stroke:none"
         transform="matrix(1,0,0,-1,64.241102,751.65491)"><tspan
           id="tspan2067"
           sodipodi:role="line"
           y="0"
           x="0 3.961 7.7605 12.104 16.014 17.68 21.717501 23.383499 27.625 29.945499 31.6115 35.648998">Page 4 of 19</tspan></text><text
         id="text2109"
         style="font-variant:normal;font-weight:normal;font-stretch:normal;font-size:10px;font-family:STIX;-inkscape-font-specification:STIX-Regular;writing-mode:lr-tb;fill:#000000;fill-opacity:1;fill-rule:nonzero;stroke:none"
         transform="matrix(1,0,0,-1,51.023602,726.49017)"><tspan
           id="tspan2071"
           sodipodi:role="line"
           y="0"
           x="0 3.8499999 8.6820002 12.454 15.194 19.594 27.334 31.184 33.394001 37.793999 42.754002 47.714001 52.113998 56.514 60.015999 64.975998 67.185997 70.008003 74.968002 79.367996 81.578003 85.428001 90.388 94.788002 99.188004 104.148 106.358 110.758 115.718 120.678 122.888 127.288 131.688 136.088 141.048 144.32001 148.72 153.12 158.08 160.28999 165.25 168.53999 170.75 175.14999 179 182.85001 187.25 194.99001 199.95 202.48199 207.442 209.65199 214.612 219.57201 221.782 225.632 228.37199 231.112 235.51199 238.01199">systems concern the speed and accuracy of assembly on site, </tspan><tspan
           id="tspan2073"
           sodipodi:role="line"
           y="12.5"
           x="0 2.9100001 7.96 12.45 14.88 19.93 24.98 28.92 32.860001 35.689999 40.740002 43.57 46.400002 49.23 52.060001 57.110001 59.540001 64.589996 67.970001 70.400002 73.230003 76.589996 81.080002 86.129997 90.07 93.129997 98.18 101.76 109.59 114.08 116.91 119.74 124.79 129.84 133.78 136.21001 140.7 145.75 150.8 153.23 156.59 161.08 166.13 170.62 173.45 176.83 180.77 183.2 188.25 193.3 197.78999 200.22 203.03 208.08 210.50999 213.869 218.16901 222.979 227.46899 230.849 234.789">the possibility of transformations and repairs due to revers-</tspan><tspan
           id="tspan2075"
           sodipodi:role="line"
           y="25"
           x="0 2.8699999 7.96 10.83 13.7 16.57 19.440001 24.530001 27.370001 32.459999 35.880001 38.720001 41.669998 46.759998 51.290001 54.130001 58.66 63.75 68.839996 73.93 78.459999 82.989998 85.860001 88.730003 93.82 98.910004 102.89 105.73 110.82 115.26 118.13 125.261 129.791 134.321 139.411 142.25101 145.201 150.291 154.821 157.661 161.561 164.431 168.091 173.181 177.711 180.58099 185.67101 189.07201 193.60201 196.472 199.312 203.842 206.71201 211.242 219.112 223.642 228.73199 231.60201 235.582 238.082">ibility of the connections between the structural elements, </tspan><tspan
           id="tspan2077"
           sodipodi:role="line"
           y="37.5"
           x="0 4.54 9.6400003 14.74 17.59 20.552999 25.653 30.193001 33.042999 37.583 42.376999 47.477001 50.356998 53.73 58.830002 63.93 71.809998 76.349998 81.449997 84.433998 88.973999 91.853996 94.704002 98.694 103.794 107.707 110.691 115.231 118.111 123.211 127.751 132.851 135.731 138.61099 141.491 144.371 149.47099 152.321 155.43401 160.534 163.964 166.814 169.694 172.57401 176.564 179.414 183.798 188.89799 193.438 196.851 201.39101 205.931 208.811 213.351 216.974 219.854 223.767 226.647 229.52699 234.067 237.957">and the environmental sustainability for its characteristics </tspan><tspan
           id="tspan2079"
           sodipodi:role="line"
           y="50"
           x="0 5.0500002 8.4300003 10.855 14.215 18.705 23.195 28.094999 32.584999 35.415001 39.904999 44.955002 47.785 50.615002 53.445 56.275002 61.325001 63.749001 68.238998 73.289001 78.338997 80.764 84.124001 88.613998 93.664001 97.603996 102.094">of recyclability and reuse.</tspan><tspan
           id="tspan2081"
           sodipodi:role="line"
           y="62.5"
           x="11.34 17.725 22.999001 27.714001 31.483999 34.769001 40.042999 43.098 46.153 51.208 58.702 61.757 67.031998 72.306 76.075996 81.349998 86.065002 90.228996 93.283997 98.558998 103.834 107.604 110.659 113.713 118.428 122.012 126.727 129.782 132.836 138.11099 143.386 147.15601 152.431 157.145 161.31 165.08 170.355 175.069 179.784 185.05901 188.82899 194.104 199.37801 204.653 209.368 213.138 216.19299 221.467 225.237 228.371 233.646 238.086">The following design iteration has been done in the </tspan><tspan
           id="tspan2083"
           sodipodi:role="line"
           y="75"
           x="0 4.3299999 9.3800001 14.43 17.26 21.75 26.24 28.65 33.700001 37.080002 39.490002 42.400002 47.450001 51.939999 54.349998 62.18 67.230003 71.089996 73.919998 76.330002 80.82 85.870003 90.919998 94.239998 99.290001 104.34 107.909 110.739 115.229 118.059 122.549 124.959 128.819 131.649 136.13901 140.629 143.459 145.869 149.80901 154.299 158.789 161.619 164.44901 169.49899 174.549 177.099 179.509 185.66901 190.71899 195.209 197.619 205.44901 209.939 212.769 217.819 220.224 224.714 229.76401 234.814">choice of the most appropriate steel section. The main con-</tspan><tspan
           id="tspan2085"
           sodipodi:role="line"
           y="87.5"
           x="0 5.0500002 7.8800001 10.71 13.54 18.59 23.639999 27.58 30.004 32.813999 37.863998 40.289001 44.778999 49.828999 54.879002 58.819 61.648998 66.698997 71.189003 74.569 76.994003 79.823997 84.874001 87.299004 90.209 95.259003 99.749001 102.174 107.224 111.714 115.654 118.484 123.534 128.584 131.009 136.05901 139.379 144.429 148.91901 153.409 157.349 161.289 163.714 170.804 175.29401 178.65401 183.144">ditions to consider in the design process were:</tspan><tspan
           id="tspan2087"
           sodipodi:role="line"
           y="112.5"
           x="0 5.0500002 7.5999999 16 18.91 23.959999 28.450001 30.950001 36 40.490002 44.98 49.470001 53.41 57.349998 60.18 63.009998 68.059998 70.559998 73.370003 78.419998 80.919998 85.410004 88.239998 91.07 96.120003 100.61 105.1 107.93 112.42 114.92 118.86 123.91 128.39999 132.89 137.38 139.88 142.94 147.99001 151.37 153.87 156.78 161.83 166.32001 168.82001 171.64999 174.48 179.39999 184.45 187.28 192.33 194.83 198.77 203.25999 206.09 211.14 213.97 216.8 219.63 222.46001 226.95 229.75999 234.81 238.14">1. the necessity to allocate space for the liquid scintillator </tspan><tspan
           id="tspan2089"
           sodipodi:role="line"
           y="125"
           x="16 18.93 24.08 28.120001 31.049999 36.200001 40.790001 43.830002 47.869999 53.02 57.610001 62.200001 65.129997 70.860001 75.449997 78.489998 83.080002 88.230003 96.133003 101.283 105.873 109.586 112.516 120.446 125.036 130.186 133.116 137.15601 140.196 144.786 148.209 153.35899 158.509 163.659 168.80901 171.849 174.862 180.01199 184.60201 187.642 192.23199 197.382 200.312 203.242 206.705 211.295 214.33501 219.485 224.075 228.66499 232.987 237.987">inside specifc compartments around the entire decay </tspan><tspan
           id="tspan2091"
           sodipodi:role="line"
           y="137.5"
           x="16 20.780001 25.83 28.66 33.709999 41.540001 46.029999">volume;</tspan><tspan
           id="tspan2093"
           sodipodi:role="line"
           y="150"
           x="0 5.0500002 7.5999999 16 18.826 23.796 28.201 30.421 35.390999 39.796001 44.206001 48.616001 52.471001 56.331001 59.081001 61.831001 66.801003 69.015999 73.986 77.286003 79.505997 82.780998 87.191002 92.161003 97.130997 101.536 104.286 109.256 114.226 116.441 119.267 124.237 128.647 130.862 133.688 138.658 141.408 145.593 150.563 155.533 159.94299 163.80299 167.658 169.87801 174.84801 178.14301 180.36301 183.189 188.159 192.564 194.784 198.56 201.31 205.715 210.125 212.875 215.09 220.06 222.81 227.22 229.97 234.375 238.265">2. the necessity of reducing the thickness of the steel plates </tspan><tspan
           id="tspan2095"
           sodipodi:role="line"
           y="162.5"
           x="16 20.49 24.43 26.855 34.685001 39.735001 44.064999 49.115002 51.540001 56.029999 59.970001 62.395 67.445 72.495003 76.434998 80.375 83.205002 88.254997 91.084999 95.574997">as much as possible.</tspan><tspan
           id="tspan2097"
           sodipodi:role="line"
           y="187.5"
           x="11.34 18.360001 23.15 27.389999 32.18 37.529999 41.75 47.099998 52.450001 56.669998 59.879002 65.228996 70.018997 74.259003 79.049004 83.268997 88.619003 93.969002 97.098999 102.449 107.239 110.369 113.499 118.849 123.639 127.879 130.729 134.94901 139.739 143.959 149.30901 154.439 159.789 164.009 168.24899 173.039 177.82899 180.959 184.089 189.439 194.789 199.009 204.35899 209.149 213.38901 218.179 223.52901 227.74899 233.099 238.099">Based on these guidelines, a box section based on </tspan><tspan
           id="tspan2099"
           sodipodi:role="line"
           y="200"
           x="0 5.6100001 10.66 15.71 20.76 24.540001 31.809999 35.189999 38.970001 44.02 46.849998 54.119999 59.169998 62.549999 72.040001 74.739998 81.459999 86.510002 90.120003 92.949997 97.440002 102.49 105.19 109.05 111.88 116.37 120.86 123.69 126.39 130.88 133.71001 138.2 146.03 150.52 155.57001 158.39999 162.34 165.03999 170.09 174.58 178.52 181.22 186.27 190.75999 195.25 200.3 203 206.94 211.42999 214.25999 218.75 223.24001 226.07001 230.56 235.61 238.11">S355JO(J2/K2)W Corten steel elements has been selected. </tspan><tspan
           id="tspan2101"
           sodipodi:role="line"
           y="212.5"
           x="0 7.27 9.6949997 14.745 22.014999 24.440001 29.49 32.32 36.619999 43.889999 46.314999 51.365002 54.744999 57.168999 60.078999 65.128998 69.619003 72.043999 77.094002 81.584 86.073997 90.292999 95.343002 97.767998 102.548 107.598 110.428 115.478 123.308 127.798 130.22301 133.05299 136.993 139.41701 144.467 147.827 152.317 156.257 160.74699 165.797 168.627 173.117 178.16701 180.592 183.422 188.472 190.897 196.457 199.287 204.33701 206.88699">A 3D view of the decay volume is presented in Fig. </tspan><tspan
           id="tspan2103"
           y="212.5"
           x="209.31">2</tspan><tspan
           id="tspan2105"
           y="212.5"
           x="214.36">.</tspan><tspan
           id="tspan2107"
           sodipodi:role="line"
           y="225"
           x="11.339997 17.499998 22.549997 27.039997 29.463997 34.513996 39.343998 44.393997 46.818996 50.758999 55.248997 59.738998 62.568996 65.398994 70.448997 75.499001 77.923996 80.753998 84.694 87.118996 94.948997 99.438995 104.489 108.979 111.404 116.45399 121.504 123.92799 128.778 133.828 136.25299 139.16299 144.213 148.703 151.12799 154.188 159.23799 162.06799 164.89799 169.728 176.998 179.828 184.87799 189.92799 192.353 200.183 204.673 212.50299 217.55299 222.043 225.423 229.36299">The box section is made up by the following members:</tspan></text><text
         id="text2113"
         style="font-variant:normal;font-weight:normal;font-stretch:normal;font-size:9.4px;font-family:STIX;-inkscape-font-specification:STIX-Regular;writing-mode:lr-tb;fill:#000000;fill-opacity:1;fill-rule:nonzero;stroke:none"
         transform="matrix(1,0,0,-1,51.023602,477.09021)"><tspan
           id="tspan2111"
           sodipodi:role="line"
           y="0"
           x="0 4.9631996">• </tspan></text><text
         id="text2125"
         style="font-variant:normal;font-weight:normal;font-stretch:normal;font-size:10px;font-family:STIX;-inkscape-font-specification:STIX-Regular;writing-mode:lr-tb;fill:#000000;fill-opacity:1;fill-rule:nonzero;stroke:none"
         transform="matrix(1,0,0,-1,64.204697,476.4902)"><tspan
           id="tspan2115"
           sodipodi:role="line"
           y="0"
           x="0 3.385 8.4399996 13.495 17.99 21.375 24.18 28.674999 33.73 38.785 41.59 46.645 51.700001 54.540001 59.034 62.418999 65.223999 69.088997 71.929001 76.422997 80.917999 83.752998 86.557999 90.508003 95.561996 100.062 104.467 107.302 111.246 114.056 121.33 124.165 127.081 132.136 134.94099 139.436 142.241 145.15601 150.211 153.04601 157.321 162.37601 167.431 171.92599 175.871 179.81599 182.621 187.67599 191.061 193.866 198.92101 203.976 206.78101 214.616 222.451 224.951">Inner and outer steel sheets with a thickness of 20 mm, </tspan><tspan
           id="tspan2117"
           sodipodi:role="line"
           y="12.5"
           x="0 7.3800001 10.32 13.342 18.502001 21.601999 24.624001 29.784 34.383999 37.484001 41.875999 46.799 51.398998 55.999001 61.152 64.092003 67.031998 72.192001 77.351997 80.452003 85.612 89.101997 92.202003 95.223999 100.384 104.984 108.084 111.024 115.624 119.597 122.537 125.637 130.797 135.957 138.617 143.77699 146.87801 154.81799 157.918 162.51801 165.45799 170.618 175.778 180.938 184.03799 191.418 196.578 199.51801 203.961 209.121 212.22099 215.244 220.40401 224.84399">with the exception of the last 16.4 m along which the </tspan><tspan
           id="tspan2119"
           sodipodi:role="line"
           y="25"
           x="0 2.9100001 7.96 10.79 15.06 20.110001 25.16 29.65 33.59 37.529999 39.955002 42.785 46.724998 49.150002 54.200001 59.25 61.674999 69.504997 77.334999 79.759003 83.139 87.079002 91.569 96.058998 98.484001 104.044 106.874 111.924 114.474">thickness is 30 mm (see Fig. </tspan><tspan
           id="tspan2121"
           y="25"
           x="116.89999">3</tspan><tspan
           id="tspan2123"
           sodipodi:role="line"
           y="25"
           x="121.95 126.43999 129.81999">a);</tspan></text><text
         id="text2129"
         style="font-variant:normal;font-weight:normal;font-stretch:normal;font-size:9.4px;font-family:STIX;-inkscape-font-specification:STIX-Regular;writing-mode:lr-tb;fill:#000000;fill-opacity:1;fill-rule:nonzero;stroke:none"
         transform="matrix(1,0,0,-1,51.023602,439.59021)"><tspan
           id="tspan2127"
           sodipodi:role="line"
           y="0"
           x="0 4.9631996">• </tspan></text><text
         id="text2149"
         style="font-variant:normal;font-weight:normal;font-stretch:normal;font-size:10px;font-family:STIX;-inkscape-font-specification:STIX-Regular;writing-mode:lr-tb;fill:#000000;fill-opacity:1;fill-rule:nonzero;stroke:none"
         transform="matrix(1,0,0,-1,64.204697,438.9902)"><tspan
           id="tspan2131"
           sodipodi:role="line"
           y="0"
           x="0 2.8299999 6.1900001 10.68 15.73 19.67 24.479 28.969 32.348999 36.289001 40.778999 43.609001 46.098999 49.959 52.789001 55.618999 61.719002 66.209 71.259003 74.088997 79.139 84.189003 86.679001 94.509003 98.999001 106.829 111.879 116.369 119.749 123.689 126.179 130.119 135.16901 139.659 144.149 148.63901 153.689 156.179 161.02901 166.07899 168.569 173.619 178.66901 183.71899 186.21001 194.03999 201.87 204.42 206.91 214.17999 217.00999 219.91901 224.91901">transversal stifening members spaced by 800 mm, with </tspan><tspan
           id="tspan2133"
           sodipodi:role="line"
           y="12.5"
           x="0 4.4699998 6.75 9.6370001 14.667 17.476999 21.724001 26.754 31.784 36.254002 40.174 44.094002 46.374001 51.403999 54.764 57.043999 62.074001 67.103996 69.380997 77.191002 85.000999 87.280998 91.750999 96.780998 101.811 104.091 108.561 110.841 115.871 120.341 123.151 128.181 133.211 136.021 138.30099 143.33099 146.69099 148.97099 153.44099 158.47099 163.50101 168.53101 171.341 173.621 178.651 183.681 188.711 190.98801 198.798 206.608 208.888 212.248 216.168 220.638 225.078">a thickness of 10 mm and a height of about 400 mm (see </tspan><tspan
           id="tspan2135"
           sodipodi:role="line"
           y="25"
           x="0 5.5599999 8.3900003 13.44 15.99">Fig. </tspan><tspan
           id="tspan2137"
           y="25"
           x="18.75">3</tspan><tspan
           id="tspan2139"
           sodipodi:role="line"
           y="25"
           x="23.799999 28.85 32.23 34.779999 37.540001 40.919998 45.970001 48.73 53.779999 58.27 61.880001 64.709999 67.540001 72.029999 77.080002 79.910004 84.400002 87.519997 90.07 92.830002 95.739998 100.79 105.28 108.04 113.09 117.58 120.41 125.46 130.50999 133.34 136.10001 138.92999 142.87 145.63 150.12 155.03999 160.09 164.58 167.41 170.17 172.979 178.02901 180.789 185.839 190.88901 195.939 198.69701 206.52699 214.35699 217.117 219.94701 224.94701">b). In particular, the height is equal to 300 mm in </tspan><tspan
           id="tspan2141"
           sodipodi:role="line"
           y="37.5"
           x="0 2.898 7.9380002 12.418 14.708 20.327999 23.698 27.546 30.365999 32.655998 37.695999 42.736 45.276001 50.316002 52.604 60.424 62.964001 65.253998 70.293999 75.334 79.814003 82.103996 84.902 89.942001 92.232002 96.711998 99.001999 102.932 107.972 112.452 116.932 119.752 125.372 129.85201 132.142 135.489 139.96899 144.877 149.91701 152.737 156.08501 160.565 168.38499 172.86501 177.905 180.72501 183.015 188.05499 191.425 193.715 197.063 201.543 209.36301 213.843 216.66299 221.703">the frst 14.4 m, due to a specifc requirement of remain-</tspan><tspan
           id="tspan2143"
           sodipodi:role="line"
           y="-287.5"
           x="255.12 257.97998 263.06 268.13998 270.97 273.82999 278.91 282.88 285.73999 290.81998 295.34 298.16998 301.10999 306.19 310.70999 313.53998 318.06 322.82999 327.66998 332.19 335.04999 340.13 345.20999 349.72998 352.56 357.63998 362.16 367.81998 372.89999 377.41998 382.5 385.32999 390.20999 395.28998 398.12 401.06 406.13998 410.66 413.48999 418.56998 423.09 428.72998 433.25 437.76999 440.63 445.14999 450.22998 453.06 460.91998 466 471.07999 476.16 480.04999">ing inside the envelope defned by the defected muons </tspan><tspan
           id="tspan2145"
           sodipodi:role="line"
           y="-275"
           x="255.12 260.09 264.5 268.68698 273.57401 278.64099 281.879 286.849 291.819 296.789 301.759 304.229 306.44901 313.63898 318.60898 321.35898 324.10898 328.51898 330.73898 333.48898 336.23898 338.45898 341.20898 345.069 347.289 352.259 357.229 362.19901 364.41699 372.16699 379.91699 382.13699 385.11499 390.08499 393.38498 395.60498 398.43198 403.40198 407.81198 410.03198 413.009 417.979 420.729 423.479 428.22699 435.41699 438.16699 443.13699 448.10699 450.327 455.297 460.267 462.737 467.707 469.92499 477.67499 480.17499">background, while it is 410 mm for the following 19.2 m, </tspan><tspan
           id="tspan2147"
           sodipodi:role="line"
           y="-262.5"
           x="255.12 259.60999 264.66 269.70999 272.13498 277.185 282.23499 287.285 289.70999 297.53998 305.37 307.79498 310.85498 315.905 319.285 321.70999 324.62 329.66998 334.16 336.58499 339.41498 343.905 347.76498 350.595 353.01999 358.06998 363.12 365.66998 370.72 373.14499 380.97501">and 390 mm for the last 16.4 m;</tspan></text><text
         id="text2153"
         style="font-variant:normal;font-weight:normal;font-stretch:normal;font-size:9.4px;font-family:STIX;-inkscape-font-specification:STIX-Regular;writing-mode:lr-tb;fill:#000000;fill-opacity:1;fill-rule:nonzero;stroke:none"
         transform="matrix(1,0,0,-1,306.14169,689.59021)"><tspan
           id="tspan2151"
           sodipodi:role="line"
           y="0"
           x="0 4.9631996">• </tspan></text><text
         id="text2209"
         style="font-variant:normal;font-weight:normal;font-stretch:normal;font-size:10px;font-family:STIX;-inkscape-font-specification:STIX-Regular;writing-mode:lr-tb;fill:#000000;fill-opacity:1;fill-rule:nonzero;stroke:none"
         transform="matrix(1,0,0,-1,319.32281,688.99017)"><tspan
           id="tspan2155"
           sodipodi:role="line"
           y="0"
           x="0 3.0250001 8.2749996 13.52 18.764999 21.795 24.82 30.065001 35.310001 38.34 43.584999 48.27 51.299999 54.900002 58.956001 61.980999 65.005997 68.640999 71.876999 76.561996 81.806999 84.832001 90.082001 95.327003 98.927002 103.612 106.637 111.322 119.347 124.037 129.282 132.30701 136.442 139.192 142.79201 150.26199 153.287 156.392 161.63699 165.237 169.922 173.522 176.627 181.87199 184.897 189.36301 194.608 199.853 204.543 208.67799 212.813 216.41299 221.658 224.98801">longitudinal stiffening elements, with a thickness of </tspan><tspan
           id="tspan2157"
           sodipodi:role="line"
           y="12.5"
           x="0 5.1799998 10.36 13.565 21.525 29.485001 32.695 37.314999 42.494999 47.674999 50.880001 58.279999 61.240002 64.279999 69.459999 72.665001 77.285004 82.464996 85.669998 88.629997 93.809998 96.769997 101.39 104.9 108.97 114.15 118.77 123.39 126.35 131.53 136.71001 139.91499 144.895 149.515 153.235 158.41499 161.375 166.55499 171.735 174.94 178.45 181.89999 187.08 195.03999 198.25 203.42999 208.61 213.78999 216.995 219.935 224.935">10 mm and with an interspacing varying from 804 to </tspan><tspan
           id="tspan2159"
           sodipodi:role="line"
           y="25"
           x="0 5.0500002 10.1 15.15 20.200001 22.625 30.455 38.285 40.709 44.089001 48.028999 52.519001 57.008999 59.433998 64.994003 67.823997 72.874001 75.424004">1702 mm (see Fig. </tspan><tspan
           id="tspan2161"
           y="25"
           x="77.849998">3</tspan><tspan
           id="tspan2163"
           sodipodi:role="line"
           y="25"
           x="82.900002 87.389999 90.769997">c).</tspan><tspan
           id="tspan2165"
           sodipodi:role="line"
           y="50"
           x="-1.8400016 4.3199983 9.3699989 13.859999 16.379999 21.429998 25.919998 29.859999 32.689999 37.739998 42.789997 45.309998 50.359997 53.739998 56.259998 59.169998 64.220001 68.709999 71.229996 75.089996 77.919998 81.540001 86.589996 91.080002 93.909996 98.959999 102.32 106.81 109.33 112.16 116.65 121.14 126.18999 130.13 132.64999 135.45999 140.50999 143.03 147.52 150.03999 152.84999 157.81999 160.75 165.24001 168.06999 170.59 175.64 179.02 181.53999 186.59 191.64 196.69 201.74001 204.25999 208.75 213.8 221.63">The design of the structure leads to a total of 1848 com-</tspan><tspan
           id="tspan2167"
           sodipodi:role="line"
           y="62.5"
           x="-13.180001 -8.0500011 -3.4800014 0.21399847 3.1239984 11.033998 15.603998 20.733999 23.643999 27.663998 30.593998 33.737999 38.868 42.327999 45.257999 48.251999 53.382 57.952 60.882 63.792 66.701996 71.707001 76.836998 79.747002 84.876999 87.806999 91.826996 96.396996 99.306999 104.437 107.347 110.257 113.167 116.077 120.647 123.542 128.672 132.132 135.062 140.192 144.67599 147.586 152.15601 156.726 159.62 164.75 167.73399 170.364 173.29399 178.879 181.789 186.91899 192.049 194.959 199.52899 203.549 206.479 213.82899 216.739 219.733 224.733">partments for the liquid scintillator detector. Studies with </tspan><tspan
           id="tspan2169"
           sodipodi:role="line"
           y="75"
           x="-13.180001 -8.5600014 -5.3500013 -0.17000154 3.2809985 8.3829985 11.323998 16.424999 19.384998 24.564999 29.744999 34.364998 37.574997 42.195 47.375 55.306999 60.487 65.107002 68.848 71.807999 79.767998 84.388 89.568001 92.528 95.737999 98.697998 103.878 107.088 110.048 114.668 118.659 121.619 124.82899 130.009 134.629 139.24899 147.209 150.41899">a prototype compartment in test beam [</tspan><tspan
           id="tspan2171"
           sodipodi:role="line"
           y="75"
           x="153.929 159.10899">11</tspan><tspan
           id="tspan2173"
           sodipodi:role="line"
           y="75"
           x="164.289 167.799 171.009 176.189 180.49001 185.43199 190.052 193.26199 198.203 202.823 206.524 209.48399 215.244 219.864 224.864">] have verifed </tspan><tspan
           id="tspan2175"
           sodipodi:role="line"
           y="87.5"
           x="-13.180001 -10.180001 -5.0400014 -0.46000153 2.4599984 5.4199986 8.4199982 13.559999 18.139999 21.099998 26.239998 29.159998 37.079998 41.66 46.799999 50.829998 53.75 58.889999 64.029999 68.059998 71.019997 76.159996 79.080002 83.979996 88.559998 93.699997 96.659996 101.6 106.74 109.7 112.7 117.84 122.42 125.38 130.27899 134.85899 138.88899 142.91899 147.49899 150.41899 153.379 157.409 162.41899 166.99899 169.91899 174.409 177.30901 182.44901 187.589 190.549 195.689 199.159 202.119 206.69901 211.839 216.979 222.119 224.899">that the dimensions given by the vessel skeleton of about </tspan><tspan
           id="tspan2177"
           sodipodi:role="line"
           y="100"
           x="-13.180001 -7.9600015 -2.7400014 2.4799986 5.9509983 13.950998 21.950998 23.449999 30.069998 31.549999 36.769997 41.989998 47.209999 52.43 55.900997 63.900997 71.901001 75.371002 80.030998 83.566002 88.225998 91.695999 96.355995 101.016 105.67599 110.336 115.55099 118.655 123.31499 128.535 131.535 136.19499 138.91499 142.38499 148.715 153.935 158.595 162.065 165.05 170.194 173.298 177.95799 180.95799 184.42799 191.69299 196.353 199.353 204.573 209.793 212.793 216.263 221.483 224.813">800 mm × 1200 mm are acceptable. The total weight of </tspan><tspan
           id="tspan2179"
           sodipodi:role="line"
           y="112.5"
           x="-13.180001 -9.3200016 -6.4900017 -2.8700016 2.1799984 6.6699986 9.4999981 14.549998 17.909998 22.399998 24.819998 29.309998 34.359997 39.41 41.824997 46.875 49.704998 54.195 57.024998 61.514999 65.455002 67.869995 70.93 75.979996 79.559998 87.389999 90.220001 95.269997 100.32 102.74 105.649 110.699 115.189 117.609 122.659 127.149 131.63899 135.858 140.908 143.328 148.108 153.158 155.98799 161.03799 168.868 173.358 175.778 178.608 182.548 184.968 189.45799 194.508 199.558 204.608 207.438 209.858 214.908 219.95799 224.95799">structure and plates forming the decay volume is about 550 </tspan><tspan
           id="tspan2181"
           sodipodi:role="line"
           y="125"
           x="-13.180001 -10.241001 -5.0610013 0.11899847 4.1889987 6.8689985 10.068998 16.358999 21.538998 26.158998 29.358999 32.847 37.466999 41.536999 44.496998 48.486 51.445999 54.405998 59.585999 64.765999 67.965996 71.953995 74.914001 78.663002 83.842995 88.462997 91.422997 96.602997 100.092 104.712 107.91199 110.872 114.942 118.142 126.102 130.722 133.68199 138.862 141.61099 146.791 149.991 154.61099 159.791 164.97099 168.95999 171.92 174.88 177.84 183.02 185.98 190.59999 195.78 198.98 203.95799 209.138 212.338 215.37599 220.556 224.996">tons. The resisting structure is mainly constituted by the </tspan><tspan
           id="tspan2183"
           sodipodi:role="line"
           y="137.5"
           x="-13.180001 -10.270001 -5.1400013 -2.2300014 2.3399985 6.0099983 11.139998 15.709998 18.619999 21.529999 25.469999 28.379999 32.949997 37.519997 40.43 43.34 48.469997 51.379997 55.949997 58.859997 63.43 66.339996 69.779999 74.349998 77.260002 82.389999 85.530998 90.660995 94.101997 98.671997 103.242 108.372 111.282 118.632 121.542 124.533 129.66299 132.573 135.564 140.694 145.26399 148.174 155.34399 159.914 162.82401 167.95399 172.524 177.65399 180.564 183.474 186.914 191.48399 196.614 200.634 205.524 210.09399 213.554 217.57401 222.144 224.924">internal steel plate reinforced with the welded transversal </tspan><tspan
           id="tspan2185"
           sodipodi:role="line"
           y="150"
           x="-13.180001 -9.1400013 -6.1300015 -3.1200016 3.1599984 7.8299985 13.059999 16.069998 21.299999 26.529999 30.039999 38.049999 42.719997 50.73 55.959999 60.629997 64.189995 68.309998 71.814995 74.824997 80.055 83.559998 86.650002 91.879997 96.549995 100.06 103.07 110.26 115.49 118.995 124.225 128.895 132.705 137.935 142.605 147.83499 153.065 156.075 160.745 165.97499 168.985 173.655 177.215 180.72 185.95 188.95999 192.5 197.17 201.84 204.84999 207.86 213.09 218.31999 222.44 224.94">stifening members in the two perpendicular directions. </tspan><tspan
           id="tspan2187"
           sodipodi:role="line"
           y="162.5"
           x="-13.180001 -7.0400014 -2.0100014 0.79999846 4.7199984 6.9999986 10.838999 13.648998 17.246998 22.276999 26.746998 29.556999 34.586998 37.924999 42.394997 45.204998 47.484997 51.792999 56.822998 61.852997 64.663002 69.132996 73.602997 75.882996 78.693001 82.612999 84.892998 87.702995 92.733002 97.763 100.573 105.043 109.513 112.323 114.603 117.413 122.443 124.723 129.75301 133.302 136.112 141.142 146.02 150.49001 154.41 156.69 161.16 166.19 171.22 173.5 176.31 181.34 183.62 188.64999 193.67999 198.14999 200.95999 204.88 207.16 211.63 216.66 221.69">This structural choice is typical in bridges and in boats con-</tspan><tspan
           id="tspan2189"
           sodipodi:role="line"
           y="175"
           x="-13.180001 -9.2740011 -6.3940015 -2.7290015 2.3709984 6.9109983 9.7909985 12.665998 17.765999 22.865999 26.855999 29.455999 32.306 39.620998 44.160999 49.260998 53.795998 58.335999 60.935997 63.785999 66.741997 71.836998 76.376999 79.226997 84.326996 88.866997 93.402 97.667999 102.768 105.618 110.444 115.539 118.419 123.519 131.399 135.939 138.784 143.32401 147.864 152.964 155.814 160.909 165.44901 168.299 172.839 175.714 180.254 184.244 188.23399 191.10899 196.789 201.32899 206.429 209.27899 213.814 217.804 220.65399 225.09399">structions. Hence, the decay volume can be classifed as a </tspan><tspan
           id="tspan2191"
           sodipodi:role="line"
           y="187.5"
           x="-13.180001 -9.2080011 -6.2680016 -1.6680015 2.9319985 5.8719983 8.9719982 12.943998 15.883999 19.615999 24.775999 29.375998 32.315998 37.475998 40.947998 45.548 48.647999 56.028 58.967999 61.989998 67.150002 70.25 74.849998 77.949997 82.549995 85.982002 91.141998 95.192001 99.241997 102.342 106.392 110.992 115.592 118.532 121.472 126.632 131.79199 134.892 137.832 142.992 146.092 150.692 153.79199 160.994 165.59399 168.534 173.694 178.29399 183.45399 186.554 191.15399 196.314 204.226 209.386 214.54601 218.59599 221.536">steel structure with a cross section in a welded composi-</tspan><tspan
           id="tspan2193"
           sodipodi:role="line"
           y="200"
           x="-13.180001 -10.260001 -7.3400016 -2.2000015 2.9399984 5.5799985 8.5699987 17.599998 22.739998 26.192999 30.772999 35.695999 40.599998 45.18 48.393997 51.033997 54.023998 57.026997 62.167 66.747002 70.199997 74.779999 77.769997 82.349998 85.803001 90.382996 93.373001 96.292999 101.433 106.573 111.713 114.633 117.553 122.693 127.833 130.75301 135.89301 140.47299 143.39301 146.383 150.336 153.256 156.17599 162.366 166.946 172.086 175.006 180.146 185.286 188.276 192.856 195.776 200.356 208.276 212.856 217.996 220.916 224.806">tion. Moreover, there are longitudinal stifening elements </tspan><tspan
           id="tspan2195"
           sodipodi:role="line"
           y="212.5"
           x="-13.180001 -10.257002 -5.0970016 -1.9970015 1.4759985 6.0759983 11.235998 16.395998 20.995998 25.595999 28.695999 31.718998 36.878998 41.479 44.578999 49.738998 54.338997 57.278999 62.438999 67.598999 70.539001 73.639 78.798996 82.289001 85.389 88.411995 93.571999 98.171997 101.272 105.872 111.032 118.945 124.105 128.705 132.427 135.367 143.30699 147.907 153.067 156.007 160.05699 163.157 167.757 172.91699 178.077 181.177 184.19901 189.35899 193.959 197.43199 202.032 205.132 208.07199 212.12199 215.222 219.82199 224.82199">to reduce the height of the compartments and there is an </tspan><tspan
           id="tspan2197"
           sodipodi:role="line"
           y="225"
           x="-13.180001 -8.9000015 -3.8500016 -1.0200015 3.4699984 7.0589986 12.108998 16.598999 19.428999 21.848999 25.708998 28.538998 33.028999 37.518997 40.348999 42.768997 47.819 50.648998 55.139 57.968998 62.459 64.878998 69.929001 74.418999 78.908997 83.959 88.448997 93.499001 95.918999 98.728996 103.779 106.199 110.689 115.739 120.789 123.719 128.209 131.039 136.089 138.509 141.41899 146.46899 150.959 153.379 156.209 159.039 163.959 169.009 171.839 176.88899 179.30901 183.24899 187.739 190.569 195.619 198.44901 201.27899 204.10899 206.939 211.429 214.239 219.289 222.409 224.909">external steel plate needed to contain the liquid scintillator, </tspan><tspan
           id="tspan2199"
           sodipodi:role="line"
           y="237.5"
           x="-13.180001 -10.270001 -5.2200017 -0.73000151 2.0999985 4.6539984 7.7139983 12.763998 16.343998 24.173998 26.727999 29.637999 34.688 39.177998 41.732998 46.782997 51.612999 56.662998 59.216999 63.156998 67.646996 72.137001 74.966995 77.796997 82.847 87.896996 90.446999 93.000999 99.721001 104.771 109.821 114.311 118.80099 123.84 126.67 131.72 136.20999 139.03999 141.66 146.17999 148.73 151.285 154.19499 159.245 163.735 167.095 171.58499 174.14 178.63 181.99001 186.48 189.035 191.86501 198.875 203.925 206.479 210.339 213.16899 217.659 222.149 224.929">that form the box section. Conceptually, there are two steel </tspan><tspan
           id="tspan2201"
           sodipodi:role="line"
           y="250"
           x="-13.180001 -8.0850019 -5.2100015 -0.6750015 2.1999984 6.7349987 10.719998 13.564999 18.530998 23.065998 28.150999 31.025999 33.870998 36.725998 41.820999 46.765999 51.210999 54.166 59.260998 63.795998 67.221001 70.066002 74.961998 80.056999 82.902 85.857002 90.951996 95.487 98.332001 102.237 105.112 107.987 114.132 118.667 123.762 126.637 131.737 136.832 139.677 147.552 152.08701 159.96201 165.05699 169.592 173.017 177.002 179.597 182.442 188.647 193.742 196.62199 200.606 203.45599 208.55099 213.086 215.961 221.056 224.946">plates kept together by the stifening members. This helps </tspan><tspan
           id="tspan2203"
           sodipodi:role="line"
           y="262.5"
           x="-13.180001 -10.260001 -5.1200013 -2.1500015 0.76999849 5.9099984 10.489999 13.940998 18.520998 23.100998 27.130999 30.050999 35.190998 40.330997 43.300999 46.301998 51.441998 56.021999 58.991997 62.942997 65.862999 69.313995 73.893997 79.033997 84.173996 87.174995 92.314995 95.284996 100.425 103.895 106.865 109.866 115.006 119.586 122.556 126.586 131.166 135.746 138.666 141.586 146.726 151.866 155.896 158.536 161.506 164.976 170.116 173.086 176.08701 181.22701 185.80699 188.77699 191.69699 195.14799 199.728 204.868 208.89799 213.799 218.379 221.59999">in increasing the strength of the sections. In the transver-</tspan><tspan
           id="tspan2205"
           sodipodi:role="line"
           y="275"
           x="-13.180001 -9.2400017 -4.7500014 -1.9200015 0.78499848 5.8349986 8.6649981 13.154999 18.204998 22.694998 25.244999 27.949999 30.859999 35.91 40.399998 43.23 46.609997 49.314999 54.364998 58.855 63.904999 68.074997 73.125 75.955002 81.004997 86.055 89.434998 92.144997 94.974998 98.915001 101.62 104.53 109.58 114.07 116.9 119.61 124.66 128.03999 130.745 135.235 137.94 142.99001 147.81999 152.87 155.42 158.13 164.28999 169.34 173.83 176.535 179.36501 184.41499 187.245 191.735 195.325 200.375 204.86501 207.69499 210.405 214.895 219.94499 224.944">sal plane, their behaviour is that of a box. The internal and </tspan><tspan
           id="tspan2207"
           sodipodi:role="line"
           y="287.5"
           x="-13.180001 -8.8010015 -3.6510015 -0.72100151 3.8689985 7.5579987 12.707998 17.297998 20.227999 23.247999 27.206999 30.136999 34.726997 39.316998 42.246998 45.266998 49.306999 54.456997 59.046997 63.545998 66.475998 70.515999 73.535995 80.644997 85.794998 89.203995 94.353996 97.374001 100.283 105.433 110.432 114.931 117.93999 123.09 127.68 130.899 133.549 136.569 140.60899 145.759 150.349 154.01801 156.948 162.09799 167.248 170.26801 174.308 177.23799 185.168 188.09799 191.028 195.618 199.09799 202.118 206.077 209.007 212.466 217.056 221.09599 224.98599">external steel sheets work together, sharing similar stress </tspan></text><text
         id="text2213"
         style="font-variant:normal;font-weight:600;font-stretch:semi-condensed;font-size:8.5px;font-family:'Myriad Pro Light SemiCond';-inkscape-font-specification:MyriadPro-SemiboldSemiCn;writing-mode:lr-tb;fill:#000000;fill-opacity:1;fill-rule:nonzero;stroke:none"
         transform="matrix(1,0,0,-1,51.023602,373.0802)"><tspan
           id="tspan2211"
           sodipodi:role="line"
           y="0"
           x="0 3.8164999 5.8649998 10.2255 12.1805 13.8125 18.0455">Fig. 2 </tspan></text><text
         id="text2221"
         style="font-variant:normal;font-weight:normal;font-stretch:normal;font-size:8.5px;font-family:STIX;-inkscape-font-specification:STIX-Regular;writing-mode:lr-tb;fill:#000000;fill-opacity:1;fill-rule:nonzero;stroke:none"
         transform="matrix(1,0,0,-1,74.381602,373.0802)"><tspan
           id="tspan2215"
           sodipodi:role="line"
           y="0"
           x="0 4.25 10.387 12.512 16.761999 19.125 22.737499 28.8745 30.9995 35.2495 38.080002 40.205002 42.636002 46.886002 50.66 52.785 57.035 60.808998 64.583 68.127502 72.377502">3D view of the decay </tspan><tspan
           id="tspan2217"
           sodipodi:role="line"
           y="9.9960003"
           x="-23.358 -19.3375 -15.0875 -12.7245 -8.4744997 -1.8615 1.9125 4.0374999 7.8115001 11.118 13.243 15.606 22.193501 26.443501 28.806499 32.580502 39.193501 42.967499 47.217499 49.580502 53.3545 57.6045 59.7295 62.092499 66.342499 68.467499 70.898499 75.148499 78.922501">volume as implemented in the </tspan><tspan
           id="tspan2219"
           sodipodi:role="line"
           y="19.992001"
           x="-23.358 -20.119499 -17.7565 -14.722 -10.472 -6.698 -4.335 -0.085000001 2.7276499 6.5016499 8.8646498 10.98965 14.76365 19.013651 22.787649 24.972151 29.11165 32.418152 34.781151">structural analysis</tspan></text><path
         id="path2223"
         style="fill:#ffffff;fill-opacity:1;fill-rule:nonzero;stroke:none"
         d="m 204.052,262.69501 h 340.20001 v 116.76 H 204.052 Z" /><g
         transform="matrix(340.2,0,0,116.76,204.05197,262.6952)"
         id="g2225"><image
           sodipodi:absref="D:\Eigene_Dateien\Dokumente\UNI\Uni_2020\BA\BA (5)\pictures\decay_volume_img0.png"
           xlink:href="decay_volume_img0.png"
           width="1"
           height="1"
           style="image-rendering:optimizeSpeed"
           preserveAspectRatio="none"
           transform="matrix(1,0,0,-1,0,1)"
           id="image2227" /></g><path
         id="path2229"
         style="fill:#ffffff;fill-opacity:1;fill-rule:nonzero;stroke:none"
         d="M 51.023998,99.655998 H 544.252 V 232.016 H 51.023998 Z" /><g
         transform="matrix(425.27999,0,0,132.36,84.997795,99.656193)"
         id="g2231"><image
           sodipodi:absref="D:\Eigene_Dateien\Dokumente\UNI\Uni_2020\BA\BA (5)\pictures\decay_volume_img1.png"
           xlink:href="decay_volume_img1.png"
           width="1"
           height="1"
           style="image-rendering:optimizeSpeed"
           preserveAspectRatio="none"
           transform="matrix(1,0,0,-1,0,1)"
           id="image2233" /></g><text
         id="text2237"
         style="font-variant:normal;font-weight:600;font-stretch:semi-condensed;font-size:8.5px;font-family:'Myriad Pro Light SemiCond';-inkscape-font-specification:MyriadPro-SemiboldSemiCn;writing-mode:lr-tb;fill:#000000;fill-opacity:1;fill-rule:nonzero;stroke:none"
         transform="matrix(1,0,0,-1,51.023602,76.2732)"><tspan
           id="tspan2235"
           sodipodi:role="line"
           y="0"
           x="0 3.8164999 5.8649998 10.2255 12.1805 13.8125 18.0455">Fig. 3 </tspan></text><text
         id="text2241"
         style="font-variant:normal;font-weight:bold;font-stretch:normal;font-size:8.5px;font-family:STIX;-inkscape-font-specification:STIX-Bold;writing-mode:lr-tb;fill:#000000;fill-opacity:1;fill-rule:nonzero;stroke:none"
         transform="matrix(1,0,0,-1,74.381602,76.2732)"><tspan
           id="tspan2239"
           y="0"
           x="0">a</tspan></text><text
         id="text2245"
         style="font-variant:normal;font-weight:normal;font-stretch:normal;font-size:8.5px;font-family:STIX;-inkscape-font-specification:STIX-Regular;writing-mode:lr-tb;fill:#000000;fill-opacity:1;fill-rule:nonzero;stroke:none"
         transform="matrix(1,0,0,-1,80.756602,76.2732)"><tspan
           id="tspan2243"
           sodipodi:role="line"
           y="0"
           x="0 2.8304999 7.0805001 11.3305 15.1045 17.934999 20.059999 23.2985 25.661501 29.435499 33.209499 35.572498 37.697498 41.004002 45.254002 49.028 52.725498 55.1395 57.502499">Inner steel sheet; </tspan></text><text
         id="text2249"
         style="font-variant:normal;font-weight:bold;font-stretch:normal;font-size:8.5px;font-family:STIX;-inkscape-font-specification:STIX-Bold;writing-mode:lr-tb;fill:#000000;fill-opacity:1;fill-rule:nonzero;stroke:none"
         transform="matrix(1,0,0,-1,140.3841,76.2732)"><tspan
           id="tspan2247"
           y="0"
           x="0">b</tspan></text><text
         id="text2253"
         style="font-variant:normal;font-weight:normal;font-stretch:normal;font-size:8.5px;font-family:STIX;-inkscape-font-specification:STIX-Regular;writing-mode:lr-tb;fill:#000000;fill-opacity:1;fill-rule:nonzero;stroke:none"
         transform="matrix(1,0,0,-1,147.2351,76.2732)"><tspan
           id="tspan2251"
           sodipodi:role="line"
           y="0"
           x="0 2.3629999 5.1764998 8.9504995 13.2005 16.507 20.552999 24.327 27.157499 30.464001 34.237999 36.601002 38.726002 41.9645 44.327499 46.690498 51.833 55.606998 59.856998 62.220001 66.470001 70.720001 72.845001 79.458 83.232002 89.845001 94.095001 97.869003 100.6995 104.006 106.369">transversal stifening members; </tspan></text><text
         id="text2257"
         style="font-variant:normal;font-weight:bold;font-stretch:normal;font-size:8.5px;font-family:STIX;-inkscape-font-specification:STIX-Bold;writing-mode:lr-tb;fill:#000000;fill-opacity:1;fill-rule:nonzero;stroke:none"
         transform="matrix(1,0,0,-1,255.7291,76.2732)"><tspan
           id="tspan2255"
           y="0"
           x="0">c</tspan></text><text
         id="text2261"
         style="font-variant:normal;font-weight:normal;font-stretch:normal;font-size:8.5px;font-family:STIX;-inkscape-font-specification:STIX-Regular;writing-mode:lr-tb;fill:#000000;fill-opacity:1;fill-rule:nonzero;stroke:none"
         transform="matrix(1,0,0,-1,261.6281,76.2732)"><tspan
           id="tspan2259"
           sodipodi:role="line"
           y="0"
           x="0 2.3629999 6.6129999 10.863 15.113 17.476 19.839001 24.089001 28.339001 30.702 34.952 38.726002 41.089001 43.214001 46.452499 48.815498 51.178501 56.320999 60.095001 64.345001 66.708 70.958 75.208 77.333 83.945999 87.720001 94.333 98.583 102.357 105.1875">longitudinal stifening members</tspan></text></g><g
       id="g2263"><g
         id="g2265"><g
           clip-path="url(#clipPath2271)"
           id="g2267"><g
             transform="matrix(0.99999964,0,0,15.090027,260.33698,509.13)"
             id="g2273"><g
               id="g2275"><g
                 clip-path="url(#clipPath2281)"
                 id="g2277"><g
                   id="g2283" /></g></g></g><g
             transform="matrix(1.0000006,0,0,15.089996,181.104,446.63)"
             id="g2285"><g
               id="g2287"><g
                 clip-path="url(#clipPath2293)"
                 id="g2289"><g
                   id="g2295" /></g></g></g><g
             transform="matrix(0.99999905,0,0,15.089996,82.953003,409.13)"
             id="g2297"><g
               id="g2299"><g
                 clip-path="url(#clipPath2305)"
                 id="g2301"><g
                   id="g2307" /></g></g></g><g
             transform="matrix(0.99999964,0,0,15.090027,397.17203,659.13)"
             id="g2309"><g
               id="g2311"><g
                 clip-path="url(#clipPath2317)"
                 id="g2313"><g
                   id="g2319" /></g></g></g><g
             transform="matrix(1.0000029,0,0,15.090027,473.29999,609.13)"
             id="g2321"><g
               id="g2323"><g
                 clip-path="url(#clipPath2329)"
                 id="g2325"><g
                   id="g2331" /></g></g></g></g></g></g></g></svg>
