<?xml version="1.0" encoding="UTF-8" standalone="no"?>
<svg
   version="1.1"
   id="svg5665"
   xml:space="preserve"
   width="1008.3807"
   height="455.60529"
   viewBox="0 0 1008.3808 455.60528"
   sodipodi:docname="detector-response.svg"
   inkscape:version="1.1.2 (b8e25be833, 2022-02-05)"
   xmlns:inkscape="http://www.inkscape.org/namespaces/inkscape"
   xmlns:sodipodi="http://sodipodi.sourceforge.net/DTD/sodipodi-0.dtd"
   xmlns:xlink="http://www.w3.org/1999/xlink"
   xmlns="http://www.w3.org/2000/svg"
   xmlns:svg="http://www.w3.org/2000/svg"
   xmlns:rdf="http://www.w3.org/1999/02/22-rdf-syntax-ns#"
   xmlns:cc="http://creativecommons.org/ns#"
   xmlns:dc="http://purl.org/dc/elements/1.1/"><metadata
     id="metadata5671"><rdf:RDF><cc:Work
         rdf:about=""><dc:format>image/svg+xml</dc:format><dc:type
           rdf:resource="http://purl.org/dc/dcmitype/StillImage" /><dc:title /></cc:Work></rdf:RDF></metadata><defs
     id="defs5669"><marker
   style="overflow:visible"
   id="Arrow2Sstart"
   refX="0.0"
   refY="0.0"
   orient="auto"
   inkscape:stockid="Arrow2Sstart"
   inkscape:isstock="true"><path
     transform="scale(0.3) translate(-2.3,0)"
     d="M 8.7185878,4.0337352 L -2.2072895,0.016013256 L 8.7185884,-4.0017078 C 6.9730900,-1.6296469 6.9831476,1.6157441 8.7185878,4.0337352 z "
     style="stroke:context-stroke;fill-rule:evenodd;fill:context-stroke;stroke-width:0.62500000;stroke-linejoin:round"
     id="path17452" /></marker><marker
   style="overflow:visible;"
   id="Arrow2Send"
   refX="0.0"
   refY="0.0"
   orient="auto"
   inkscape:stockid="Arrow2Send"
   inkscape:isstock="true"><path
     transform="scale(0.3) rotate(180) translate(-2.3,0)"
     d="M 8.7185878,4.0337352 L -2.2072895,0.016013256 L 8.7185884,-4.0017078 C 6.9730900,-1.6296469 6.9831476,1.6157441 8.7185878,4.0337352 z "
     style="stroke:context-stroke;fill-rule:evenodd;fill:context-stroke;stroke-width:0.62500000;stroke-linejoin:round;"
     id="path17455" /></marker><marker
   inkscape:stockid="Arrow1Mend"
   orient="auto"
   refY="0"
   refX="0"
   id="marker6704"
   style="overflow:visible"
   inkscape:isstock="true"><path
     id="path6702"
     d="M 0,0 5,-5 -12.5,0 5,5 Z"
     style="fill:#ec9072;fill-opacity:1;fill-rule:evenodd;stroke:#ec9072;stroke-width:1pt;stroke-opacity:1"
     transform="matrix(-0.4,0,0,-0.4,-4,0)" /></marker><marker
   inkscape:collect="always"
   inkscape:isstock="true"
   style="overflow:visible"
   id="marker6658"
   refX="0"
   refY="0"
   orient="auto"
   inkscape:stockid="Arrow1Mend"><path
     transform="matrix(-0.4,0,0,-0.4,-4,0)"
     style="fill:#ec9072;fill-opacity:1;fill-rule:evenodd;stroke:#ec9072;stroke-width:1pt;stroke-opacity:1"
     d="M 0,0 5,-5 -12.5,0 5,5 Z"
     id="path6656" /></marker><marker
   inkscape:stockid="Arrow1Mstart"
   orient="auto"
   refY="0"
   refX="0"
   id="marker6398"
   style="overflow:visible"
   inkscape:isstock="true"><path
     id="path6396"
     d="M 0,0 5,-5 -12.5,0 5,5 Z"
     style="fill:#000000;fill-opacity:1;fill-rule:evenodd;stroke:#000000;stroke-width:1pt;stroke-opacity:1"
     transform="matrix(0.4,0,0,0.4,4,0)" /></marker><marker
   inkscape:stockid="Arrow1Mstart"
   orient="auto"
   refY="0"
   refX="0"
   id="marker6388"
   style="overflow:visible"
   inkscape:isstock="true"><path
     id="path6386"
     d="M 0,0 5,-5 -12.5,0 5,5 Z"
     style="fill:#000000;fill-opacity:1;fill-rule:evenodd;stroke:#000000;stroke-width:1pt;stroke-opacity:1"
     transform="matrix(0.4,0,0,0.4,4,0)" /></marker><marker
   inkscape:collect="always"
   inkscape:stockid="Arrow1Mend"
   orient="auto"
   refY="0"
   refX="0"
   id="marker6346"
   style="overflow:visible"
   inkscape:isstock="true"><path
     id="path6344"
     d="M 0,0 5,-5 -12.5,0 5,5 Z"
     style="fill:#ec9072;fill-opacity:1;fill-rule:evenodd;stroke:#ec9072;stroke-width:1pt;stroke-opacity:1"
     transform="matrix(-0.4,0,0,-0.4,-4,0)" /></marker><marker
   inkscape:stockid="Arrow1Mend"
   orient="auto"
   refY="0"
   refX="0"
   id="marker6336"
   style="overflow:visible"
   inkscape:isstock="true"><path
     id="path6334"
     d="M 0,0 5,-5 -12.5,0 5,5 Z"
     style="fill:#000000;fill-opacity:1;fill-rule:evenodd;stroke:#000000;stroke-width:1pt;stroke-opacity:1"
     transform="matrix(-0.4,0,0,-0.4,-4,0)" /></marker><g
   id="g9687">
      <symbol
   id="symbol4179"
   overflow="visible">
        <path
   id="path8921"
   d=""
   style="stroke:none" />
      </symbol>
      <symbol
   id="symbol2443"
   overflow="visible">
        <path
   id="path459"
   d="m 2.296875,-3.5 c 0.0625,-0.203125 0.15625,-0.59375 0.15625,-0.640625 0,-0.171875 -0.125,-0.265625 -0.296875,-0.265625 -0.015625,0 -0.296875,0.015625 -0.390625,0.359375 l -1.4375,5.765625 c -0.03125,0.125 -0.03125,0.140625 -0.03125,0.171875 0,0.140625 0.109375,0.265625 0.28125,0.265625 0.203125,0 0.328125,-0.1875 0.34375,-0.21875 C 0.96875,1.859375 1.09375,1.328125 1.46875,-0.203125 1.796875,0.0625 2.25,0.109375 2.4375,0.109375 c 0.703125,0 1.09375,-0.453125 1.328125,-0.734375 0.09375,0.453125 0.46875,0.734375 0.90625,0.734375 0.34375,0 0.578125,-0.234375 0.734375,-0.546875 0.171875,-0.359375 0.296875,-0.96875 0.296875,-0.984375 0,-0.109375 -0.09375,-0.109375 -0.125,-0.109375 -0.09375,0 -0.109375,0.046875 -0.140625,0.1875 -0.15625,0.640625 -0.34375,1.234375 -0.75,1.234375 -0.265625,0 -0.296875,-0.265625 -0.296875,-0.453125 0,-0.21875 0.109375,-0.6875 0.1875,-1.046875 L 4.859375,-2.6875 C 4.890625,-2.828125 5,-3.203125 5.03125,-3.359375 5.078125,-3.59375 5.1875,-3.96875 5.1875,-4.03125 c 0,-0.171875 -0.140625,-0.265625 -0.296875,-0.265625 -0.046875,0 -0.3125,0.015625 -0.390625,0.34375 l -0.46875,1.875 c -0.109375,0.5 -0.21875,0.90625 -0.25,1.015625 -0.015625,0.046875 -0.484375,0.953125 -1.296875,0.953125 -0.5,0 -0.734375,-0.328125 -0.734375,-0.875 0,-0.28125 0.0625,-0.5625 0.140625,-0.84375 z m 0,0"
   style="stroke:none" />
      </symbol>
    </g>
  </defs><sodipodi:namedview
     inkscape:snap-others="false"
     inkscape:document-rotation="0"
     inkscape:snap-object-midpoints="false"
     inkscape:current-layer="g5675"
     inkscape:window-maximized="1"
     inkscape:window-y="-8"
     inkscape:window-x="-8"
     inkscape:cy="217.47238"
     inkscape:cx="373.65708"
     inkscape:zoom="0.75871705"
     showgrid="false"
     id="namedview5667"
     inkscape:window-height="1057"
     inkscape:window-width="1842"
     inkscape:pageshadow="2"
     inkscape:pageopacity="0"
     guidetolerance="10"
     gridtolerance="10"
     objecttolerance="10"
     borderopacity="1"
     bordercolor="#666666"
     pagecolor="#ffffff"
     inkscape:pagecheckerboard="0" /><g
     transform="matrix(1.3333333,0,0,1.3333333,-13.523502,-124.10262)"
     inkscape:label="relative-locations"
     inkscape:groupmode="layer"
     id="g5673"><g
       id="g5675"><g
         style="fill:#505050"
         transform="matrix(0.62331903,0,0,0.62331903,-6.2309044,92.369313)"
         id="g5677"><path
           id="path5679"
           style="fill:#505050;fill-opacity:1;fill-rule:nonzero;stroke:#000000;stroke-width:2.3074;stroke-linecap:butt;stroke-linejoin:miter;stroke-miterlimit:4;stroke-dasharray:none;stroke-opacity:1"
           d="M 27.422,2.289 H 564.574 V 539.437 H 27.422 Z" /></g><ellipse
         cx="291.64972"
         cy="126.50706"
         rx="3.2365732"
         ry="3.3984022"
         id="path6640"
         style="fill:#ec9072;stroke:#000000;stroke-width:0.89355;stroke-miterlimit:4;stroke-dasharray:2.68065, 2.68065;stroke-dashoffset:0" /><path
         id="path6642"
         d="m 291.64974,126.50706 -70.66207,92.127"
         style="fill:#ec9072;stroke:#ec9072;stroke-width:1.0665;stroke-linecap:butt;stroke-linejoin:miter;stroke-miterlimit:4;stroke-dasharray:none;stroke-opacity:1" /><path
         id="path6644"
         d="m 220.98767,218.63406 -20.78208,8.31283 -30.94221,-23.0912 -18.93478,28.17127 h -23.55303 l 10.62195,38.79322 -11.54559,18.01113 15.70201,5.08007"
         style="fill:none;stroke:#ec9072;stroke-width:0.9;stroke-linecap:butt;stroke-linejoin:miter;stroke-miterlimit:4;stroke-dasharray:none;stroke-opacity:1;marker-end:url(#marker6704)" /><text
         y="325.30377"
         x="221.51433"
         id="text5733"
         style="font-style:normal;font-variant:normal;font-weight:normal;font-stretch:normal;font-size:28px;font-family:sans-serif;-inkscape-font-specification:'sans-serif, Normal';font-variant-ligatures:normal;font-variant-caps:normal;font-variant-numeric:normal;font-variant-east-asian:normal;writing-mode:lr-tb;fill:#ffffff;fill-opacity:1;fill-rule:nonzero;stroke:#ffffff;stroke-width:0.92475;stroke-miterlimit:4;stroke-dasharray:none;stroke-opacity:1"><tspan
           style="font-style:normal;font-variant:normal;font-weight:normal;font-stretch:normal;font-size:28px;font-family:sans-serif;-inkscape-font-specification:'sans-serif, Normal';font-variant-ligatures:normal;font-variant-caps:normal;font-variant-numeric:normal;font-variant-east-asian:normal;fill:#ffffff;fill-opacity:1;stroke:#ffffff;stroke-width:0.92475;stroke-miterlimit:4;stroke-dasharray:none;stroke-opacity:1"
           id="tspan5717"
           y="325.30377"
           x="221.51433">0</tspan><tspan
           style="font-style:normal;font-variant:normal;font-weight:normal;font-stretch:normal;font-size:28px;font-family:sans-serif;-inkscape-font-specification:'sans-serif, Normal';font-variant-ligatures:normal;font-variant-caps:normal;font-variant-numeric:normal;font-variant-east-asian:normal;fill:#ffffff;fill-opacity:1;stroke:#ffffff;stroke-width:0.92475;stroke-miterlimit:4;stroke-dasharray:none;stroke-opacity:1"
           id="tspan5719"
           y="269.93484"
           x="244.99998">1</tspan><tspan
           style="font-style:normal;font-variant:normal;font-weight:normal;font-stretch:normal;font-size:28px;font-family:sans-serif;-inkscape-font-specification:'sans-serif, Normal';font-variant-ligatures:normal;font-variant-caps:normal;font-variant-numeric:normal;font-variant-east-asian:normal;fill:#ffffff;fill-opacity:1;stroke:#ffffff;stroke-width:0.92475;stroke-miterlimit:4;stroke-dasharray:none;stroke-opacity:1"
           id="tspan5721"
           y="216.08626"
           x="224.57292">2</tspan><tspan
           style="font-style:normal;font-variant:normal;font-weight:normal;font-stretch:normal;font-size:28px;font-family:sans-serif;-inkscape-font-specification:'sans-serif, Normal';font-variant-ligatures:normal;font-variant-caps:normal;font-variant-numeric:normal;font-variant-east-asian:normal;fill:#ffffff;fill-opacity:1;stroke:#ffffff;stroke-width:0.92475;stroke-miterlimit:4;stroke-dasharray:none;stroke-opacity:1"
           id="tspan5723"
           y="192.10397"
           x="167.83836">3</tspan><tspan
           style="font-style:normal;font-variant:normal;font-weight:normal;font-stretch:normal;font-size:28px;font-family:sans-serif;-inkscape-font-specification:'sans-serif, Normal';font-variant-ligatures:normal;font-variant-caps:normal;font-variant-numeric:normal;font-variant-east-asian:normal;fill:#ffffff;fill-opacity:1;stroke:#ffffff;stroke-width:0.92475;stroke-miterlimit:4;stroke-dasharray:none;stroke-opacity:1"
           id="tspan5725"
           y="215.36763"
           x="113.10213">4</tspan><tspan
           style="font-style:normal;font-variant:normal;font-weight:normal;font-stretch:normal;font-size:28px;font-family:sans-serif;-inkscape-font-specification:'sans-serif, Normal';font-variant-ligatures:normal;font-variant-caps:normal;font-variant-numeric:normal;font-variant-east-asian:normal;fill:#ffffff;fill-opacity:1;stroke:#ffffff;stroke-width:0.92475;stroke-miterlimit:4;stroke-dasharray:none;stroke-opacity:1"
           id="tspan5727"
           y="269.89532"
           x="92.792892">5</tspan><tspan
           style="font-style:normal;font-variant:normal;font-weight:normal;font-stretch:normal;font-size:28px;font-family:sans-serif;-inkscape-font-specification:'sans-serif, Normal';font-variant-ligatures:normal;font-variant-caps:normal;font-variant-numeric:normal;font-variant-east-asian:normal;fill:#ffffff;fill-opacity:1;stroke:#ffffff;stroke-width:0.92475;stroke-miterlimit:4;stroke-dasharray:none;stroke-opacity:1"
           id="tspan5729"
           y="325.41815"
           x="114.97194">6</tspan><tspan
           style="font-style:normal;font-variant:normal;font-weight:normal;font-stretch:normal;font-size:28px;font-family:sans-serif;-inkscape-font-specification:'sans-serif, Normal';font-variant-ligatures:normal;font-variant-caps:normal;font-variant-numeric:normal;font-variant-east-asian:normal;fill:#ffffff;fill-opacity:1;stroke:#ffffff;stroke-width:0.92475;stroke-miterlimit:4;stroke-dasharray:none;stroke-opacity:1"
           id="tspan5731"
           y="346.46027"
           x="169.61961">7</tspan></text><path
         id="path6646"
         d="m 291.64674,126.50015 -53.57158,141.54908 -17.08749,-12.46925 14.31655,-11.08378 -20.78208,-2.77094 7.85101,-10.16013"
         style="fill:none;stroke:#ec9072;stroke-width:1.125;stroke-linecap:butt;stroke-linejoin:miter;stroke-miterlimit:4;stroke-dasharray:9, 1.125;stroke-dashoffset:0;stroke-opacity:1;marker-end:url(#marker6658)" /><path
         sodipodi:nodetypes="ccccccc"
         id="path6648"
         d="M 291.64674,126.50015 252.39171,94.403384 m 0,0 -77.12461,106.219536 -0.92365,19.39661 18.47296,-15.24019 12.00743,11.08377"
         style="fill:none;stroke:#ec9072;stroke-width:0.75;stroke-linecap:butt;stroke-linejoin:miter;stroke-miterlimit:4;stroke-dasharray:1.5, 0.75;stroke-dashoffset:0;stroke-opacity:1;marker-end:url(#marker6346)" /><g
         style="opacity:1;mix-blend-mode:normal"
         transform="translate(-117.79621,-9.5511252)"
         id="g6638"><g
           style="mix-blend-mode:screen"
           id="g5689"
           transform="matrix(-0.414214,1,-1,-0.414214,0,0)"><path
             d="m 181.619,-348.53 c 0,30.481 -24.711,55.189 -55.191,55.189 -30.48,0.001 -55.189,-24.71 -55.189,-55.191 0,-30.48 24.707,-55.187 55.187,-55.187 30.484,-0.002 55.192,24.709 55.193,55.189"
             style="opacity:0.998;mix-blend-mode:screen;fill:#808080;fill-opacity:1;fill-rule:nonzero;stroke:#000000;stroke-width:1.30388;stroke-linecap:butt;stroke-linejoin:miter;stroke-miterlimit:4;stroke-dasharray:none;stroke-opacity:1"
             id="path5691" /></g><g
           id="g5693"
           transform="matrix(1,1,-1,1,0,0)"><path
             d="M 322.641,-28.906 244.18,3.594"
             style="fill:#808080;fill-opacity:1;fill-rule:nonzero;stroke:#000000;stroke-width:0.997947;stroke-linecap:butt;stroke-linejoin:miter;stroke-miterlimit:4;stroke-dasharray:none;stroke-opacity:1"
             id="path5695" /></g><g
           id="g5697"
           transform="matrix(1,1,-1,1,0,0)"><path
             d="m 244.18,-28.906 78.461,32.5"
             style="fill:#808080;fill-opacity:1;fill-rule:nonzero;stroke:#000000;stroke-width:0.997947;stroke-linecap:butt;stroke-linejoin:miter;stroke-miterlimit:4;stroke-dasharray:none;stroke-opacity:1"
             id="path5699" /></g><g
           id="g5701"
           transform="matrix(1,1,-1,1,0,0)"><path
             d="m 267.16,26.574 32.5,-78.461"
             style="fill:#808080;fill-opacity:1;fill-rule:nonzero;stroke:#000000;stroke-width:0.997947;stroke-linecap:butt;stroke-linejoin:miter;stroke-miterlimit:4;stroke-dasharray:none;stroke-opacity:1"
             id="path5703" /></g><g
           id="g5705"
           transform="matrix(1,1,-1,1,0,0)"><path
             d="m 299.66,26.574 -32.5,-78.461"
             style="fill:#808080;fill-opacity:1;fill-rule:nonzero;stroke:#000000;stroke-width:0.997947;stroke-linecap:butt;stroke-linejoin:miter;stroke-miterlimit:4;stroke-dasharray:none;stroke-opacity:1"
             id="path5707" /></g><g
           style="fill:#505050"
           id="g5709"
           transform="matrix(-0.414214,1,-1,-0.414214,0,0)"><path
             d="m 164.087,-348.53 c 0.001,20.797 -16.861,37.66 -37.659,37.658 -20.8,0.002 -37.66,-16.862 -37.661,-37.658 0.001,-20.801 16.862,-37.66 37.661,-37.663 20.798,0.003 37.66,16.862 37.659,37.663"
             style="fill:#505050;fill-opacity:1;fill-rule:nonzero;stroke:#000000;stroke-width:1.30388;stroke-linecap:butt;stroke-linejoin:miter;stroke-miterlimit:4;stroke-dasharray:none;stroke-opacity:1"
             id="path5711" /></g></g><g
         style="fill:#ffffff;fill-opacity:1;stroke:#000000;stroke-width:0;stroke-miterlimit:4;stroke-dasharray:none;stroke-opacity:1"
         inkscape:label=""
         transform="matrix(3.637352,0,0,3.637352,-35.009944,-165.20307)"
         id="g7088"><g
   style="fill:#ffffff;fill-opacity:1;stroke:#000000;stroke-width:0;stroke-miterlimit:4;stroke-dasharray:none;stroke-opacity:1"
   id="g5144">
    <g
   id="g32"
   style="fill:#ffffff;fill-opacity:1;stroke:#000000;stroke-width:0;stroke-miterlimit:4;stroke-dasharray:none;stroke-opacity:1">
      <use
   style="fill:#ffffff;fill-opacity:1;stroke:#000000;stroke-width:0;stroke-miterlimit:4;stroke-dasharray:none;stroke-opacity:1"
   height="100%"
   width="100%"
   id="use1404"
   y="81.962997"
   x="91.925003"
   xlink:href="#symbol2443" />
    </g>
  </g>
</g><path
         sodipodi:nodetypes="csccaaac"
         id="path7306"
         d="m 481.888,390.28627 c 8.4829,-64.91937 21.5266,-175.1162 26.19845,-192.71962 1.57559,-5.93677 4.70801,-12.64598 12.50474,-12.44911 14.47936,1.00985 18.2234,29.8027 21.73738,41.16188 5.62443,22.64555 10.70947,44.68751 22.2676,64.70583 11.90994,20.62762 28.87732,39.44925 47.36278,55.09604 19.36854,16.39425 41.58072,29.96194 65.13269,39.40742 21.91714,8.78983 38.05754,10.88595 69.15453,15.37051"
         style="fill:none;stroke:#72b1ec;stroke-width:2.42566;stroke-linecap:butt;stroke-linejoin:miter;stroke-miterlimit:4;stroke-dasharray:none;stroke-opacity:1" /><path
         style="fill:none;stroke:#ec9072;stroke-width:2.41979;stroke-linecap:butt;stroke-linejoin:miter;stroke-miterlimit:4;stroke-dasharray:none;stroke-opacity:1"
         d="m 482.8556,396.72158 c 7.49517,-37.11226 19.02004,-100.10816 23.14792,-110.17145 1.39212,-3.39388 4.1598,-7.22931 11.0487,-7.11675 12.79337,0.57729 16.10147,17.03722 19.20626,23.5309 4.96956,12.94569 9.46248,25.54636 19.67478,36.99017 10.52316,11.79214 25.51489,22.55183 41.84788,31.49658 17.11329,9.37207 36.7391,17.12826 57.54868,22.52794 19.36513,5.02485 33.62614,6.22314 61.10223,8.78682"
         id="path7306-9"
         sodipodi:nodetypes="csccaaac" /><path
         style="fill:none;stroke:#808080;stroke-width:2.67953;stroke-linecap:butt;stroke-linejoin:miter;stroke-miterlimit:4;stroke-dasharray:none;stroke-opacity:1"
         d="m 481.87501,388.80293 c 8.48374,-74.15434 21.52871,-200.02699 26.20103,-220.13457 1.57575,-6.78127 4.70848,-14.44489 12.50597,-14.22001 14.48079,1.1535 18.2252,34.04221 21.73952,47.01727 5.625,25.86695 10.71052,51.04444 22.26981,73.91043 11.91111,23.56193 28.88015,45.06101 47.36743,62.93361 19.37044,18.72637 41.58481,34.2241 65.13909,45.01324 21.91931,10.0402 38.0613,12.4345 69.16138,17.55701"
         id="path7306-95"
         sodipodi:nodetypes="csccaaac" /><path
         style="fill:#ec9072;fill-opacity:1;stroke:#ec9072;stroke-width:3.9885001;stroke-linecap:butt;stroke-linejoin:miter;stroke-miterlimit:4;stroke-dasharray:none;stroke-opacity:1;marker-start:url(#Arrow2Sstart);marker-end:url(#Arrow2Send);stroke-dashoffset:0"
         d="M 505.59955,214.16973 391.40582,234.28495 269.908,255.68679"
         id="path5796"
         sodipodi:nodetypes="ccc" /><path
         id="path7138"
         d="M 482.47828,130.29928 V 402.48635 H 754.66535"
         style="fill:none;stroke:#000000;stroke-width:2.78812;stroke-linecap:butt;stroke-linejoin:miter;stroke-miterlimit:4;stroke-dasharray:none;stroke-opacity:1;marker-start:url(#marker6388);marker-end:url(#marker6336)" /><text
         id="text7400"
         y="434.4332"
         x="700.35571"
         style="font-style:normal;font-variant:normal;font-weight:normal;font-stretch:normal;font-size:27.392px;line-height:1.25;font-family:sans-serif;-inkscape-font-specification:'sans-serif, Normal';font-variant-ligatures:normal;font-variant-caps:normal;font-variant-numeric:normal;font-variant-east-asian:normal;stroke-width:1.46743"
         xml:space="preserve"><tspan
           style="font-style:normal;font-variant:normal;font-weight:normal;font-stretch:normal;font-size:27.392px;font-family:sans-serif;-inkscape-font-specification:'sans-serif, Normal';font-variant-ligatures:normal;font-variant-caps:normal;font-variant-numeric:normal;font-variant-east-asian:normal;stroke-width:1.46743"
           y="434.4332"
           x="700.35571"
           id="tspan7398"
           sodipodi:role="line">Time</tspan></text><text
         xml:space="preserve"
         style="font-style:normal;font-variant:normal;font-weight:normal;font-stretch:normal;font-size:27.392px;line-height:1.25;font-family:sans-serif;-inkscape-font-specification:'sans-serif, Normal';font-variant-ligatures:normal;font-variant-caps:normal;font-variant-numeric:normal;font-variant-east-asian:normal;stroke-width:1.46743"
         x="367.48575"
         y="143.33499"
         id="text7400-0"><tspan
           sodipodi:role="line"
           id="tspan7398-1"
           x="367.48575"
           y="143.33499"
           style="font-style:normal;font-variant:normal;font-weight:normal;font-stretch:normal;font-size:27.392px;font-family:sans-serif;-inkscape-font-specification:'sans-serif, Normal';font-variant-ligatures:normal;font-variant-caps:normal;font-variant-numeric:normal;font-variant-east-asian:normal;stroke-width:1.46743">Current</tspan></text><text
         xml:space="preserve"
         style="font-style:normal;font-variant:normal;font-weight:normal;font-stretch:normal;font-size:27.392px;line-height:1.25;font-family:sans-serif;-inkscape-font-specification:'sans-serif, Normal';font-variant-ligatures:normal;font-variant-caps:normal;font-variant-numeric:normal;font-variant-east-asian:normal;stroke-width:1.46743"
         x="512.79425"
         y="220.18407"
         id="text7400-4"><tspan
           sodipodi:role="line"
           id="tspan7398-4"
           x="512.79425"
           y="220.18407"
           style="font-style:normal;font-variant:normal;font-weight:normal;font-stretch:normal;font-size:27.392px;font-family:sans-serif;-inkscape-font-specification:'sans-serif, Normal';font-variant-ligatures:normal;font-variant-caps:normal;font-variant-numeric:normal;font-variant-east-asian:normal;stroke-width:1.46743">1</tspan></text><text
         id="text7400-4-4"
         y="314.86871"
         x="510.50906"
         style="font-style:normal;font-variant:normal;font-weight:normal;font-stretch:normal;font-size:27.392px;line-height:1.25;font-family:sans-serif;-inkscape-font-specification:'sans-serif, Normal';font-variant-ligatures:normal;font-variant-caps:normal;font-variant-numeric:normal;font-variant-east-asian:normal;stroke-width:1.46743"
         xml:space="preserve"><tspan
           style="font-style:normal;font-variant:normal;font-weight:normal;font-stretch:normal;font-size:27.392px;font-family:sans-serif;-inkscape-font-specification:'sans-serif, Normal';font-variant-ligatures:normal;font-variant-caps:normal;font-variant-numeric:normal;font-variant-east-asian:normal;stroke-width:1.46743"
           y="314.86871"
           x="510.50906"
           id="tspan7398-4-4"
           sodipodi:role="line">6</tspan></text><text
         id="text7400-4-5"
         y="142.93297"
         x="511.75232"
         style="font-style:normal;font-variant:normal;font-weight:normal;font-stretch:normal;font-size:27.392px;line-height:1.25;font-family:sans-serif;-inkscape-font-specification:'sans-serif, Normal';font-variant-ligatures:normal;font-variant-caps:normal;font-variant-numeric:normal;font-variant-east-asian:normal;stroke-width:1.46743"
         xml:space="preserve"><tspan
           style="font-style:normal;font-variant:normal;font-weight:normal;font-stretch:normal;font-size:27.392px;font-family:sans-serif;-inkscape-font-specification:'sans-serif, Normal';font-variant-ligatures:normal;font-variant-caps:normal;font-variant-numeric:normal;font-variant-east-asian:normal;stroke-width:1.46743"
           y="142.93297"
           x="511.75232"
           id="tspan7398-4-9"
           sodipodi:role="line">3</tspan></text></g></g></svg>
