<?xml version="1.0" encoding="UTF-8" standalone="no"?>
<svg
   xmlns:dc="http://purl.org/dc/elements/1.1/"
   xmlns:cc="http://creativecommons.org/ns#"
   xmlns:rdf="http://www.w3.org/1999/02/22-rdf-syntax-ns#"
   xmlns:svg="http://www.w3.org/2000/svg"
   xmlns="http://www.w3.org/2000/svg"
   xmlns:xlink="http://www.w3.org/1999/xlink"
   xmlns:sodipodi="http://sodipodi.sourceforge.net/DTD/sodipodi-0.dtd"
   xmlns:inkscape="http://www.inkscape.org/namespaces/inkscape"
   sodipodi:docname="jablonski.svg"
   inkscape:version="1.0 (4035a4fb49, 2020-05-01)"
   id="svg8"
   version="1.1"
   viewBox="0 0 77.652359 53.487488"
   height="53.487488mm"
   width="77.652359mm">
  <defs
     id="defs2">
    <marker
       inkscape:isstock="true"
       style="overflow:visible"
       id="StopL"
       refX="0"
       refY="0"
       orient="auto"
       inkscape:stockid="StopL">
      <path
         transform="scale(0.8)"
         style="fill:none;fill-opacity:0.75;fill-rule:evenodd;stroke:#000000;stroke-width:1pt;stroke-opacity:1"
         d="M 0,5.65 V -5.65"
         id="path2360" />
    </marker>
    <marker
       inkscape:isstock="true"
       style="overflow:visible"
       id="marker2133"
       refX="0"
       refY="0"
       orient="auto"
       inkscape:stockid="Arrow2Mend">
      <path
         transform="scale(-0.6)"
         d="M 8.7185878,4.0337352 -2.2072895,0.01601326 8.7185884,-4.0017078 c -1.7454984,2.3720609 -1.7354408,5.6174519 -6e-7,8.035443 z"
         style="fill:#000000;fill-opacity:1;fill-rule:evenodd;stroke:#000000;stroke-width:0.625;stroke-linejoin:round;stroke-opacity:1"
         id="path2131" />
    </marker>
    <marker
       inkscape:stockid="Arrow2Mend"
       orient="auto"
       refY="0"
       refX="0"
       id="marker29223"
       style="overflow:visible"
       inkscape:isstock="true">
      <path
         id="path29221"
         style="fill:#b0b0b0;fill-opacity:1;fill-rule:evenodd;stroke:#b0b0b0;stroke-width:0.625;stroke-linejoin:round;stroke-opacity:1"
         d="M 8.7185878,4.0337352 -2.2072895,0.01601326 8.7185884,-4.0017078 c -1.7454984,2.3720609 -1.7354408,5.6174519 -6e-7,8.035443 z"
         transform="scale(-0.6)" />
    </marker>
    <inkscape:path-effect
       effect="powerstroke"
       id="path-effect29021"
       is_visible="true"
       lpeversion="1"
       offset_points="4,0.1322915"
       sort_points="true"
       interpolator_type="CubicBezierJohan"
       interpolator_beta="0.2"
       start_linecap_type="zerowidth"
       linejoin_type="extrp_arc"
       miter_limit="4"
       scale_width="1"
       end_linecap_type="zerowidth" />
    <marker
       inkscape:collect="always"
       inkscape:stockid="Arrow2Mend"
       orient="auto"
       refY="0"
       refX="0"
       id="marker28437"
       style="overflow:visible"
       inkscape:isstock="true">
      <path
         id="path28435"
         style="fill:#575757;fill-opacity:1;fill-rule:evenodd;stroke:#575757;stroke-width:0.625;stroke-linejoin:round;stroke-opacity:1"
         d="M 8.7185878,4.0337352 -2.2072895,0.01601326 8.7185884,-4.0017078 c -1.7454984,2.3720609 -1.7354408,5.6174519 -6e-7,8.035443 z"
         transform="scale(-0.6)" />
    </marker>
    <marker
       inkscape:stockid="Arrow2Mend"
       orient="auto"
       refY="0"
       refX="0"
       id="Arrow2Mend"
       style="overflow:visible"
       inkscape:isstock="true">
      <path
         id="path26144"
         style="fill:#ec9072;fill-opacity:1;fill-rule:evenodd;stroke:#ec9072;stroke-width:0.625;stroke-linejoin:round;stroke-opacity:1"
         d="M 8.7185878,4.0337352 -2.2072895,0.01601326 8.7185884,-4.0017078 c -1.7454984,2.3720609 -1.7354408,5.6174519 -6e-7,8.035443 z"
         transform="scale(-0.6)" />
    </marker>
    <marker
       inkscape:stockid="Arrow2Lend"
       orient="auto"
       refY="0"
       refX="0"
       id="marker27493"
       style="overflow:visible"
       inkscape:isstock="true">
      <path
         id="path27491"
         style="fill:#000000;fill-opacity:1;fill-rule:evenodd;stroke:#000000;stroke-width:0.625;stroke-linejoin:round;stroke-opacity:1"
         d="M 8.7185878,4.0337352 -2.2072895,0.01601326 8.7185884,-4.0017078 c -1.7454984,2.3720609 -1.7354408,5.6174519 -6e-7,8.035443 z"
         transform="matrix(-1.1,0,0,-1.1,-1.1,0)" />
    </marker>
    <marker
       inkscape:stockid="Arrow2Lend"
       orient="auto"
       refY="0"
       refX="0"
       id="Arrow2Lend"
       style="overflow:visible"
       inkscape:isstock="true">
      <path
         id="path26138"
         style="fill:#000000;fill-opacity:1;fill-rule:evenodd;stroke:#000000;stroke-width:0.625;stroke-linejoin:round;stroke-opacity:1"
         d="M 8.7185878,4.0337352 -2.2072895,0.01601326 8.7185884,-4.0017078 c -1.7454984,2.3720609 -1.7354408,5.6174519 -6e-7,8.035443 z"
         transform="matrix(-1.1,0,0,-1.1,-1.1,0)" />
    </marker>
    <marker
       inkscape:isstock="true"
       style="overflow:visible"
       id="marker28437-6"
       refX="0"
       refY="0"
       orient="auto"
       inkscape:stockid="Arrow2Mend">
      <path
         transform="scale(-0.6)"
         d="M 8.7185878,4.0337352 -2.2072895,0.01601326 8.7185884,-4.0017078 c -1.7454984,2.3720609 -1.7354408,5.6174519 -6e-7,8.035443 z"
         style="fill:#575757;fill-opacity:1;fill-rule:evenodd;stroke:#575757;stroke-width:0.625;stroke-linejoin:round;stroke-opacity:1"
         id="path28435-7" />
    </marker>
    <g
       id="g6621">
      <symbol
         overflow="visible"
         id="symbol3948">
        <path
           style="stroke:none"
           d=""
           id="path6644" />
      </symbol>
      <symbol
         overflow="visible"
         id="symbol7323">
        <path
           style="stroke:none"
           d="m 6.4375,-6.921875 c 0,-0.03125 -0.03125,-0.109375 -0.125,-0.109375 -0.046875,0 -0.046875,0.015625 -0.171875,0.15625 L 5.65625,-6.3125 c -0.25,-0.46875 -0.765625,-0.71875 -1.421875,-0.71875 -1.265625,0 -2.453125,1.15625 -2.453125,2.359375 0,0.796875 0.515625,1.265625 1.03125,1.40625 l 1.0625,0.28125 c 0.375,0.09375 0.921875,0.25 0.921875,1.0625 0,0.890625 -0.8125,1.828125 -1.796875,1.828125 -0.640625,0 -1.75,-0.21875 -1.75,-1.453125 0,-0.234375 0.0625,-0.484375 0.0625,-0.53125 0.015625,-0.046875 0.015625,-0.0625 0.015625,-0.078125 0,-0.09375 -0.0625,-0.109375 -0.109375,-0.109375 -0.046875,0 -0.078125,0.015625 -0.109375,0.046875 -0.03125,0.03125 -0.59375,2.3125 -0.59375,2.34375 0,0.046875 0.046875,0.09375 0.109375,0.09375 0.046875,0 0.0625,-0.015625 0.1875,-0.15625 L 1.296875,-0.5 c 0.421875,0.578125 1.109375,0.71875 1.6875,0.71875 1.359375,0 2.53125,-1.328125 2.53125,-2.5625 0,-0.6875 -0.34375,-1.03125 -0.484375,-1.171875 C 4.796875,-3.734375 4.640625,-3.78125 3.765625,-4 3.53125,-4.0625 3.1875,-4.171875 3.09375,-4.1875 2.828125,-4.28125 2.484375,-4.5625 2.484375,-5.09375 c 0,-0.8125 0.796875,-1.65625 1.75,-1.65625 0.8125,0 1.421875,0.4375 1.421875,1.546875 0,0.3125 -0.03125,0.5 -0.03125,0.5625 0,0 0,0.09375 0.109375,0.09375 0.109375,0 0.125,-0.03125 0.15625,-0.203125 z m 0,0"
           id="path4254" />
      </symbol>
      <symbol
         overflow="visible"
         id="symbol7261">
        <path
           style="stroke:none"
           d=""
           id="path4527" />
      </symbol>
      <symbol
         overflow="visible"
         id="symbol7253">
        <path
           style="stroke:none"
           d="m 2.328125,-4.4375 c 0,-0.1875 0,-0.1875 -0.203125,-0.1875 -0.453125,0.4375 -1.078125,0.4375 -1.359375,0.4375 v 0.25 c 0.15625,0 0.625,0 1,-0.1875 v 3.546875 c 0,0.234375 0,0.328125 -0.6875,0.328125 H 0.8125 V 0 c 0.125,0 0.984375,-0.03125 1.234375,-0.03125 0.21875,0 1.09375,0.03125 1.25,0.03125 V -0.25 H 3.03125 c -0.703125,0 -0.703125,-0.09375 -0.703125,-0.328125 z m 0,0"
           id="path4522" />
      </symbol>
    </g>
    <g
       id="g2864">
      <symbol
         overflow="visible"
         id="symbol3724">
        <path
           style="stroke:none"
           d=""
           id="path8110" />
      </symbol>
      <symbol
         overflow="visible"
         id="symbol2823">
        <path
           style="stroke:none"
           d="m 6.4375,-6.921875 c 0,-0.03125 -0.03125,-0.109375 -0.125,-0.109375 -0.046875,0 -0.046875,0.015625 -0.171875,0.15625 L 5.65625,-6.3125 c -0.25,-0.46875 -0.765625,-0.71875 -1.421875,-0.71875 -1.265625,0 -2.453125,1.15625 -2.453125,2.359375 0,0.796875 0.515625,1.265625 1.03125,1.40625 l 1.0625,0.28125 c 0.375,0.09375 0.921875,0.25 0.921875,1.0625 0,0.890625 -0.8125,1.828125 -1.796875,1.828125 -0.640625,0 -1.75,-0.21875 -1.75,-1.453125 0,-0.234375 0.0625,-0.484375 0.0625,-0.53125 0.015625,-0.046875 0.015625,-0.0625 0.015625,-0.078125 0,-0.09375 -0.0625,-0.109375 -0.109375,-0.109375 -0.046875,0 -0.078125,0.015625 -0.109375,0.046875 -0.03125,0.03125 -0.59375,2.3125 -0.59375,2.34375 0,0.046875 0.046875,0.09375 0.109375,0.09375 0.046875,0 0.0625,-0.015625 0.1875,-0.15625 L 1.296875,-0.5 c 0.421875,0.578125 1.109375,0.71875 1.6875,0.71875 1.359375,0 2.53125,-1.328125 2.53125,-2.5625 0,-0.6875 -0.34375,-1.03125 -0.484375,-1.171875 C 4.796875,-3.734375 4.640625,-3.78125 3.765625,-4 3.53125,-4.0625 3.1875,-4.171875 3.09375,-4.1875 2.828125,-4.28125 2.484375,-4.5625 2.484375,-5.09375 c 0,-0.8125 0.796875,-1.65625 1.75,-1.65625 0.8125,0 1.421875,0.4375 1.421875,1.546875 0,0.3125 -0.03125,0.5 -0.03125,0.5625 0,0 0,0.09375 0.109375,0.09375 0.109375,0 0.125,-0.03125 0.15625,-0.203125 z m 0,0"
           id="path1976" />
      </symbol>
      <symbol
         overflow="visible"
         id="symbol1803">
        <path
           style="stroke:none"
           d=""
           id="path1752" />
      </symbol>
      <symbol
         overflow="visible"
         id="symbol6389">
        <path
           style="stroke:none"
           d="M 3.515625,-1.265625 H 3.28125 c -0.015625,0.15625 -0.09375,0.5625 -0.1875,0.625 C 3.046875,-0.59375 2.515625,-0.59375 2.40625,-0.59375 H 1.125 c 0.734375,-0.640625 0.984375,-0.84375 1.390625,-1.171875 0.515625,-0.40625 1,-0.84375 1,-1.5 0,-0.84375 -0.734375,-1.359375 -1.625,-1.359375 -0.859375,0 -1.453125,0.609375 -1.453125,1.25 0,0.34375 0.296875,0.390625 0.375,0.390625 0.15625,0 0.359375,-0.125 0.359375,-0.375 0,-0.125 -0.046875,-0.375 -0.40625,-0.375 C 0.984375,-4.21875 1.453125,-4.375 1.78125,-4.375 c 0.703125,0 1.0625,0.546875 1.0625,1.109375 0,0.609375 -0.4375,1.078125 -0.65625,1.328125 L 0.515625,-0.265625 C 0.4375,-0.203125 0.4375,-0.1875 0.4375,0 h 2.875 z m 0,0"
           id="path1654" />
      </symbol>
    </g>
    <g
       id="g9163">
      <symbol
         overflow="visible"
         id="symbol130">
        <path
           style="stroke:none"
           d=""
           id="path3560" />
      </symbol>
      <symbol
         overflow="visible"
         id="symbol1383">
        <path
           style="stroke:none"
           d="m 6.4375,-6.921875 c 0,-0.03125 -0.03125,-0.109375 -0.125,-0.109375 -0.046875,0 -0.046875,0.015625 -0.171875,0.15625 L 5.65625,-6.3125 c -0.25,-0.46875 -0.765625,-0.71875 -1.421875,-0.71875 -1.265625,0 -2.453125,1.15625 -2.453125,2.359375 0,0.796875 0.515625,1.265625 1.03125,1.40625 l 1.0625,0.28125 c 0.375,0.09375 0.921875,0.25 0.921875,1.0625 0,0.890625 -0.8125,1.828125 -1.796875,1.828125 -0.640625,0 -1.75,-0.21875 -1.75,-1.453125 0,-0.234375 0.0625,-0.484375 0.0625,-0.53125 0.015625,-0.046875 0.015625,-0.0625 0.015625,-0.078125 0,-0.09375 -0.0625,-0.109375 -0.109375,-0.109375 -0.046875,0 -0.078125,0.015625 -0.109375,0.046875 -0.03125,0.03125 -0.59375,2.3125 -0.59375,2.34375 0,0.046875 0.046875,0.09375 0.109375,0.09375 0.046875,0 0.0625,-0.015625 0.1875,-0.15625 L 1.296875,-0.5 c 0.421875,0.578125 1.109375,0.71875 1.6875,0.71875 1.359375,0 2.53125,-1.328125 2.53125,-2.5625 0,-0.6875 -0.34375,-1.03125 -0.484375,-1.171875 C 4.796875,-3.734375 4.640625,-3.78125 3.765625,-4 3.53125,-4.0625 3.1875,-4.171875 3.09375,-4.1875 2.828125,-4.28125 2.484375,-4.5625 2.484375,-5.09375 c 0,-0.8125 0.796875,-1.65625 1.75,-1.65625 0.8125,0 1.421875,0.4375 1.421875,1.546875 0,0.3125 -0.03125,0.5 -0.03125,0.5625 0,0 0,0.09375 0.109375,0.09375 0.109375,0 0.125,-0.03125 0.15625,-0.203125 z m 0,0"
           id="path6307" />
      </symbol>
      <symbol
         overflow="visible"
         id="symbol233">
        <path
           style="stroke:none"
           d=""
           id="path3868" />
      </symbol>
      <symbol
         overflow="visible"
         id="symbol3388">
        <path
           style="stroke:none"
           d="M 3.59375,-2.21875 C 3.59375,-2.984375 3.5,-3.546875 3.1875,-4.03125 2.96875,-4.34375 2.53125,-4.625 1.984375,-4.625 c -1.625,0 -1.625,1.90625 -1.625,2.40625 0,0.5 0,2.359375 1.625,2.359375 1.609375,0 1.609375,-1.859375 1.609375,-2.359375 z M 1.984375,-0.0625 c -0.328125,0 -0.75,-0.1875 -0.890625,-0.75 C 1,-1.21875 1,-1.796875 1,-2.3125 1,-2.828125 1,-3.359375 1.09375,-3.734375 1.25,-4.28125 1.6875,-4.4375 1.984375,-4.4375 c 0.375,0 0.734375,0.234375 0.859375,0.640625 0.109375,0.375 0.125,0.875 0.125,1.484375 0,0.515625 0,1.03125 -0.09375,1.46875 -0.140625,0.640625 -0.609375,0.78125 -0.890625,0.78125 z m 0,0"
           id="path7209" />
      </symbol>
    </g>
    <g
       id="g3398">
      <symbol
         overflow="visible"
         id="symbol8289">
        <path
           style="stroke:none"
           d=""
           id="path1840" />
      </symbol>
      <symbol
         overflow="visible"
         id="symbol7453">
        <path
           style="stroke:none"
           d="m 4.25,-6.046875 c 0.078125,-0.28125 0.109375,-0.34375 0.234375,-0.375 0.09375,-0.015625 0.421875,-0.015625 0.625,-0.015625 1.015625,0 1.453125,0.03125 1.453125,0.8125 0,0.15625 -0.03125,0.546875 -0.078125,0.796875 0,0.046875 -0.03125,0.15625 -0.03125,0.1875 0,0.0625 0.03125,0.140625 0.125,0.140625 0.109375,0 0.125,-0.078125 0.15625,-0.234375 L 7,-6.46875 C 7.015625,-6.515625 7.015625,-6.609375 7.015625,-6.640625 7.015625,-6.75 6.921875,-6.75 6.75,-6.75 H 1.21875 c -0.234375,0 -0.25,0.015625 -0.328125,0.203125 l -0.59375,1.75 c 0,0.015625 -0.0625,0.15625 -0.0625,0.1875 0,0.046875 0.0625,0.109375 0.125,0.109375 0.09375,0 0.109375,-0.0625 0.171875,-0.21875 C 1.0625,-6.265625 1.328125,-6.4375 2.796875,-6.4375 H 3.1875 c 0.28125,0 0.28125,0.03125 0.28125,0.125 0,0.046875 -0.03125,0.171875 -0.046875,0.203125 L 2.09375,-0.78125 C 2,-0.421875 1.96875,-0.3125 0.90625,-0.3125 c -0.359375,0 -0.421875,0 -0.421875,0.1875 C 0.484375,0 0.59375,0 0.65625,0 c 0.265625,0 0.546875,-0.015625 0.8125,-0.015625 0.28125,0 0.578125,-0.015625 0.859375,-0.015625 0.28125,0 0.546875,0.015625 0.828125,0.015625 C 3.4375,-0.015625 3.734375,0 4.015625,0 c 0.09375,0 0.21875,0 0.21875,-0.203125 0,-0.109375 -0.078125,-0.109375 -0.34375,-0.109375 -0.234375,0 -0.375,0 -0.625,-0.015625 -0.296875,-0.03125 -0.375,-0.0625 -0.375,-0.21875 0,-0.015625 0,-0.0625 0.046875,-0.203125 z m 0,0"
           id="path9994" />
      </symbol>
      <symbol
         overflow="visible"
         id="symbol6303">
        <path
           style="stroke:none"
           d=""
           id="path706" />
      </symbol>
      <symbol
         overflow="visible"
         id="symbol54">
        <path
           style="stroke:none"
           d="m 2.328125,-4.4375 c 0,-0.1875 0,-0.1875 -0.203125,-0.1875 -0.453125,0.4375 -1.078125,0.4375 -1.359375,0.4375 v 0.25 c 0.15625,0 0.625,0 1,-0.1875 v 3.546875 c 0,0.234375 0,0.328125 -0.6875,0.328125 H 0.8125 V 0 c 0.125,0 0.984375,-0.03125 1.234375,-0.03125 0.21875,0 1.09375,0.03125 1.25,0.03125 V -0.25 H 3.03125 c -0.703125,0 -0.703125,-0.09375 -0.703125,-0.328125 z m 0,0"
           id="path3440" />
      </symbol>
    </g>
  </defs>
  <sodipodi:namedview
     inkscape:window-maximized="1"
     inkscape:window-y="-8"
     inkscape:window-x="1912"
     inkscape:window-height="1057"
     inkscape:window-width="1855"
     showgrid="false"
     inkscape:document-rotation="0"
     inkscape:current-layer="layer1-8"
     inkscape:document-units="mm"
     inkscape:cy="123.14353"
     inkscape:cx="124.88384"
     inkscape:zoom="2.8"
     inkscape:pageshadow="2"
     inkscape:pageopacity="0.0"
     borderopacity="1.0"
     bordercolor="#666666"
     pagecolor="#ffffff"
     id="base" />
  <metadata
     id="metadata5">
    <rdf:RDF>
      <cc:Work
         rdf:about="">
        <dc:format>image/svg+xml</dc:format>
        <dc:type
           rdf:resource="http://purl.org/dc/dcmitype/StillImage" />
        <dc:title />
      </cc:Work>
    </rdf:RDF>
  </metadata>
  <g
     transform="translate(-32.110455,-133.34624)"
     id="layer1"
     inkscape:groupmode="layer"
     inkscape:label="Layer 1">
    <g
       transform="translate(24.491494,87.206922)"
       inkscape:label="Layer 1"
       id="layer1-8">
      <path
         style="fill:none;stroke:#000000;stroke-width:0.512454;stroke-linecap:butt;stroke-linejoin:miter;stroke-miterlimit:4;stroke-dasharray:none;stroke-opacity:1"
         d="M 16.570711,98.622455 H 40.161506"
         id="path27284" />
      <path
         style="fill:none;stroke:#000000;stroke-width:0.375992;stroke-linecap:butt;stroke-linejoin:miter;stroke-miterlimit:4;stroke-dasharray:none;stroke-opacity:1"
         d="M 58.536102,98.622455 H 71.235619"
         id="path27284-6-8" />
      <path
         id="path27284-2"
         d="M 16.570711,94.918289 H 40.161506"
         style="fill:none;stroke:#000000;stroke-width:0.170818;stroke-linecap:butt;stroke-linejoin:miter;stroke-miterlimit:4;stroke-dasharray:none;stroke-opacity:1" />
      <path
         style="fill:none;stroke:#000000;stroke-width:0.170818;stroke-linecap:butt;stroke-linejoin:miter;stroke-miterlimit:4;stroke-dasharray:none;stroke-opacity:1"
         d="M 16.570711,91.74329 H 40.161506"
         id="path27284-2-9" />
      <path
         id="path27284-2-9-0"
         d="M 16.570711,89.097458 H 40.161506"
         style="fill:none;stroke:#000000;stroke-width:0.170818;stroke-linecap:butt;stroke-linejoin:miter;stroke-miterlimit:4;stroke-dasharray:none;stroke-opacity:1" />
      <path
         id="path27284-2-90-0"
         d="M 58.536106,94.918286 H 71.235619"
         style="fill:none;stroke:#000000;stroke-width:0.12533;stroke-linecap:butt;stroke-linejoin:miter;stroke-miterlimit:4;stroke-dasharray:none;stroke-opacity:1" />
      <path
         style="fill:none;stroke:#000000;stroke-width:0.12533;stroke-linecap:butt;stroke-linejoin:miter;stroke-miterlimit:4;stroke-dasharray:none;stroke-opacity:1"
         d="M 58.536106,91.743287 H 71.235619"
         id="path27284-2-9-2-8" />
      <path
         id="path27284-2-9-0-7-7"
         d="M 58.536106,89.097455 H 71.235619"
         style="fill:none;stroke:#000000;stroke-width:0.12533;stroke-linecap:butt;stroke-linejoin:miter;stroke-miterlimit:4;stroke-dasharray:none;stroke-opacity:1" />
      <path
         id="path27284-3"
         d="M 16.570711,61.580786 H 40.161506"
         style="fill:none;stroke:#000000;stroke-width:0.512455;stroke-linecap:butt;stroke-linejoin:miter;stroke-miterlimit:4;stroke-dasharray:none;stroke-opacity:1" />
      <path
         style="fill:none;stroke:#000000;stroke-width:0.170818;stroke-linecap:butt;stroke-linejoin:miter;stroke-miterlimit:4;stroke-dasharray:none;stroke-opacity:1"
         d="M 16.570711,57.876618 H 40.161506"
         id="path27284-2-5" />
      <path
         id="path27284-2-9-7"
         d="M 16.570711,54.701619 H 40.161506"
         style="fill:none;stroke:#000000;stroke-width:0.170818;stroke-linecap:butt;stroke-linejoin:miter;stroke-miterlimit:4;stroke-dasharray:none;stroke-opacity:1" />
      <path
         style="fill:none;stroke:#000000;stroke-width:0.170818;stroke-linecap:butt;stroke-linejoin:miter;stroke-miterlimit:4;stroke-dasharray:none;stroke-opacity:1"
         d="M 16.570711,52.055787 H 40.161506"
         id="path27284-2-9-0-4" />
      <path
         style="fill:none;stroke:#000000;stroke-width:0.512455;stroke-linecap:butt;stroke-linejoin:miter;stroke-miterlimit:4;stroke-dasharray:none;stroke-opacity:1"
         d="M 16.570711,66.343282 H 40.161506"
         id="path27284-3-5" />
      <path
         id="path27284-2-5-1"
         d="M 16.570711,62.639114 H 40.161506"
         style="fill:none;stroke:#000000;stroke-width:0.170818;stroke-linecap:butt;stroke-linejoin:miter;stroke-miterlimit:4;stroke-dasharray:none;stroke-opacity:1" />
      <path
         id="path27284-3-5-1"
         d="M 58.536106,77.455787 H 71.235619"
         style="fill:none;stroke:#000000;stroke-width:0.375992;stroke-linecap:butt;stroke-linejoin:miter;stroke-miterlimit:4;stroke-dasharray:none;stroke-opacity:1" />
      <path
         style="fill:none;stroke:#000000;stroke-width:0.12533;stroke-linecap:butt;stroke-linejoin:miter;stroke-miterlimit:4;stroke-dasharray:none;stroke-opacity:1"
         d="M 58.536106,73.751617 H 71.235619"
         id="path27284-2-5-1-6" />
      <path
         id="path27284-2-9-7-4-2"
         d="M 58.536106,70.576618 H 71.235619"
         style="fill:none;stroke:#000000;stroke-width:0.12533;stroke-linecap:butt;stroke-linejoin:miter;stroke-miterlimit:4;stroke-dasharray:none;stroke-opacity:1" />
      <path
         style="fill:none;stroke:#000000;stroke-width:0.12533;stroke-linecap:butt;stroke-linejoin:miter;stroke-miterlimit:4;stroke-dasharray:none;stroke-opacity:1"
         d="M 58.536106,67.930786 H 71.235619"
         id="path27284-2-9-0-4-9-5" />
      <path
         style="fill:#ec9072;stroke:#ec9072;stroke-width:0.460533;stroke-linecap:butt;stroke-linejoin:miter;stroke-miterlimit:4;stroke-dasharray:none;stroke-opacity:1;marker-end:url(#Arrow2Mend)"
         d="M 27.686756,98.356838 V 55.503402"
         id="path27475" />
      <path
         style="fill:#575757;fill-opacity:1;stroke:#575757;stroke-width:0.451437;stroke-linecap:butt;stroke-linejoin:miter;stroke-miterlimit:4;stroke-dasharray:0.902875, 0.902875;stroke-dashoffset:0;stroke-opacity:1;marker-end:url(#marker28437)"
         d="M 34.231988,54.781749 V 65.402414"
         id="path28433" />
      <path
         id="path29096"
         title="t sin(5*t)"
         d="m 34.126856,66.437653 c 0.197286,0.273066 0.393273,0.546135 0.530064,0.819272 0.13669,0.273067 0.212085,0.546135 0.204286,0.819272 -0.0079,0.273068 -0.09939,0.546206 -0.246983,0.819273 -0.14769,0.273067 -0.349776,0.546206 -0.546563,0.819273 -0.196686,0.273067 -0.385274,0.546205 -0.510065,0.819272 -0.124891,0.273138 -0.184087,0.546205 -0.160389,0.819273 0.0238,0.273138 0.130391,0.546204 0.28808,0.819272 0.157789,0.273138 0.364675,0.546205 0.559462,0.819343 0.194787,0.273067 0.374774,0.546134 0.486967,0.819273 0.112092,0.273066 0.154589,0.546134 0.115192,0.819273 -0.0394,0.273066 -0.160489,0.546204 -0.327278,0.819272 -0.166689,0.273067 -0.377074,0.546205 -0.568661,0.819271 -0.191687,0.273068 -0.361875,0.546206 -0.460568,0.819273 -0.09879,0.272855 -0.124292,0.546134 -0.0695,0.819415 0.0548,0.27328 0.189687,0.54585 0.364375,0.81913 0.174688,0.273279 0.387074,0.546559 0.574261,0.819132 0.187287,0.273279 0.346576,0.546559 0.43127,0.819129 0.0847,0.27328 0.09309,0.54656 0.0232,0.819839 -0.0699,0.272573 -0.217585,0.545852 -0.399073,0.819131 -0.181587,0.27328 -0.394573,0.545852 -0.57616,0.819132 -0.181588,0.27328 -0.329078,0.546559 -0.399073,0.81913 -0.0701,0.273279 -0.0614,0.546559 0.0232,0.819839 0.08449,0.272572 0.244083,0.545852 0.43117,0.819131 0.187187,0.272571 0.399573,0.545851 0.574261,0.81913 0.174788,0.27328 0.309478,0.545852 0.364475,0.819131 0.0549,0.27328 0.0291,0.546559 -0.0695,0.819132 -0.09859,0.273279 -0.268981,0.546559 -0.460568,0.819839 -0.191587,0.27257 -0.401873,0.54585 -0.568661,0.81913 -0.166889,0.273279 -0.28778,0.545852 -0.327378,0.819131 -0.0395,0.273284 0.0033,0.54585 0.115292,0.819131 0.111993,0.27328 0.29218,0.54656 0.486967,0.819126 0.194787,0.27328 0.401573,0.54656 0.559362,0.81984 0.157789,0.272576 0.264182,0.545856 0.28808,0.819136 0.0239,0.273279 -0.0355,0.545846 -0.160289,0.819126 -0.124691,0.273279 -0.313479,0.546559 -0.510165,0.819136 -0.196687,0.273279 -0.398673,0.546559 -0.546463,0.819839 -0.147789,0.272567 -0.238983,0.545847 -0.246983,0.819127 -0.008,0.272575 0.0676,0.545855 0.204286,0.819135"
         style="fill:none;fill-opacity:1;stroke:#464cd9;stroke-width:0.233;stroke-miterlimit:4;stroke-dasharray:none;stroke-dashoffset:0;stroke-opacity:1;stop-color:#000000"
         inkscape:transform-center-x="-23.584916"
         inkscape:transform-center-y="-24.436057"
         sodipodi:nodetypes="ccccccccccscccssccccscccccccccsccsccccc" />
      <path
         inkscape:transform-center-y="-24.182891"
         inkscape:transform-center-x="-23.584916"
         style="fill:none;fill-opacity:1;stroke:#72b1ec;stroke-width:0.23179;stroke-miterlimit:4;stroke-dasharray:none;stroke-dashoffset:0;stroke-opacity:1;stop-color:#000000"
         d="m 64.535341,77.502375 c -0.09879,0.270028 -0.124292,0.540476 -0.0695,0.810925 0.0548,0.270449 0.189687,0.540195 0.364375,0.810644 0.174688,0.270448 0.387074,0.540896 0.574261,0.810645 0.187287,0.270448 0.346576,0.540897 0.43127,0.810643 0.0847,0.270449 0.09309,0.540897 0.0232,0.811345 -0.0699,0.269749 -0.217585,0.540197 -0.399073,0.810645 -0.181587,0.270448 -0.394573,0.540196 -0.57616,0.810645 -0.181588,0.270449 -0.329078,0.540897 -0.399073,0.810644 -0.0701,0.270447 -0.0614,0.540896 0.0232,0.811345 0.08449,0.269748 0.244083,0.540197 0.43117,0.810644 0.187187,0.269747 0.399573,0.540196 0.574261,0.810644 0.174788,0.270449 0.309478,0.540197 0.364475,0.810644 0.0549,0.270449 0.0291,0.540897 -0.0695,0.810646 -0.09859,0.270448 -0.268981,0.540896 -0.460568,0.811345 -0.191587,0.269746 -0.401873,0.540195 -0.568661,0.810644 -0.166889,0.270447 -0.28778,0.540196 -0.327378,0.810644 -0.0395,0.270453 0.0033,0.540195 0.115292,0.810645 0.111993,0.270448 0.29218,0.540897 0.486967,0.810639 0.194787,0.270449 0.401573,0.540898 0.559362,0.811346 0.157789,0.269751 0.264182,0.540201 0.28808,0.81065 0.0239,0.270448 -0.0355,0.540191 -0.160289,0.810639 -0.124691,0.270447 -0.313479,0.540896 -0.510165,0.810651 -0.196687,0.270446 -0.398673,0.540895 -0.546463,0.811344 -0.147789,0.269742 -0.238983,0.540191 -0.246983,0.81064 -0.008,0.269752 0.0676,0.540201 0.204286,0.81065"
         title="t sin(5*t)"
         id="path29096-5"
         sodipodi:nodetypes="cssccccscccccccccsccscccsc" />
      <path
         id="path28433-2"
         d="m 64.535341,70.642232 v 6.132126"
         style="fill:#575757;fill-opacity:1;stroke:#575757;stroke-width:0.343026;stroke-linecap:butt;stroke-linejoin:miter;stroke-miterlimit:4;stroke-dasharray:0.686053, 0.686053;stroke-dashoffset:0;stroke-opacity:1;marker-end:url(#marker28437-6)" />
      <path
         style="fill:none;stroke:#b0b0b0;stroke-width:0.258006;stroke-linecap:butt;stroke-linejoin:miter;stroke-miterlimit:4;stroke-dasharray:0.516012, 0.516012;stroke-dashoffset:0;stroke-opacity:1;marker-end:url(#marker29223)"
         d="m 40.338554,64.601282 17.495927,4.804433"
         id="path29219" />
      <path
         sodipodi:type="star"
         style="fill:#464cd9;fill-opacity:1;fill-rule:evenodd;stroke:#464cd9;stroke-width:0.265;stroke-linecap:square;stroke-linejoin:round;stroke-miterlimit:4;stroke-dasharray:none;stroke-dashoffset:0;stroke-opacity:1;paint-order:normal;stop-color:#000000"
         id="path29273"
         sodipodi:sides="3"
         sodipodi:cx="49.912586"
         sodipodi:cy="56.861588"
         sodipodi:r1="2.5354848"
         sodipodi:r2="0.88548785"
         sodipodi:arg1="0.51735743"
         sodipodi:arg2="1.5456893"
         inkscape:flatsided="false"
         inkscape:rounded="0"
         inkscape:randomized="0"
         d="m 52.11625,58.115601 -2.181434,-0.368805 -2.210069,0.396214 1.410111,-1.704775 0.761903,-2.112083 0.771324,2.07358 z"
         inkscape:transform-center-y="0.35694731"
         transform="matrix(-0.41941173,0,0,-0.62848723,54.423308,132.54629)" />
      <path
         transform="matrix(-0.41941173,0,0,-0.62848723,85.547835,132.50918)"
         inkscape:transform-center-y="0.35694731"
         d="m 52.11625,58.115601 -2.181434,-0.368805 -2.210069,0.396214 1.410111,-1.704775 0.761903,-2.112083 0.771324,2.07358 z"
         inkscape:randomized="0"
         inkscape:rounded="0"
         inkscape:flatsided="false"
         sodipodi:arg2="1.5456893"
         sodipodi:arg1="0.51735743"
         sodipodi:r2="0.88548785"
         sodipodi:r1="2.5354848"
         sodipodi:cy="56.861588"
         sodipodi:cx="49.912586"
         sodipodi:sides="3"
         id="path29273-0"
         style="fill:#72b1ec;fill-opacity:1;fill-rule:evenodd;stroke:#72b1ec;stroke-width:0.265;stroke-linecap:square;stroke-linejoin:round;stroke-miterlimit:4;stroke-dasharray:none;stroke-dashoffset:0;stroke-opacity:1;paint-order:normal;stop-color:#000000"
         sodipodi:type="star" />
      <text
         xml:space="preserve"
         style="font-style:normal;font-variant:normal;font-weight:bold;font-stretch:normal;font-size:2.82222px;line-height:1.25;font-family:'CMU Sans Serif';-inkscape-font-specification:'CMU Sans Serif, Bold';font-variant-ligatures:normal;font-variant-caps:normal;font-variant-numeric:normal;font-variant-east-asian:normal;stroke-width:0.150057"
         x="15.746896"
         y="50.134212"
         id="text29292"><tspan
           sodipodi:role="line"
           id="tspan29290"
           x="15.746896"
           y="50.134212"
           style="font-style:normal;font-variant:normal;font-weight:bold;font-stretch:normal;font-size:2.82222px;font-family:'CMU Sans Serif';-inkscape-font-specification:'CMU Sans Serif, Bold';font-variant-ligatures:normal;font-variant-caps:normal;font-variant-numeric:normal;font-variant-east-asian:normal;stroke-width:0.150057">Singlet excited state</tspan></text>
      <text
         xml:space="preserve"
         style="font-style:normal;font-variant:normal;font-weight:bold;font-stretch:normal;font-size:2.82222px;line-height:1.25;font-family:'CMU Sans Serif';-inkscape-font-specification:'CMU Sans Serif, Bold';font-variant-ligatures:normal;font-variant-caps:normal;font-variant-numeric:normal;font-variant-east-asian:normal;stroke-width:0.144278"
         x="51.774803"
         y="66.500145"
         id="text29296"><tspan
           sodipodi:role="line"
           id="tspan29294"
           x="51.774803"
           y="66.500145"
           style="font-style:normal;font-variant:normal;font-weight:bold;font-stretch:normal;font-size:2.82222px;font-family:'CMU Sans Serif';-inkscape-font-specification:'CMU Sans Serif, Bold';font-variant-ligatures:normal;font-variant-caps:normal;font-variant-numeric:normal;font-variant-east-asian:normal;stroke-width:0.144278">Triplet excited state</tspan></text>
      <text
         id="text29296-4"
         y="99.564796"
         x="40.584087"
         style="font-style:normal;font-variant:normal;font-weight:bold;font-stretch:normal;font-size:2.82222px;line-height:1.25;font-family:'CMU Sans Serif';-inkscape-font-specification:'CMU Sans Serif, Bold';font-variant-ligatures:normal;font-variant-caps:normal;font-variant-numeric:normal;font-variant-east-asian:normal;stroke-width:0.144278"
         xml:space="preserve"><tspan
           style="font-style:normal;font-variant:normal;font-weight:bold;font-stretch:normal;font-size:2.82222px;font-family:'CMU Sans Serif';-inkscape-font-specification:'CMU Sans Serif, Bold';font-variant-ligatures:normal;font-variant-caps:normal;font-variant-numeric:normal;font-variant-east-asian:normal;stroke-width:0.144278"
           y="99.564796"
           x="40.584087"
           id="tspan29294-2"
           sodipodi:role="line">Ground state</tspan></text>
      <text
         id="text29296-1"
         y="73.106461"
         x="-5.2833271"
         style="font-style:normal;font-variant:normal;font-weight:normal;font-stretch:normal;font-size:2.82222px;line-height:1.25;font-family:'CMU Sans Serif';-inkscape-font-specification:'CMU Sans Serif, Normal';font-variant-ligatures:normal;font-variant-caps:normal;font-variant-numeric:normal;font-variant-east-asian:normal;stroke-width:0.144278"
         xml:space="preserve"><tspan
           style="font-style:normal;font-variant:normal;font-weight:normal;font-stretch:normal;font-size:2.82222px;font-family:'CMU Sans Serif';-inkscape-font-specification:'CMU Sans Serif, Normal';font-variant-ligatures:normal;font-variant-caps:normal;font-variant-numeric:normal;font-variant-east-asian:normal;stroke-width:0.144278"
           y="73.106461"
           x="-5.2833271"
           id="tspan29294-8"
           sodipodi:role="line" /></text>
      <g
         id="g29392"
         transform="matrix(0.36757684,0,0,0.36757684,-21.568742,36.486125)"
         inkscape:label="">
        <g
           id="g5458">
          <g
             style="fill:#000000;fill-opacity:1"
             id="g3094">
            <use
               xlink:href="#symbol7323"
               x="91.925003"
               y="81.962997"
               id="use5008"
               width="100%"
               height="100%" />
          </g>
          <g
             style="fill:#000000;fill-opacity:1"
             id="g7989">
            <use
               xlink:href="#symbol7253"
               x="98.033997"
               y="83.457001"
               id="use8380"
               width="100%"
               height="100%" />
          </g>
        </g>
      </g>
      <g
         id="g29490"
         transform="matrix(0.35683004,0,0,0.35683004,-20.433559,32.580608)"
         inkscape:label="">
        <g
           id="g1021">
          <g
             style="fill:#000000;fill-opacity:1"
             id="g3229">
            <use
               xlink:href="#symbol2823"
               x="91.925003"
               y="81.962997"
               id="use1542"
               width="100%"
               height="100%" />
          </g>
          <g
             style="fill:#000000;fill-opacity:1"
             id="g397">
            <use
               xlink:href="#symbol6389"
               x="98.033997"
               y="83.457001"
               id="use5137"
               width="100%"
               height="100%" />
          </g>
        </g>
      </g>
      <g
         id="g29603"
         transform="matrix(0.39099058,0,0,0.39099058,-23.498278,66.741967)"
         inkscape:label="">
        <g
           id="g421">
          <g
             style="fill:#000000;fill-opacity:1"
             id="g3565">
            <use
               xlink:href="#symbol1383"
               x="91.925003"
               y="81.962997"
               id="use2329"
               width="100%"
               height="100%" />
          </g>
          <g
             style="fill:#000000;fill-opacity:1"
             id="g5406">
            <use
               xlink:href="#symbol3388"
               x="98.033997"
               y="83.457001"
               id="use8095"
               width="100%"
               height="100%" />
          </g>
        </g>
      </g>
      <g
         id="g29731"
         transform="matrix(0.35653207,0,0,0.35653207,39.05043,48.275808)"
         inkscape:label="">
        <g
           id="g3457">
          <g
             style="fill:#000000;fill-opacity:1"
             id="g8954">
            <use
               xlink:href="#symbol7453"
               x="91.925003"
               y="81.962997"
               id="use6387"
               width="100%"
               height="100%" />
          </g>
          <g
             style="fill:#000000;fill-opacity:1"
             id="g6612">
            <use
               xlink:href="#symbol54"
               x="97.747002"
               y="83.457001"
               id="use1649"
               width="100%"
               height="100%" />
          </g>
        </g>
      </g>
      <text
         xml:space="preserve"
         style="font-style:normal;font-variant:normal;font-weight:normal;font-stretch:normal;font-size:2.82222px;line-height:1.25;font-family:'CMU Sans Serif';-inkscape-font-specification:'CMU Sans Serif, Normal';font-variant-ligatures:normal;font-variant-caps:normal;font-variant-numeric:normal;font-variant-east-asian:normal;stroke-width:0.264583"
         x="13.831197"
         y="77.040443"
         id="text29752"><tspan
           sodipodi:role="line"
           id="tspan29750"
           x="13.831197"
           y="77.040443"
           style="font-style:normal;font-variant:normal;font-weight:normal;font-stretch:normal;font-size:2.82222px;font-family:'CMU Sans Serif';-inkscape-font-specification:'CMU Sans Serif, Normal';font-variant-ligatures:normal;font-variant-caps:normal;font-variant-numeric:normal;font-variant-east-asian:normal;stroke-width:0.264583">Absorption</tspan></text>
      <text
         xml:space="preserve"
         style="font-style:normal;font-variant:normal;font-weight:normal;font-stretch:normal;font-size:2.82222px;line-height:1.25;font-family:'CMU Sans Serif';-inkscape-font-specification:'CMU Sans Serif, Normal';font-variant-ligatures:normal;font-variant-caps:normal;font-variant-numeric:normal;font-variant-east-asian:normal;stroke-width:0.264583"
         x="34.599129"
         y="84.779793"
         id="text29756"><tspan
           sodipodi:role="line"
           id="tspan29754"
           x="34.599129"
           y="84.779793"
           style="font-style:normal;font-variant:normal;font-weight:normal;font-stretch:normal;font-size:2.82222px;font-family:'CMU Sans Serif';-inkscape-font-specification:'CMU Sans Serif, Normal';font-variant-ligatures:normal;font-variant-caps:normal;font-variant-numeric:normal;font-variant-east-asian:normal;stroke-width:0.264583">Fluorescence</tspan></text>
      <text
         id="text1183"
         y="71.342628"
         x="40.782928"
         style="font-style:normal;font-variant:normal;font-weight:normal;font-stretch:normal;font-size:2.82222px;line-height:1.25;font-family:'CMU Sans Serif';-inkscape-font-specification:'CMU Sans Serif, Normal';font-variant-ligatures:normal;font-variant-caps:normal;font-variant-numeric:normal;font-variant-east-asian:normal;fill:#000000;fill-opacity:1;stroke:none;stroke-width:0.264583"
         xml:space="preserve"><tspan
           style="font-style:normal;font-variant:normal;font-weight:normal;font-stretch:normal;font-size:2.82222px;font-family:'CMU Sans Serif';-inkscape-font-specification:'CMU Sans Serif, Normal';font-variant-ligatures:normal;font-variant-caps:normal;font-variant-numeric:normal;font-variant-east-asian:normal;stroke-width:0.264583"
           y="71.342628"
           x="40.782928"
           id="tspan1181"
           sodipodi:role="line">Intersystem</tspan><tspan
           id="tspan1245"
           style="font-style:normal;font-variant:normal;font-weight:normal;font-stretch:normal;font-size:2.82222px;font-family:'CMU Sans Serif';-inkscape-font-specification:'CMU Sans Serif, Normal';font-variant-ligatures:normal;font-variant-caps:normal;font-variant-numeric:normal;font-variant-east-asian:normal;stroke-width:0.264583"
           y="74.870407"
           x="40.782928"
           sodipodi:role="line">crossing</tspan></text>
      <text
         id="text29756-0"
         y="85.182877"
         x="65.581856"
         style="font-style:normal;font-variant:normal;font-weight:normal;font-stretch:normal;font-size:2.82223px;line-height:1.25;font-family:'CMU Sans Serif';-inkscape-font-specification:'CMU Sans Serif, Normal';font-variant-ligatures:normal;font-variant-caps:normal;font-variant-numeric:normal;font-variant-east-asian:normal;stroke-width:0.264583"
         xml:space="preserve"><tspan
           style="font-style:normal;font-variant:normal;font-weight:normal;font-stretch:normal;font-size:2.82223px;font-family:'CMU Sans Serif';-inkscape-font-specification:'CMU Sans Serif, Normal';font-variant-ligatures:normal;font-variant-caps:normal;font-variant-numeric:normal;font-variant-east-asian:normal;stroke-width:0.264583"
           y="85.182877"
           x="65.581856"
           id="tspan29754-4"
           sodipodi:role="line">Phosphorescence</tspan></text>
      <path
         id="path2129"
         d="M 10.220712,98.622452 V 46.691142"
         style="fill:none;stroke:#000000;stroke-width:0.365;stroke-linecap:butt;stroke-linejoin:miter;stroke-miterlimit:4;stroke-dasharray:none;stroke-opacity:1;marker-start:url(#StopL);marker-end:url(#marker2133)" />
      <text
         id="text2529"
         y="51.415848"
         x="7.3529992"
         style="font-size:2.82223px;line-height:1.25;font-family:'CMU Sans Serif';-inkscape-font-specification:'CMU Sans Serif, Normal';stroke-width:0.264583"
         xml:space="preserve"><tspan
           style="stroke-width:0.264583"
           y="51.415848"
           x="7.3529992"
           id="tspan2527"
           sodipodi:role="line">E</tspan></text>
      <text
         xml:space="preserve"
         style="font-style:normal;font-variant:normal;font-weight:normal;font-stretch:normal;font-size:2.82223px;line-height:1.25;font-family:'CMU Sans Serif';-inkscape-font-specification:'CMU Sans Serif, Normal';font-variant-ligatures:normal;font-variant-caps:normal;font-variant-numeric:normal;font-variant-east-asian:normal;fill:#000000;fill-opacity:1;stroke:none;stroke-width:0.264583"
         x="36.202408"
         y="57.253487"
         id="text1183-6"><tspan
           sodipodi:role="line"
           x="36.202408"
           y="57.253487"
           style="font-style:normal;font-variant:normal;font-weight:normal;font-stretch:normal;font-size:2.82223px;font-family:'CMU Sans Serif';-inkscape-font-specification:'CMU Sans Serif, Normal';font-variant-ligatures:normal;font-variant-caps:normal;font-variant-numeric:normal;font-variant-east-asian:normal;stroke-width:0.264583"
           id="tspan1245-1">Radiationless</tspan><tspan
           sodipodi:role="line"
           x="36.202408"
           y="60.781273"
           style="font-style:normal;font-variant:normal;font-weight:normal;font-stretch:normal;font-size:2.82223px;font-family:'CMU Sans Serif';-inkscape-font-specification:'CMU Sans Serif, Normal';font-variant-ligatures:normal;font-variant-caps:normal;font-variant-numeric:normal;font-variant-east-asian:normal;stroke-width:0.264583"
           id="tspan1162">transition</tspan></text>
    </g>
  </g>
</svg>
