<?xml version="1.0" encoding="UTF-8" standalone="no"?>
<svg
   xmlns:dc="http://purl.org/dc/elements/1.1/"
   xmlns:cc="http://creativecommons.org/ns#"
   xmlns:rdf="http://www.w3.org/1999/02/22-rdf-syntax-ns#"
   xmlns:svg="http://www.w3.org/2000/svg"
   xmlns="http://www.w3.org/2000/svg"
   xmlns:sodipodi="http://sodipodi.sourceforge.net/DTD/sodipodi-0.dtd"
   xmlns:inkscape="http://www.inkscape.org/namespaces/inkscape"
   inkscape:version="1.0 (4035a4fb49, 2020-05-01)"
   sodipodi:docname="photomultiplier.svg"
   viewBox="0 0 409.12543 171.46326"
   height="171.46326"
   width="409.12543"
   xml:space="preserve"
   id="svg833"
   version="1.1"><metadata
     id="metadata839"><rdf:RDF><cc:Work
         rdf:about=""><dc:format>image/svg+xml</dc:format><dc:type
           rdf:resource="http://purl.org/dc/dcmitype/StillImage" /><dc:title></dc:title></cc:Work></rdf:RDF></metadata><defs
     id="defs837"><clipPath
       id="clipPath1211"
       clipPathUnits="userSpaceOnUse"><path
         id="path1209"
         d="m 0,-9.76794 h 150.8 v 9.255977 H 0 Z" /></clipPath></defs><sodipodi:namedview
     inkscape:current-layer="g841"
     inkscape:window-maximized="1"
     inkscape:window-y="-8"
     inkscape:window-x="1912"
     inkscape:cy="116.07557"
     inkscape:cx="180.62085"
     inkscape:zoom="2.5159845"
     showgrid="false"
     id="namedview835"
     inkscape:window-height="1057"
     inkscape:window-width="1855"
     inkscape:pageshadow="2"
     inkscape:pageopacity="0"
     guidetolerance="10"
     gridtolerance="10"
     objecttolerance="10"
     borderopacity="1"
     bordercolor="#666666"
     pagecolor="#ffffff" /><g
     transform="matrix(1.3333333,0,0,-1.3333333,-121.45036,596.6728)"
     inkscape:label="photomultipliert"
     inkscape:groupmode="layer"
     id="g841"><g
       id="g857"
       transform="translate(206.21683,378.92108)"><path
         d="m 0,0 c -0.972,8.389 -8.101,14.902 -16.751,14.902 -0.401,0 -0.799,-0.014 -1.192,-0.041"
         style="fill:none;stroke:#000000;stroke-width:0.9;stroke-linecap:butt;stroke-linejoin:miter;stroke-miterlimit:4;stroke-dasharray:none;stroke-opacity:1"
         id="path859" /></g><g
       id="g861"
       transform="translate(187.96584,378.45908)"><path
         d="M 0,0 V 14.7"
         style="fill:none;stroke:#000000;stroke-width:0.6;stroke-linecap:butt;stroke-linejoin:miter;stroke-miterlimit:4;stroke-dasharray:3, 3;stroke-dashoffset:0;stroke-opacity:1"
         id="path863" /></g><g
       id="g865"
       transform="translate(242.96683,378.92108)"><path
         d="M 0,0 C -0.955,8.242 -7.855,14.674 -16.3,14.896"
         style="fill:none;stroke:#000000;stroke-width:0.9;stroke-linecap:butt;stroke-linejoin:miter;stroke-miterlimit:4;stroke-dasharray:none;stroke-opacity:1"
         id="path867" /></g><g
       id="g869"
       transform="translate(226.66583,378.45908)"><path
         d="M 0,0 V 14.7"
         style="fill:none;stroke:#000000;stroke-width:0.6;stroke-linecap:butt;stroke-linejoin:miter;stroke-miterlimit:4;stroke-dasharray:3, 3;stroke-dashoffset:0;stroke-opacity:1"
         id="path871" /></g><g
       id="g873"
       transform="translate(278.06683,378.92108)"><path
         d="M 0,0 C -0.926,8.001 -7.454,14.295 -15.56,14.861"
         style="fill:none;stroke:#000000;stroke-width:0.9;stroke-linecap:butt;stroke-linejoin:miter;stroke-miterlimit:4;stroke-dasharray:none;stroke-opacity:1"
         id="path875" /></g><g
       id="g877"
       transform="translate(262.36583,378.45908)"><path
         d="M 0,0 V 14.7"
         style="fill:none;stroke:#000000;stroke-width:0.6;stroke-linecap:butt;stroke-linejoin:miter;stroke-miterlimit:4;stroke-dasharray:3, 3;stroke-dashoffset:0;stroke-opacity:1"
         id="path879" /></g><g
       id="g881"
       transform="translate(259.50282,393.86008)"><path
         d="M 0,0 C -8.001,-0.927 -14.295,-7.454 -14.861,-15.56"
         style="fill:none;stroke:#000000;stroke-width:0.9;stroke-linecap:butt;stroke-linejoin:miter;stroke-miterlimit:4;stroke-dasharray:none;stroke-opacity:1"
         id="path883" /></g><g
       id="g885"
       transform="translate(259.96584,378.15809)"><path
         d="M 0,0 H -14.7"
         style="fill:none;stroke:#000000;stroke-width:0.6;stroke-linecap:butt;stroke-linejoin:miter;stroke-miterlimit:4;stroke-dasharray:3, 3;stroke-dashoffset:0;stroke-opacity:1"
         id="path887" /></g><g
       id="g889"
       transform="translate(223.95283,393.86008)"><path
         d="M 0,0 C -8.001,-0.927 -14.295,-7.454 -14.861,-15.56"
         style="fill:none;stroke:#000000;stroke-width:0.9;stroke-linecap:butt;stroke-linejoin:miter;stroke-miterlimit:4;stroke-dasharray:none;stroke-opacity:1"
         id="path891" /></g><g
       id="g893"
       transform="translate(224.41583,378.15809)"><path
         d="M 0,0 H -14.7"
         style="fill:none;stroke:#000000;stroke-width:0.6;stroke-linecap:butt;stroke-linejoin:miter;stroke-miterlimit:4;stroke-dasharray:3, 3;stroke-dashoffset:0;stroke-opacity:1"
         id="path895" /></g><g
       id="g897"
       transform="translate(260.21683,376.19608)"><path
         d="M 0,0 C -0.926,-8.001 -7.454,-14.295 -15.56,-14.86"
         style="fill:none;stroke:#000000;stroke-width:0.9;stroke-linecap:butt;stroke-linejoin:miter;stroke-miterlimit:4;stroke-dasharray:none;stroke-opacity:1"
         id="path899" /></g><g
       id="g901"
       transform="translate(244.51582,376.65809)"><path
         d="M 0,0 V -14.699"
         style="fill:none;stroke:#000000;stroke-width:0.6;stroke-linecap:butt;stroke-linejoin:miter;stroke-miterlimit:4;stroke-dasharray:3, 3;stroke-dashoffset:0;stroke-opacity:1"
         id="path903" /></g><g
       id="g905"
       transform="translate(225.11684,376.19608)"><path
         d="M 0,0 C -0.927,-8.001 -7.454,-14.295 -15.56,-14.86"
         style="fill:none;stroke:#000000;stroke-width:0.9;stroke-linecap:butt;stroke-linejoin:miter;stroke-miterlimit:4;stroke-dasharray:none;stroke-opacity:1"
         id="path907" /></g><g
       id="g909"
       transform="translate(209.41584,376.65809)"><path
         d="M 0,0 V -14.699"
         style="fill:none;stroke:#000000;stroke-width:0.6;stroke-linecap:butt;stroke-linejoin:miter;stroke-miterlimit:4;stroke-dasharray:3, 3;stroke-dashoffset:0;stroke-opacity:1"
         id="path911" /></g><g
       id="g913"
       transform="translate(206.70283,360.95708)"><path
         d="M 0,0 C -8.001,0.926 -14.295,7.454 -14.861,15.561"
         style="fill:none;stroke:#000000;stroke-width:0.9;stroke-linecap:butt;stroke-linejoin:miter;stroke-miterlimit:4;stroke-dasharray:none;stroke-opacity:1"
         id="path915" /></g><g
       id="g917"
       transform="translate(207.16584,376.65809)"><path
         d="M 0,0 H -14.7"
         style="fill:none;stroke:#000000;stroke-width:0.6;stroke-linecap:butt;stroke-linejoin:miter;stroke-miterlimit:4;stroke-dasharray:3, 3;stroke-dashoffset:0;stroke-opacity:1"
         id="path919" /></g><g
       id="g921"
       transform="translate(241.65283,360.95708)"><path
         d="M 0,0 C -8.001,0.926 -14.295,7.454 -14.861,15.561"
         style="fill:none;stroke:#000000;stroke-width:0.9;stroke-linecap:butt;stroke-linejoin:miter;stroke-miterlimit:4;stroke-dasharray:none;stroke-opacity:1"
         id="path923" /></g><g
       id="g925"
       transform="translate(242.11583,376.65809)"><path
         d="M 0,0 H -14.7"
         style="fill:none;stroke:#000000;stroke-width:0.6;stroke-linecap:butt;stroke-linejoin:miter;stroke-miterlimit:4;stroke-dasharray:3, 3;stroke-dashoffset:0;stroke-opacity:1"
         id="path927" /></g><g
       id="g929"
       transform="translate(277.35283,360.95708)"><path
         d="M 0,0 C -8.001,0.926 -14.295,7.454 -14.861,15.561"
         style="fill:none;stroke:#000000;stroke-width:0.9;stroke-linecap:butt;stroke-linejoin:miter;stroke-miterlimit:4;stroke-dasharray:none;stroke-opacity:1"
         id="path931" /></g><g
       id="g933"
       transform="translate(277.81583,376.65809)"><path
         d="M 0,0 H -14.7"
         style="fill:none;stroke:#000000;stroke-width:0.6;stroke-linecap:butt;stroke-linejoin:miter;stroke-miterlimit:4;stroke-dasharray:3, 3;stroke-dashoffset:0;stroke-opacity:1"
         id="path935" /></g><g
       id="g937"
       transform="translate(154.06583,412.05909)"><path
         d="M 0,0 V -52.051"
         style="fill:none;stroke:#000000;stroke-width:0.9;stroke-linecap:butt;stroke-linejoin:miter;stroke-miterlimit:4;stroke-dasharray:4.8, 1.8;stroke-dashoffset:0;stroke-opacity:1"
         id="path939" /></g><g
       id="g941"
       transform="translate(184.28784,396.31409)"><path
         d="m 0,0 v 11.219 c 0,0.47 -0.38,0.85 -0.85,0.85 H -4.422 M 0,-21.011 V -32.23 c 0,-0.47 -0.38,-0.851 -0.85,-0.851 h -3.572 m -23.1,48.376 h 24.15 m -24.15,-51.001 h 24.15"
         style="fill:none;stroke:#000000;stroke-width:1.2;stroke-linecap:butt;stroke-linejoin:miter;stroke-miterlimit:4;stroke-dasharray:none;stroke-opacity:1"
         id="path943" /></g><g
       id="g945"
       transform="translate(280.64284,361.51308)"><path
         d="m 0,0 h 5.145 c 0.939,0 1.701,0.761 1.701,1.7 v 11.591 c 0,0.939 -0.762,1.701 -1.701,1.701 H 0"
         style="fill:none;stroke:#000000;stroke-width:0.9;stroke-linecap:butt;stroke-linejoin:miter;stroke-miterlimit:4;stroke-dasharray:none;stroke-opacity:1"
         id="path947" /></g><g
       id="g951"
       transform="translate(251.71584,360.01009)"><path
         d="m 0,0 h 62.945 c 3.758,0 6.803,3.046 6.803,6.803 v 38.591 c 0,3.757 -3.045,6.803 -6.803,6.803 H -98.346 c -2.347,0 -4.251,-1.904 -4.251,-4.251 V 4.252 c 0,-2.349 1.904,-4.252 4.251,-4.252 z m 69.75,44.324 h 9.9 c 0.703,0 1.275,0.571 1.275,1.275 0,0.704 -0.572,1.275 -1.275,1.275 H 69.6 m 0.15,-11.55 h 9.9 c 0.703,0 1.275,0.571 1.275,1.275 0,0.704 -0.572,1.275 -1.275,1.275 H 69.6 m 0.15,-12.15 h 9.9 c 0.703,0 1.275,0.571 1.275,1.275 0,0.704 -0.572,1.275 -1.275,1.275 H 69.6 m 0.15,-12.001 h 9.9 c 0.703,0 1.275,0.572 1.275,1.276 0,0.704 -0.572,1.275 -1.275,1.275 H 69.6 M 69.75,6.223 h 9.9 c 0.703,0 1.275,0.572 1.275,1.275 0,0.705 -0.572,1.275 -1.275,1.275 H 69.6"
         style="fill:none;stroke:#000000;stroke-width:0.9;stroke-linecap:butt;stroke-linejoin:miter;stroke-miterlimit:4;stroke-dasharray:none;stroke-opacity:1"
         id="path953" /></g><g
       id="g955"
       transform="translate(216.09084,363.00809)"><path
         d="M 0,0 C -3.375,3.15 -13.425,2.85 -17.775,1.35 M -17.7,1.426 C -13.05,3.6 -5.775,6.15 3.45,2.625 m -17.325,-3.449 c 3.375,3.15 7.2,7.875 20.925,7.875 m -21,-7.951 c 3.6,7.726 15.825,11.25 22.2,10.726 m -20.7,13.275 C -17.4,15 -18.825,9.076 -17.775,1.5 M -12.3,22.726 C -15.6,14.701 -15.975,6.375 -13.5,-0.225 M 3.675,2.85 c 0,9.525 1.5,18.076 3.075,21.226 M 3.675,2.775 C 2.7,10.65 3.75,20.926 4.575,23.401 M -0.075,0.225 C -0.3,12.076 2.025,22.201 4.2,26.551 M -0.075,0.225 c -0.975,12.9 0.75,23.101 2.025,26.326 M 8.1,9.525 C 2.175,16.051 -0.075,21.676 -0.6,25.051 M 8.025,9.375 C 3.675,12.75 -1.65,19.801 -2.625,23.176 M 6.6,6.525 C 0.675,13.426 -1.8,17.1 -3.075,20.701 M 6.675,6.451 C 0.9,11.025 -3.975,17.176 -4.875,18.6"
         style="fill:none;stroke:#000000;stroke-width:0.45;stroke-linecap:butt;stroke-linejoin:miter;stroke-miterlimit:4;stroke-dasharray:none;stroke-opacity:1"
         id="path957" /></g><g
       id="g959"
       transform="translate(214.96584,371.70908)"><path
         d="M 0,0 -2.325,-0.34 -1.786,-1.496 0,0"
         style="fill:#000000;fill-opacity:1;fill-rule:nonzero;stroke:none"
         id="path961" /></g><g
       id="g963"
       transform="translate(215.11584,369.30909)"><path
         d="M 0,0 -2.349,0.069 -2.019,-1.162 0,0"
         style="fill:#000000;fill-opacity:1;fill-rule:nonzero;stroke:none"
         id="path965" /></g><g
       id="g967"
       transform="translate(215.94084,366.75809)"><path
         d="M 0,0 -2.183,0.869 -2.295,-0.401 0,0"
         style="fill:#000000;fill-opacity:1;fill-rule:nonzero;stroke:none"
         id="path969" /></g><g
       id="g971"
       transform="translate(215.19084,363.68409)"><path
         d="M 0,0 -1.755,1.562 -2.293,0.407 0,0"
         style="fill:#000000;fill-opacity:1;fill-rule:nonzero;stroke:none"
         id="path973" /></g><g
       id="g975"
       transform="translate(210.99084,381.83408)"><path
         d="M 0,0 0.929,-2.158 1.905,-1.338 0,0"
         style="fill:#000000;fill-opacity:1;fill-rule:nonzero;stroke:none"
         id="path977" /></g><g
       id="g979"
       transform="translate(212.94084,384.08408)"><path
         d="M 0,0 0.339,-2.326 1.494,-1.786 0,0"
         style="fill:#000000;fill-opacity:1;fill-rule:nonzero;stroke:none"
         id="path981" /></g><g
       id="g983"
       transform="translate(213.39082,386.63408)"><path
         d="M 0,0 0.339,-2.325 1.494,-1.786 0,0"
         style="fill:#000000;fill-opacity:1;fill-rule:nonzero;stroke:none"
         id="path985" /></g><g
       id="g987"
       transform="translate(215.34084,388.13408)"><path
         d="M 0,0 0.135,-2.346 1.333,-1.909 0,0"
         style="fill:#000000;fill-opacity:1;fill-rule:nonzero;stroke:none"
         id="path989" /></g><g
       id="g991"
       transform="translate(218.07783,389.88908)"><path
         d="M 0,0 -1.055,-2.099 0.201,-2.32 0,0"
         style="fill:#000000;fill-opacity:1;fill-rule:nonzero;stroke:none"
         id="path993" /></g><g
       id="g995"
       transform="translate(220.38483,389.87708)"><path
         d="M 0,0 -1.404,-1.884 -0.206,-2.32 0,0"
         style="fill:#000000;fill-opacity:1;fill-rule:nonzero;stroke:none"
         id="path997" /></g><g
       id="g999"
       transform="translate(220.72183,386.32909)"><path
         d="M 0,0 -1.2,-2.021 0.037,-2.329 0,0"
         style="fill:#000000;fill-opacity:1;fill-rule:nonzero;stroke:none"
         id="path1001" /></g><g
       id="g1003"
       transform="translate(222.95283,387.23708)"><path
         d="M 0,0 -1.371,-1.907 -0.166,-2.323 0,0"
         style="fill:#000000;fill-opacity:1;fill-rule:nonzero;stroke:none"
         id="path1005" /></g><g
       id="g1007"
       transform="translate(198.05283,371.9781)"><path
         d="M 0,0 1.055,2.099 -0.2,2.32 0,0"
         style="fill:#000000;fill-opacity:1;fill-rule:nonzero;stroke:none"
         id="path1009" /></g><g
       id="g1011"
       transform="translate(200.90283,371.37809)"><path
         d="M 0,0 0.869,2.183 -0.401,2.295 0,0"
         style="fill:#000000;fill-opacity:1;fill-rule:nonzero;stroke:none"
         id="path1013" /></g><g
       id="g1015"
       transform="translate(131.86583,387.1591)"><path
         d="M 0,0 H 12.6"
         style="fill:#000000;fill-opacity:1;fill-rule:nonzero;stroke:#000000;stroke-width:1.2;stroke-linecap:butt;stroke-linejoin:miter;stroke-miterlimit:4;stroke-dasharray:none;stroke-opacity:1"
         id="path1017" /></g><g
       id="g1019"
       transform="translate(147.34183,387.08207)"><path
         d="M 0,0 -7.02,2.106 V -1.873 L 0,0"
         style="fill:#000000;fill-opacity:1;fill-rule:nonzero;stroke:none"
         id="path1021" /></g><g
       id="g1023"
       transform="translate(154.06583,387.00908)"><path
         d="M 0,0 H 48.9 M 31.5,19.5 41.7,53.887 h 80.278 M 46.65,-3.601 41.212,32.687 H 87.099 M 128.55,-8.7 117.899,29.9 h 50.7 M -6.9,-15.601 l -15.75,-12 h -38.61 m 62.895,14.693 25.064,-48.161 h 59.638 m 42.813,39.168 13.35,-20.7 h 27.599 m -1.049,32.401 8.1,-25.801 h 22.279 M 171.45,21 183.449,31.101 h 35.009 M 126.6,-29.101 c -1.2,-2.25 -2.4,-2.4 -6,-2.4 -3.6,0 -34.05,0 -34.05,0 -2.55,0 -3.3,-0.15 -4.95,-2.549 -1.65,2.399 -2.4,2.549 -4.95,2.549 0,0 -30.45,0 -34.05,0 -3.6,0 -4.8,0.15 -6,2.4"
         style="fill:none;stroke:#000000;stroke-width:0.18;stroke-linecap:butt;stroke-linejoin:miter;stroke-miterlimit:4;stroke-dasharray:none;stroke-opacity:1"
         id="path1025" /></g><g
       id="g1027"
       transform="translate(181.77384,386.98808)"><path
         d="M 0,0 -4.05,1.013 V -0.9 L 0,0"
         style="fill:#000000;fill-opacity:1;fill-rule:nonzero;stroke:none"
         id="path1029" /></g><g
       id="g1031"
       transform="translate(148.77383,373.11308)"><path
         d="M 0,0 -3.754,-1.827 -2.525,-3.292 0,0"
         style="fill:#000000;fill-opacity:1;fill-rule:nonzero;stroke:none"
         id="path1033" /></g><g
       id="g1035"
       transform="translate(154.23383,376.48208)"><path
         d="M 0,0 1.149,-4.014 2.806,-3.058 0,0"
         style="fill:#000000;fill-opacity:1;fill-rule:nonzero;stroke:none"
         id="path1037" /></g><g
       id="g1039"
       transform="translate(184.81584,404.7841)"><path
         d="M 0,0 2.336,3.459 0.539,4.113 0,0"
         style="fill:#000000;fill-opacity:1;fill-rule:nonzero;stroke:none"
         id="path1041" /></g><g
       id="g1043"
       transform="translate(201.01582,381.98309)"><path
         d="M 0,0 0.293,4.165 -1.59,3.833 0,0"
         style="fill:#000000;fill-opacity:1;fill-rule:nonzero;stroke:none"
         id="path1045" /></g><g
       id="g1047"
       transform="translate(283.29083,376.88309)"><path
         d="M 0,0 -0.795,4.1 -2.528,3.291 0,0"
         style="fill:#000000;fill-opacity:1;fill-rule:nonzero;stroke:none"
         id="path1049" /></g><g
       id="g1051"
       transform="translate(282.02083,367.16909)"><path
         d="M 0,0 1.148,-4.014 2.805,-3.058 0,0"
         style="fill:#000000;fill-opacity:1;fill-rule:nonzero;stroke:none"
         id="path1053" /></g><g
       id="g1055"
       transform="translate(325.07883,407.00509)"><path
         d="M 0,0 3.434,2.376 1.997,3.638 0,0"
         style="fill:#000000;fill-opacity:1;fill-rule:nonzero;stroke:none"
         id="path1057" /></g><g
       id="g1059"
       transform="translate(322.68384,378.05708)"><path
         d="M 0,0 0.435,-4.153 2.232,-3.498 0,0"
         style="fill:#000000;fill-opacity:1;fill-rule:nonzero;stroke:none"
         id="path1061" /></g><text
       transform="scale(1,-1)"
       y="-327.84357"
       x="183.79573"
       style="font-variant:normal;font-weight:normal;font-size:6.6px;font-family:Helvetica;-inkscape-font-specification:Helvetica;writing-mode:lr-tb;fill:#000000;fill-opacity:1;fill-rule:nonzero;stroke:none;stroke-width:0.999998"
       id="text1071"><tspan
         style="stroke-width:0.999998"
         x="183.79573 188.19727 192.96181 198.09595 202.1279 207.26204 212.02657 216.42812 220.46005 225.22459 230.35873 235.12328"
         y="-327.84357"
         sodipodi:role="line"
         id="tspan1063">PHOTOCATHODE</tspan><tspan
         style="stroke-width:0.999998"
         x="92.511131 96.543068 100.94461 105.70915 110.11069 114.51223 118.18117 122.58271 126.61465"
         y="-361.70819"
         sodipodi:role="line"
         id="tspan1065">FACEPLATE</tspan><tspan
         style="stroke-width:0.999998"
         x="90.76873 95.533272 97.367409 102.13195 106.53349 111.29803 115.32997 117.16411 122.29826"
         y="-389.90997"
         sodipodi:role="line"
         id="tspan1067">DIRECTION</tspan><tspan
         style="stroke-width:0.999998"
         x="90.76873 95.90287 99.934807 101.76961 105.43855 107.27269 112.40683 117.17137"
         y="-383.10541"
         sodipodi:role="line"
         id="tspan1069">OF LIGHT</tspan></text><text
       transform="scale(1,-1)"
       y="-389.1095"
       x="172.23103"
       style="font-variant:normal;font-weight:normal;font-size:6.6px;font-family:Helvetica;-inkscape-font-specification:Helvetica;writing-mode:lr-tb;fill:#000000;fill-opacity:1;fill-rule:nonzero;stroke:none;stroke-width:0.999998"
       id="text1079"><tspan
         style="stroke-width:0.999998"
         x="172.23103"
         y="-389.1095"
         id="tspan1075">e</tspan><tspan
         style="stroke-width:0.999998"
         x="175.90063"
         y="-390.81232"
         id="tspan1077">-</tspan></text><g
       id="g1081"
       transform="translate(280.96483,373.05908)"><path
         d="M 0,0 C 0.234,0 0.425,0.191 0.425,0.426 0.425,0.66 0.234,0.851 0,0.851 -0.234,0.851 -0.425,0.66 -0.425,0.426 -0.425,0.191 -0.234,0 0,0"
         style="fill:#000000;fill-opacity:1;fill-rule:nonzero;stroke:none"
         id="path1083" /></g><g
       id="g1087"
       transform="translate(280.96483,370.08408)"><path
         d="M 0,0 C 0.234,0 0.425,0.19 0.425,0.424 0.425,0.659 0.234,0.85 0,0.85 -0.234,0.85 -0.425,0.659 -0.425,0.424 -0.425,0.19 -0.234,0 0,0"
         style="fill:#000000;fill-opacity:1;fill-rule:nonzero;stroke:none"
         id="path1089" /></g><g
       id="g1093"
       transform="translate(280.96483,367.1461)"><path
         d="M 0,0 C 0.234,0 0.425,0.19 0.425,0.425 0.425,0.66 0.234,0.85 0,0.85 -0.234,0.85 -0.425,0.66 -0.425,0.425 -0.425,0.19 -0.234,0 0,0"
         style="fill:#000000;fill-opacity:1;fill-rule:nonzero;stroke:none"
         id="path1095" /></g><g
       id="g1099"
       transform="translate(280.96483,364.12009)"><path
         d="M 0,0 C 0.234,0 0.425,0.19 0.425,0.425 0.425,0.66 0.234,0.85 0,0.85 -0.234,0.85 -0.425,0.66 -0.425,0.425 -0.425,0.19 -0.234,0 0,0"
         style="fill:#000000;fill-opacity:1;fill-rule:nonzero;stroke:none"
         id="path1101" /></g><text
       transform="scale(1,-1)"
       y="-345.35962"
       x="196.69254"
       style="font-variant:normal;font-weight:normal;font-size:6.6px;font-family:Helvetica;-inkscape-font-specification:Helvetica;writing-mode:lr-tb;fill:#000000;fill-opacity:1;fill-rule:nonzero;stroke:none;stroke-width:0.999998"
       id="text1121"><tspan
         style="stroke-width:0.999998"
         x="196.69254 201.09407 204.76302 209.16454 213.92909 217.96104 222.72557 227.85971 232.62425 234.45906 239.95619 244.72073 248.38968 252.42162 254.25575 258.65729 262.32623 264.1604 268.56192"
         y="-345.35962"
         sodipodi:role="line"
         id="tspan1105">ELECTRON MULTIPLIER</tspan><tspan
         style="stroke-width:0.999998"
         x="216.49913 218.69629 223.46082 227.86235 232.62689 237.76103 242.52557 246.92711 251.32866"
         y="-338.55499"
         sodipodi:role="line"
         id="tspan1107">(DYNODES)</tspan><tspan
         style="stroke-width:0.999998"
         x="198.29633 202.32828 207.46242 212.22696 216.99149 221.39302 223.22717 227.99171 233.12585 234.96065 239.36218 243.03113 247.43268 252.19722 256.22916 260.99371 266.12784 270.89236"
         y="-442.69641"
         sodipodi:role="line"
         id="tspan1109">FOCUSING ELECTRODE</tspan><tspan
         style="stroke-width:0.999998"
         x="274.87613 278.54507 282.94662 287.34818 291.3801 293.2149 297.97946 302.38098 307.14554 312.27966 317.04422"
         y="-419.06183"
         sodipodi:role="line"
         id="tspan1111">LAST DYNODE</tspan><tspan
         style="stroke-width:0.999998"
         x="339.68814 344.08969 348.12161 352.52316 358.02029 359.8551 364.25665 366.09076"
         y="-420.263"
         sodipodi:role="line"
         id="tspan1113">STEM PIN</tspan><tspan
         style="stroke-width:0.999998"
         x="281.11313 285.51468 289.91623 294.68076 299.44531 304.20984"
         y="-402.96442"
         sodipodi:role="line"
         id="tspan1115">VACUUM</tspan><tspan
         style="stroke-width:0.999998"
         x="284.76294 286.96008 290.81381 294.48276 298.1517"
         y="-395.26221"
         sodipodi:role="line"
         id="tspan1117">(~10P</tspan><tspan
         style="stroke-width:0.999998"
         x="302.55655"
         y="-397.80981"
         id="tspan1119">-</tspan></text><text
       transform="scale(1,-1)"
       y="-397.81061"
       x="304.74875"
       style="font-variant:normal;font-weight:normal;font-size:5.1023px;font-family:Helvetica;-inkscape-font-specification:Helvetica;writing-mode:lr-tb;fill:#000000;fill-opacity:1;fill-rule:nonzero;stroke:none;stroke-width:0.999998"
       id="text1125"><tspan
         style="stroke-width:0.999998"
         x="304.74875"
         y="-397.81061"
         id="tspan1123">4</tspan></text><text
       transform="scale(1,-1)"
       y="-395.25952"
       x="307.58603"
       style="font-variant:normal;font-weight:normal;font-size:6.6px;font-family:Helvetica;-inkscape-font-specification:Helvetica;writing-mode:lr-tb;fill:#000000;fill-opacity:1;fill-rule:nonzero;stroke:none;stroke-width:0.999998"
       id="text1137"><tspan
         style="stroke-width:0.999998"
         x="307.58603"
         y="-395.25952"
         id="tspan1127">)</tspan><tspan
         style="stroke-width:0.999998"
         x="199.07544 203.47697 207.87851 212.64304 217.77718 222.54173 227.30626 231.70781 236.47235"
         y="-429.1571"
         sodipodi:role="line"
         id="tspan1129">SECONDARY</tspan><tspan
         style="stroke-width:0.999998"
         x="199.07544 203.47697 207.14592 211.54745 216.312 220.34392 225.10846 230.2426"
         y="-422.35248"
         sodipodi:role="line"
         id="tspan1131">ELECTRON</tspan><tspan
         style="stroke-width:0.999998"
         x="299.96304 304.36456 309.12912 314.26324 319.0278"
         y="-346.6637"
         sodipodi:role="line"
         id="tspan1133">ANODE</tspan><tspan
         style="stroke-width:0.999998"
         x="333.95303 338.35458 342.38651 346.78806"
         y="-353.32312"
         sodipodi:role="line"
         id="tspan1135">STEM</tspan></text><text
       transform="scale(1,-1)"
       y="-319.70209"
       x="368.56485"
       style="font-variant:normal;font-weight:normal;font-size:4px;font-family:Helvetica;-inkscape-font-specification:Helvetica;writing-mode:lr-tb;fill:#231f20;fill-opacity:1;fill-rule:nonzero;stroke:none;stroke-width:0.999998"
       id="text1141"><tspan
         style="stroke-width:0.999998"
         x="368.56485 371.01004 373.89923 376.56842 379.23761 381.46283 383.68802 385.91324 388.13843 390.36365 392.58884 395.25803"
         y="-319.70209"
         sodipodi:role="line"
         id="tspan1139">THBV3_0201EA</tspan></text></g></svg>
