<?xml version="1.0" encoding="UTF-8" standalone="no"?>
<svg
   xmlns:dc="http://purl.org/dc/elements/1.1/"
   xmlns:cc="http://creativecommons.org/ns#"
   xmlns:rdf="http://www.w3.org/1999/02/22-rdf-syntax-ns#"
   xmlns:svg="http://www.w3.org/2000/svg"
   xmlns="http://www.w3.org/2000/svg"
   xmlns:sodipodi="http://sodipodi.sourceforge.net/DTD/sodipodi-0.dtd"
   xmlns:inkscape="http://www.inkscape.org/namespaces/inkscape"
   sodipodi:docname="testbeam.svg"
   inkscape:version="1.0 (4035a4fb49, 2020-05-01)"
   id="svg77003"
   version="1.1"
   viewBox="0 0 37.318008 51.349663"
   height="51.349663mm"
   width="37.318008mm">
  <defs
     id="defs76997">
    <clipPath
       clipPathUnits="userSpaceOnUse"
       id="clipPath77592">
      <path
         d="M 0,413.957 H 292.646 V 0 H 0 Z"
         id="path77590" />
    </clipPath>
    <clipPath
       clipPathUnits="userSpaceOnUse"
       id="clipPath77692">
      <path
         d="M 0,413.957 H 292.646 V 0 H 0 Z"
         id="path77690" />
    </clipPath>
    <clipPath
       clipPathUnits="userSpaceOnUse"
       id="clipPath78050">
      <path
         d="M 0,413.957 H 292.646 V 0 H 0 Z"
         id="path78048" />
    </clipPath>
    <clipPath
       clipPathUnits="userSpaceOnUse"
       id="clipPath78374">
      <path
         d="M 0,413.957 H 292.646 V 0 H 0 Z"
         id="path78372" />
    </clipPath>
    <clipPath
       clipPathUnits="userSpaceOnUse"
       id="clipPath78390">
      <path
         d="M 0,413.957 H 292.646 V 0 H 0 Z"
         id="path78388" />
    </clipPath>
    <clipPath
       clipPathUnits="userSpaceOnUse"
       id="clipPath78412">
      <path
         d="m 59.868,41.418 h -1.422 v 0.072 h -0.207 v -0.072 h -0.216 -1.854 -1.854 -1.854 v 0.999 h 0.144 1.17 v 0.072 h 1.998 v -0.072 h 0.54 0.045 1.422 v 0.072 h 1.998 v -0.072 h 0.342 0.207 v -0.999 h -0.459 m -9.261,0 h -1.845 v 0.999 h 0.081 0.927 v 0.072 h 2.007 v -0.072 h 0.261 v -0.999 h -1.431 m -3.699,0 h -1.854 v 0.999 h 0.027 0.693 v 0.072 h 1.998 V 41.49 h -0.009 v -0.072 h -0.855 m -3.708,0 h -1.494 -0.09 v 0.072 0.495 0.999 h 0.045 V 43.2 h 0.045 0.999 v -0.216 h 0.567 v -0.495 h 0.495 V 41.49 H 43.488 V 41.418 H 43.2 m -1.494,3.348 v 0.207 0.225 h -0.045 v 2.007 h 0.045 v 0.27 h 0.999 V 46.62 44.766 h -0.999 m 0,3.708 v 0.468 0.261 h -0.045 v 1.998 h 0.045 v 0.549 h 0.999 v -1.422 -1.854 h -0.999 m 0,3.699 v 0.729 0.306 h -0.045 v 1.998 h 0.045 v 0.819 0.846 0.333 h -0.045 v 2.007 h 0.045 v 1.089 0.54 0.369 h -0.045 v 1.998 h 0.045 v 0.036 1.332 0.234 0.405 h -0.045 v 1.998 h 0.045 v 0.081 0.09 h -1.008 v 0.999 h 1.008 v 0.117 h 0.495 0.999 v -1.008 -0.279 h -0.495 v -0.216 -0.288 -1.44 -0.126 -1.854 -0.855 -0.999 -1.845 -1.431 -0.423 -1.854 -1.854 -1.854 h -0.999 m -8.451,16.209 h 3.726 v -0.999 h -3.726 z m -5.229,0 h 1.503 v -0.999 h -1.503 z m 13.68,0.396 v 0.432 h -0.045 v 2.007 h 0.045 v 0.126 h 0.999 v -2.025 -0.54 h -0.999 m 0,3.969 v 0.468 h -0.045 v 1.998 h 0.045 v 0.189 h 0.999 v -2.034 -0.621 h -0.999 m 0,3.969 v 0.504 h -0.045 v 1.998 h 0.045 v 0.234 h 0.999 v -2.025 -0.711 h -0.999 m 0,3.96 v 0.54 h -0.045 v 2.007 h 0.045 v 0.279 h 0.999 v -2.025 -0.801 h -0.999 m 0,3.969 v 0.576 h -0.045 v 1.998 h 0.045 v 0.333 h 0.999 v -2.025 -0.882 h -0.999 m 0,3.969 v 0.612 h -0.045 v 1.998 h 0.045 v 0.378 h 0.999 v -2.025 -0.963 h -0.999 m 0,3.969 v 0.639 h -0.045 v 1.998 h 0.045 v 0.432 h 0.999 v -2.025 -1.044 h -0.999 m 0,3.969 v 0.675 h -0.045 v 1.332 h -0.963 v 0.999 h 1.503 V 99.225 H 42.66 V 99.18 h 0.54 v -0.999 h -0.495 v -0.504 -1.125 h -0.999 m -8.451,3.006 h 3.726 v -0.999 h -3.726 z m -5.229,0 h 1.503 v -0.999 h -1.503 z m 13.68,0.963 v 0.702 h -0.045 v 2.007 h 0.999 v -0.729 h 0.045 v -1.98 h -0.999 m 0,3.969 v 0.738 h -0.045 v 1.998 h 0.999 v -0.756 h 0.045 v -1.98 h -0.999 m 0,3.96 v 0.783 h -0.045 v 0.585 h -0.963 v 0.999 h 1.503 v -0.09 h 0.954 v -0.999 h -0.45 v -1.278 h -0.999 m -8.451,2.367 h 3.726 v -0.999 h -3.726 z m -5.229,0 h 1.503 v -0.999 h -1.503 z m 13.68,3.591 h 0.999 v -1.989 h -0.999 z m 0,3.969 h 0.999 v -1.989 h -0.999 z"
         clip-rule="evenodd"
         id="path78410" />
    </clipPath>
    <clipPath
       clipPathUnits="userSpaceOnUse"
       id="clipPath78426">
      <path
         d="m 64.377,16.659 h 0.999 v -1.503 h -0.999 z m 0,6.768 h 0.999 v -3.384 h -0.999 z m 0,6.768 h 0.999 v -3.384 h -0.999 z m 45.927,-1.026 h 0.999 v -1.494 h -0.999 z m -42.534,0 h 0.999 V 27.675 H 67.77 Z m 42.534,7.452 h 0.999 v -3.726 h -0.999 z m -42.534,0 h 0.999 V 32.895 H 67.77 Z m -3.393,0.342 h 0.999 v -3.384 h -0.999 z m 45.927,3.384 V 41.49 H 109.8 v 0.999 h 0.504 v 0.495 h 0.999 v -1.143 -1.494 h -0.999 m -42.534,0 v 1.071 h -0.486 -0.288 v 0.072 h -1.215 v 0.999 H 67.5 v 0.423 h 0.999 0.279 V 41.418 H 68.769 V 40.347 H 67.77 m -3.393,0 v 1.071 h -0.801 -0.855 v 0.072 h -0.72 v -0.072 h -0.279 -1.395 v 0.999 h 1.449 v 0.072 h 2.007 v -0.072 h 0.099 0.495 v 0.495 h 0.999 v -0.495 h 0.054 v -0.999 h -0.054 v -1.071 h -0.999 m 41.418,2.142 h 2.007 V 41.49 h -2.007 z m -3.996,0 h 1.998 V 41.49 h -1.998 z m -4.005,0 h 1.998 V 41.49 h -1.998 z m -4.005,0 h 2.007 V 41.49 h -2.007 z m -3.996,0 h 1.998 V 41.49 h -1.998 z m -4.005,0 h 1.998 V 41.49 h -1.998 z m -4.005,0 H 83.79 V 41.49 h -2.007 z m -3.996,0 h 1.998 V 41.49 h -1.998 z m -4.005,0 H 75.78 V 41.49 h -1.998 z m -3.996,0 h 1.998 V 41.49 h -1.998 z"
         clip-rule="evenodd"
         id="path78424" />
    </clipPath>
  </defs>
  <sodipodi:namedview
     inkscape:window-maximized="1"
     inkscape:window-y="-8"
     inkscape:window-x="1912"
     inkscape:window-height="1057"
     inkscape:window-width="1855"
     showgrid="false"
     inkscape:document-rotation="0"
     inkscape:current-layer="g77574"
     inkscape:document-units="mm"
     inkscape:cy="107.42305"
     inkscape:cx="55.389167"
     inkscape:zoom="3.959798"
     inkscape:pageshadow="2"
     inkscape:pageopacity="0.0"
     borderopacity="1.0"
     bordercolor="#666666"
     pagecolor="#ffffff"
     id="base" />
  <metadata
     id="metadata77000">
    <rdf:RDF>
      <cc:Work
         rdf:about="">
        <dc:format>image/svg+xml</dc:format>
        <dc:type
           rdf:resource="http://purl.org/dc/dcmitype/StillImage" />
        <dc:title></dc:title>
      </cc:Work>
    </rdf:RDF>
  </metadata>
  <g
     transform="translate(-89.819008,-219.3111)"
     id="layer1"
     inkscape:groupmode="layer"
     inkscape:label="Layer 1">
    <g
       id="g77574"
       inkscape:label="BoxSketch_angle0"
       transform="matrix(0.35277777,0,0,-0.35277777,40.704683,220.08621)">
      <rect
         transform="scale(1,-1)"
         y="-1.6755807"
         x="139.74329"
         height="144.51495"
         width="104.74019"
         id="rect78864"
         style="fill:#808080;fill-opacity:1;stroke:#000000;stroke-width:1.04315;stroke-miterlimit:4;stroke-dasharray:none;stroke-opacity:1" />
      <path
         id="path78870-7"
         style="fill:none;fill-opacity:1;stroke:#000000;stroke-width:0.554558;stroke-miterlimit:4;stroke-dasharray:none;stroke-dashoffset:0;stroke-opacity:1"
         d="m 190.5015,-122.57146 c 0,12.22003 7.01413,22.837048 17.31783,28.20659"
         sodipodi:nodetypes="cc" />
      <path
         sodipodi:nodetypes="ccc"
         id="path78872"
         d="m 140.25156,-122.4354 h 82.74138 L 222.31933,1.1766199"
         style="fill:none;stroke:#383838;stroke-width:0.748347;stroke-linecap:butt;stroke-linejoin:miter;stroke-miterlimit:4;stroke-dasharray:2.24504, 0.748347;stroke-dashoffset:0;stroke-opacity:1" />
      <circle
         transform="scale(1,-1)"
         r="13.731762"
         cy="122.09966"
         cx="222.60736"
         id="path78868"
         style="fill:#b0b0b0;fill-opacity:1;stroke:#000000;stroke-width:1.03465;stroke-miterlimit:4;stroke-dasharray:none;stroke-opacity:1" />
      <path
         id="path78874"
         d="m 223.05415,-122.51751 -30.26786,55.446432"
         style="fill:none;stroke:#000000;stroke-width:0.751181;stroke-linecap:butt;stroke-linejoin:miter;stroke-miterlimit:4;stroke-dasharray:0.751181, 0.751181;stroke-dashoffset:0;stroke-opacity:1" />
      <ellipse
         ry="2.5446429"
         rx="2.4107144"
         transform="scale(1,-1)"
         cy="67.071068"
         cx="192.78629"
         id="path78876"
         style="fill:#ec9072;fill-opacity:1;stroke:#000000;stroke-width:0.467717;stroke-miterlimit:4;stroke-dasharray:none;stroke-dashoffset:0;stroke-opacity:1" />
      <text
         transform="scale(1,-1)"
         id="text78896"
         y="109.39249"
         x="196.13451"
         style="font-style:normal;font-variant:normal;font-weight:normal;font-stretch:normal;font-size:6px;line-height:1.25;font-family:'CMU Sans Serif';-inkscape-font-specification:'CMU Sans Serif, Normal';font-variant-ligatures:normal;font-variant-caps:normal;font-variant-numeric:normal;font-variant-east-asian:normal;stroke-width:0.75"
         xml:space="preserve"><tspan
           style="font-style:normal;font-variant:normal;font-weight:normal;font-stretch:normal;font-size:6px;font-family:'CMU Sans Serif';-inkscape-font-specification:'CMU Sans Serif, Normal';font-variant-ligatures:normal;font-variant-caps:normal;font-variant-numeric:normal;font-variant-east-asian:normal;stroke-width:0.75"
           y="109.39249"
           x="196.13451"
           id="tspan78894"
           sodipodi:role="line">Beam </tspan><tspan
           id="tspan78898"
           style="font-style:normal;font-variant:normal;font-weight:normal;font-stretch:normal;font-size:6px;font-family:'CMU Sans Serif';-inkscape-font-specification:'CMU Sans Serif, Normal';font-variant-ligatures:normal;font-variant-caps:normal;font-variant-numeric:normal;font-variant-east-asian:normal;stroke-width:0.75"
           y="116.89249"
           x="196.13451"
           sodipodi:role="line">angle</tspan></text>
      <text
         transform="scale(1,-1)"
         id="text78902"
         y="63.187149"
         x="177.25058"
         style="font-size:6px;line-height:1.25;font-family:'CMU Sans Serif';-inkscape-font-specification:'CMU Sans Serif, Normal';stroke-width:0.75"
         xml:space="preserve"><tspan
           style="stroke-width:0.75"
           y="63.187149"
           x="177.25058"
           id="tspan78900"
           sodipodi:role="line">Beam</tspan></text>
      <text
         transform="scale(1,-1)"
         id="text78906"
         y="130.68716"
         x="215.15237"
         style="font-size:6px;line-height:1.25;font-family:'CMU Sans Serif';-inkscape-font-specification:'CMU Sans Serif, Normal';stroke-width:0.75"
         xml:space="preserve"><tspan
           style="stroke-width:0.75"
           y="130.68716"
           x="215.15237"
           id="tspan78904"
           sodipodi:role="line">WOM</tspan></text>
      <text
         transform="scale(1,-1)"
         id="text78910"
         y="5.865726"
         x="141.89343"
         style="font-size:6px;line-height:1.25;font-family:'CMU Sans Serif';-inkscape-font-specification:'CMU Sans Serif, Normal';stroke-width:0.75"
         xml:space="preserve"><tspan
           style="stroke-width:0.75"
           y="5.865726"
           x="141.89343"
           id="tspan78908"
           sodipodi:role="line">Liquid scintillator box</tspan></text>
    </g>
  </g>
</svg>
